M48
;Layer_Color=6321
;FILE_FORMAT=2:5
INCH,LZ
;TYPE=PLATED
T1F00S00C0.02000
T2F00S00C0.02500
T3F00S00C0.03150
T4F00S00C0.03543
T5F00S00C0.03937
T6F00S00C0.04000
T7F00S00C0.10236
T8F00S00C0.12000
%
T01
X02485Y01835
T02
X02115Y0154
X0212Y01645
Y01695
X022Y01915
X0259Y01695
X02635Y01655
T03
X0080752Y0274
X0088626
X00965
X0104374
X0112248
T04
X0161862Y0273362
X0169736
X017761
X0185484
X0193358
X0201232
X0209106
X0153988
X0146114
X013824
T05
X0092118Y0153
X0102079
X0112039
X0122
X01631Y0185
Y0245
X01531
X01431
X01331
X01231
X01131
X01031
X00931
X00831
X00731
X00631
X00531
X00431
X00331
X00231
Y0185
X00331
X00431
X00531
X00631
X00731
X00831
X00931
X01031
X01131
X01231
X01331
X01431
X01531
T06
X02155Y0056913
X0225342
X0235185
Y0114
X02155
T07
X0201842Y0086441
X0249342
T08
X0021Y002
X02595
X0259Y02895
X00205
M30
