G04*
G04 #@! TF.GenerationSoftware,Altium Limited,CircuitMaker,2.2.1 (2.2.1.6)*
G04*
G04 Layer_Color=20142*
%FSLAX25Y25*%
%MOIN*%
G70*
G04*
G04 #@! TF.SameCoordinates,14122C10-9453-4DBA-84BC-A3BC323669C7*
G04*
G04*
G04 #@! TF.FilePolarity,Negative*
G04*
G01*
G75*
%ADD13R,0.03556X0.03162*%
%ADD14R,0.09800X0.02300*%
%ADD15R,0.08674X0.08674*%
%ADD16C,0.08674*%
%ADD17C,0.20800*%
%ADD18C,0.06800*%
%ADD19C,0.14579*%
%ADD20C,0.07800*%
G04:AMPARAMS|DCode=21|XSize=70.99mil|YSize=102.49mil|CornerRadius=29.2mil|HoleSize=0mil|Usage=FLASHONLY|Rotation=0.000|XOffset=0mil|YOffset=0mil|HoleType=Round|Shape=RoundedRectangle|*
%AMROUNDEDRECTD21*
21,1,0.07099,0.04410,0,0,0.0*
21,1,0.01260,0.10249,0,0,0.0*
1,1,0.05839,0.00630,-0.02205*
1,1,0.05839,-0.00630,-0.02205*
1,1,0.05839,-0.00630,0.02205*
1,1,0.05839,0.00630,0.02205*
%
%ADD21ROUNDEDRECTD21*%
%ADD22C,0.06706*%
%ADD23C,0.04300*%
%ADD24C,0.03800*%
D13*
X196000Y160500D02*
D03*
Y156563D02*
D03*
D14*
X250000Y139926D02*
D03*
Y142484D02*
D03*
Y145044D02*
D03*
Y147602D02*
D03*
Y150162D02*
D03*
Y152720D02*
D03*
Y155280D02*
D03*
Y157838D02*
D03*
Y160398D02*
D03*
Y162957D02*
D03*
Y165515D02*
D03*
Y168075D02*
D03*
X223000D02*
D03*
Y165515D02*
D03*
Y162957D02*
D03*
Y160398D02*
D03*
Y157838D02*
D03*
Y155280D02*
D03*
Y152720D02*
D03*
Y150162D02*
D03*
Y147602D02*
D03*
Y145044D02*
D03*
Y142484D02*
D03*
Y139926D02*
D03*
D15*
X23100Y185000D02*
D03*
D16*
X33100D02*
D03*
X43100D02*
D03*
X53100D02*
D03*
X63100D02*
D03*
X73100D02*
D03*
X83100D02*
D03*
X93100D02*
D03*
X103100D02*
D03*
X113100D02*
D03*
X123100D02*
D03*
X133100D02*
D03*
X143100D02*
D03*
X153100D02*
D03*
X163100D02*
D03*
X23100Y245000D02*
D03*
X33100D02*
D03*
X43100D02*
D03*
X53100D02*
D03*
X63100D02*
D03*
X73100D02*
D03*
X83100D02*
D03*
X93100D02*
D03*
X103100D02*
D03*
X113100D02*
D03*
X123100D02*
D03*
X133100D02*
D03*
X143100D02*
D03*
X153100D02*
D03*
X163100D02*
D03*
D17*
X20500Y289500D02*
D03*
X259000D02*
D03*
X259500Y20000D02*
D03*
X21000D02*
D03*
D18*
X146114Y273362D02*
D03*
X138240D02*
D03*
X177610D02*
D03*
X169736D02*
D03*
X153988D02*
D03*
X161862D02*
D03*
X193358D02*
D03*
X185484D02*
D03*
X201232D02*
D03*
X209106D02*
D03*
D19*
X201842Y86441D02*
D03*
X249342D02*
D03*
D20*
X215500Y114000D02*
D03*
X235185D02*
D03*
X215500Y56913D02*
D03*
X225342D02*
D03*
X235185D02*
D03*
D21*
X92118Y153000D02*
D03*
X102079D02*
D03*
X112039D02*
D03*
X122000D02*
D03*
D22*
X112248Y274000D02*
D03*
X104374D02*
D03*
X96500D02*
D03*
X88626D02*
D03*
X80752D02*
D03*
D23*
X211500Y154000D02*
D03*
X263500Y165500D02*
D03*
X212000Y169500D02*
D03*
Y164500D02*
D03*
X220000Y191500D02*
D03*
X259000Y169500D02*
D03*
D24*
X248500Y183500D02*
D03*
M02*
