G04*
G04 #@! TF.GenerationSoftware,Altium Limited,CircuitMaker,2.2.1 (2.2.1.6)*
G04*
G04 Layer_Physical_Order=1*
G04 Layer_Color=25308*
%FSLAX25Y25*%
%MOIN*%
G70*
G04*
G04 #@! TF.SameCoordinates,14122C10-9453-4DBA-84BC-A3BC323669C7*
G04*
G04*
G04 #@! TF.FilePolarity,Positive*
G04*
G01*
G75*
%ADD10C,0.01000*%
%ADD25C,0.00800*%
%ADD26R,0.02756X0.02362*%
%ADD27R,0.09000X0.01500*%
%ADD28C,0.01500*%
%ADD29R,0.07874X0.07874*%
%ADD30C,0.07874*%
%ADD31C,0.20000*%
%ADD32C,0.06000*%
%ADD33C,0.13780*%
%ADD34C,0.07000*%
G04:AMPARAMS|DCode=35|XSize=62.99mil|YSize=94.49mil|CornerRadius=25.2mil|HoleSize=0mil|Usage=FLASHONLY|Rotation=0.000|XOffset=0mil|YOffset=0mil|HoleType=Round|Shape=RoundedRectangle|*
%AMROUNDEDRECTD35*
21,1,0.06299,0.04410,0,0,0.0*
21,1,0.01260,0.09449,0,0,0.0*
1,1,0.05039,0.00630,-0.02205*
1,1,0.05039,-0.00630,-0.02205*
1,1,0.05039,-0.00630,0.02205*
1,1,0.05039,0.00630,0.02205*
%
%ADD35ROUNDEDRECTD35*%
%ADD36C,0.05905*%
%ADD37C,0.03500*%
%ADD38C,0.03000*%
D10*
X259000Y289500D02*
X270000D01*
X259000Y278500D02*
Y289500D01*
Y300500D01*
X248000Y289500D02*
X259000D01*
X220000Y191500D02*
X222750D01*
X220000D02*
Y194250D01*
X248500Y183500D02*
Y186000D01*
X220000Y188750D02*
Y191500D01*
X248500Y183500D02*
X251000D01*
X248500Y181000D02*
Y183500D01*
X246000D02*
X248500D01*
X217250Y191500D02*
X220000D01*
X153100Y185000D02*
Y189937D01*
Y180063D02*
Y185000D01*
X133100Y240063D02*
Y245000D01*
X250000Y168075D02*
Y169825D01*
X217500Y162957D02*
X223000D01*
X249342Y86441D02*
X257232D01*
X249342Y78551D02*
Y86441D01*
Y94331D01*
X241453Y86441D02*
X249342D01*
X259500Y20000D02*
X270500D01*
X259500D02*
Y31000D01*
Y9000D02*
Y20000D01*
X248500D02*
X259500D01*
X235185Y114000D02*
X239685D01*
X235185D02*
Y118500D01*
X230685Y114000D02*
X235185D01*
Y109500D02*
Y114000D01*
X225342Y52413D02*
Y56913D01*
Y61413D01*
Y56913D02*
X229842D01*
X220843D02*
X225342D01*
X193622Y160500D02*
X196000D01*
X198378D01*
X196000D02*
Y162681D01*
X211500Y154000D02*
Y156750D01*
Y154000D02*
X214250D01*
X211500Y151250D02*
Y154000D01*
X201842Y86441D02*
X209732D01*
X201842D02*
Y94331D01*
Y78551D02*
Y86441D01*
X193953D02*
X201842D01*
X112248Y274000D02*
X116201D01*
X112248D02*
Y277953D01*
X104374Y274000D02*
Y277953D01*
X112248Y270047D02*
Y274000D01*
X104374Y270047D02*
Y274000D01*
X96500D02*
Y277953D01*
Y270047D02*
Y274000D01*
X88626Y270047D02*
Y274000D01*
Y277953D01*
X133100Y245000D02*
Y249937D01*
X20500Y289500D02*
X31500D01*
X20500D02*
Y300500D01*
Y278500D02*
Y289500D01*
X9500D02*
X20500D01*
X92118Y153000D02*
Y158724D01*
Y147276D02*
Y153000D01*
X96268D01*
X87968D02*
X92118D01*
X21000Y20000D02*
X32000D01*
X10000D02*
X21000D01*
Y31000D01*
Y9000D02*
Y20000D01*
D25*
X270400Y289500D02*
G03*
X270400Y289500I-11400J0D01*
G01*
X218150Y276500D02*
G03*
X217520Y278020I-2150J0D01*
G01*
X214520Y281020D02*
G03*
X213000Y281650I-1520J-1520D01*
G01*
X214520Y281020D02*
G03*
X213000Y281650I-1520J-1520D01*
G01*
X218150Y276500D02*
G03*
X217520Y278020I-2150J0D01*
G01*
X213506Y273362D02*
G03*
X210966Y277350I-4400J0D01*
G01*
X203000Y281650D02*
G03*
X201480Y281020I0J-2150D01*
G01*
X203000Y281650D02*
G03*
X201480Y281020I0J-2150D01*
G01*
X207247Y277350D02*
G03*
X205169Y275327I1859J-3988D01*
G01*
D02*
G03*
X203607Y277066I-3937J-1965D01*
G01*
X211256Y269523D02*
G03*
X213506Y273362I-2150J3839D01*
G01*
X205169Y271397D02*
G03*
X206956Y269523I3937J1965D01*
G01*
X197295Y271397D02*
G03*
X205169Y271397I3937J1965D01*
G01*
X250150Y205320D02*
G03*
X249520Y206840I-2150J0D01*
G01*
X250150Y205320D02*
G03*
X249520Y206840I-2150J0D01*
G01*
X272150Y173000D02*
G03*
X271520Y174520I-2150J0D01*
G01*
X272150Y173000D02*
G03*
X271520Y174520I-2150J0D01*
G01*
X251400Y183500D02*
G03*
X251400Y183500I-2900J0D01*
G01*
X223150Y191500D02*
G03*
X223150Y191500I-3150J0D01*
G01*
X199712Y279253D02*
G03*
X199082Y277732I1520J-1520D01*
G01*
X199712Y279253D02*
G03*
X199082Y277732I1520J-1520D01*
G01*
Y277201D02*
G03*
X197295Y275327I2150J-3839D01*
G01*
X197295D02*
G03*
X189421Y275327I-3937J-1965D01*
G01*
D02*
G03*
X181547Y275327I-3937J-1965D01*
G01*
X181547D02*
G03*
X173673Y275327I-3937J-1965D01*
G01*
D02*
G03*
X165799Y275327I-3937J-1965D01*
G01*
X189421Y271397D02*
G03*
X191208Y269523I3937J1965D01*
G01*
X195508D02*
G03*
X197295Y271397I-2150J3839D01*
G01*
X187634Y269523D02*
G03*
X189421Y271397I-2150J3839D01*
G01*
X181547Y271397D02*
G03*
X183334Y269523I3937J1965D01*
G01*
X179760D02*
G03*
X181547Y271397I-2150J3839D01*
G01*
X173673Y271397D02*
G03*
X175460Y269523I3937J1965D01*
G01*
X171886D02*
G03*
X173673Y271397I-2150J3839D01*
G01*
X165799Y275327D02*
G03*
X157925Y275327I-3937J-1965D01*
G01*
X148264Y277886D02*
G03*
X147634Y279406I-2150J0D01*
G01*
X150051Y275327D02*
G03*
X148264Y277201I-3937J-1965D01*
G01*
Y277886D02*
G03*
X147634Y279406I-2150J0D01*
G01*
X145520Y281520D02*
G03*
X144000Y282150I-1520J-1520D01*
G01*
X145520Y281520D02*
G03*
X144000Y282150I-1520J-1520D01*
G01*
X165799Y271397D02*
G03*
X167586Y269523I3937J1965D01*
G01*
X164012D02*
G03*
X165799Y271397I-2150J3839D01*
G01*
X157925Y271397D02*
G03*
X159712Y269523I3937J1965D01*
G01*
X157925Y275327D02*
G03*
X150051Y275327I-3937J-1965D01*
G01*
X156138Y269523D02*
G03*
X157925Y271397I-2150J3839D01*
G01*
X150051Y271397D02*
G03*
X151838Y269523I3937J1965D01*
G01*
X142177Y271397D02*
G03*
X150051Y271397I3937J1965D01*
G01*
X143834Y277125D02*
G03*
X142177Y275327I2280J-3763D01*
G01*
X140390Y269523D02*
G03*
X142177Y271397I-2150J3839D01*
G01*
Y275327D02*
G03*
X136090Y269523I-3937J-1965D01*
G01*
X167586Y265906D02*
G03*
X168216Y264386I2150J0D01*
G01*
X167586Y265906D02*
G03*
X168216Y264386I2150J0D01*
G01*
X159712Y263638D02*
G03*
X160342Y262118I2150J0D01*
G01*
X159712Y263638D02*
G03*
X160342Y262118I2150J0D01*
G01*
X168437Y245000D02*
G03*
X158100Y246866I-5337J0D01*
G01*
Y243133D02*
G03*
X168437Y245000I5000J1867D01*
G01*
Y185000D02*
G03*
X158100Y186866I-5337J0D01*
G01*
Y183133D02*
G03*
X168437Y185000I5000J1867D01*
G01*
X151838Y261012D02*
G03*
X152468Y259491I2150J0D01*
G01*
X151838Y261012D02*
G03*
X152468Y259491I2150J0D01*
G01*
X158100Y246866D02*
G03*
X148100Y246866I-5000J-1867D01*
G01*
X136090Y260760D02*
G03*
X136720Y259240I2150J0D01*
G01*
X136090Y260760D02*
G03*
X136720Y259240I2150J0D01*
G01*
X148100Y246866D02*
G03*
X138100Y246866I-5000J-1867D01*
G01*
X148100Y243133D02*
G03*
X158100Y243133I5000J1867D01*
G01*
Y186866D02*
G03*
X148100Y186866I-5000J-1867D01*
G01*
D02*
G03*
X138100Y186866I-5000J-1867D01*
G01*
X148100Y183133D02*
G03*
X158100Y183133I5000J1867D01*
G01*
X138100Y243133D02*
G03*
X148100Y243133I5000J1867D01*
G01*
X138100Y183133D02*
G03*
X148100Y183133I5000J1867D01*
G01*
X135250Y180115D02*
G03*
X138100Y183133I-2150J4885D01*
G01*
X265350Y168050D02*
G03*
X261866Y168193I-1850J-2550D01*
G01*
X271520Y160480D02*
G03*
X272150Y162000I-1520J1520D01*
G01*
X271520Y160480D02*
G03*
X272150Y162000I-1520J1520D01*
G01*
X265897Y155747D02*
G03*
X267418Y156377I0J2150D01*
G01*
X265897Y155747D02*
G03*
X267418Y156377I0J2150D01*
G01*
X261866Y168193D02*
G03*
X262150Y169500I-2866J1307D01*
G01*
D02*
G03*
X255900Y170059I-3150J0D01*
G01*
Y168941D02*
G03*
X256000Y168540I3100J559D01*
G01*
X260634Y166807D02*
G03*
X260352Y165392I2866J-1307D01*
G01*
X260082Y166542D02*
G03*
X260634Y166807I-1082J2958D01*
G01*
X255900Y170059D02*
G03*
X255900Y168941I3100J-559D01*
G01*
X223095Y171020D02*
G03*
X221574Y171650I-1520J-1520D01*
G01*
X223095Y171020D02*
G03*
X221574Y171650I-1520J-1520D01*
G01*
X232495Y140964D02*
G03*
X234015Y140334I1520J1520D01*
G01*
X232495Y140964D02*
G03*
X234015Y140334I1520J1520D01*
G01*
X257632Y86441D02*
G03*
X257632Y86441I-8290J0D01*
G01*
X251520Y131980D02*
G03*
X252150Y133500I-1520J1520D01*
G01*
X251520Y131980D02*
G03*
X252150Y133500I-1520J1520D01*
G01*
X245500Y126850D02*
G03*
X247020Y127480I0J2150D01*
G01*
X245500Y126850D02*
G03*
X247020Y127480I0J2150D01*
G01*
X270900Y20000D02*
G03*
X270900Y20000I-11400J0D01*
G01*
X240085Y114000D02*
G03*
X240085Y114000I-4900J0D01*
G01*
X220400D02*
G03*
X220400Y114000I-4900J0D01*
G01*
X240085Y56913D02*
G03*
X240085Y56913I-4900J0D01*
G01*
X230242D02*
G03*
X230242Y56913I-4900J0D01*
G01*
X220400D02*
G03*
X220400Y56913I-4900J0D01*
G01*
X214302Y171650D02*
G03*
X209150Y170842I-2302J-2150D01*
G01*
X210084Y167000D02*
G03*
X209150Y165842I1916J-2500D01*
G01*
Y168158D02*
G03*
X210084Y167000I2850J1342D01*
G01*
X209150Y163158D02*
G03*
X214915Y163306I2850J1342D01*
G01*
X214650Y154000D02*
G03*
X209150Y156098I-3150J0D01*
G01*
X141417Y155043D02*
G03*
X142937Y154413I1520J1520D01*
G01*
X141417Y155043D02*
G03*
X142937Y154413I1520J1520D01*
G01*
X209150Y151902D02*
G03*
X214650Y154000I2350J2098D01*
G01*
X204850Y148500D02*
G03*
X204876Y148164I2150J0D01*
G01*
X204850Y148500D02*
G03*
X204876Y148164I2150J0D01*
G01*
X200554Y138405D02*
G03*
X202075Y137776I1520J1520D01*
G01*
X200554Y138405D02*
G03*
X202075Y137776I1520J1520D01*
G01*
X199350Y148500D02*
G03*
X199980Y146980I2150J0D01*
G01*
X199350Y148500D02*
G03*
X199980Y146980I2150J0D01*
G01*
X210132Y86441D02*
G03*
X210132Y86441I-8290J0D01*
G01*
X193850Y146000D02*
G03*
X194480Y144480I2150J0D01*
G01*
X193850Y146000D02*
G03*
X194480Y144480I2150J0D01*
G01*
X128500Y282150D02*
G03*
X126980Y281520I0J-2150D01*
G01*
X128500Y282150D02*
G03*
X126980Y281520I0J-2150D01*
G01*
X124480Y279020D02*
G03*
X123850Y277500I1520J-1520D01*
G01*
X124480Y279020D02*
G03*
X123850Y277500I1520J-1520D01*
G01*
X108311Y275856D02*
G03*
X100437Y275856I-3937J-1856D01*
G01*
X116601Y274000D02*
G03*
X108311Y275856I-4353J0D01*
G01*
X123850Y257000D02*
G03*
X124480Y255480I2150J0D01*
G01*
X123850Y257000D02*
G03*
X124480Y255480I2150J0D01*
G01*
X108311Y272144D02*
G03*
X116601Y274000I3937J1856D01*
G01*
X100437Y272144D02*
G03*
X108311Y272144I3937J1856D01*
G01*
X84689Y275856D02*
G03*
X76967Y276150I-3937J-1856D01*
G01*
X100437Y275856D02*
G03*
X92563Y275856I-3937J-1856D01*
G01*
D02*
G03*
X84689Y275856I-3937J-1856D01*
G01*
X92563Y272144D02*
G03*
X100437Y272144I3937J1856D01*
G01*
X84689Y272144D02*
G03*
X92563Y272144I3937J1856D01*
G01*
X76967Y271850D02*
G03*
X84689Y272144I3785J2150D01*
G01*
X128980Y250980D02*
G03*
X130500Y250350I1520J1520D01*
G01*
X128980Y250980D02*
G03*
X130500Y250350I1520J1520D01*
G01*
X138100Y246866D02*
G03*
X128100Y246866I-5000J-1867D01*
G01*
Y243133D02*
G03*
X138100Y243133I5000J1867D01*
G01*
X128100Y246866D02*
G03*
X118100Y246866I-5000J-1867D01*
G01*
Y243133D02*
G03*
X128100Y243133I5000J1867D01*
G01*
X108100D02*
G03*
X118100Y243133I5000J1867D01*
G01*
Y246866D02*
G03*
X108100Y246866I-5000J-1867D01*
G01*
D02*
G03*
X98100Y246866I-5000J-1867D01*
G01*
Y243133D02*
G03*
X108100Y243133I5000J1867D01*
G01*
X138100Y186866D02*
G03*
X128100Y186866I-5000J-1867D01*
G01*
D02*
G03*
X118100Y186866I-5000J-1867D01*
G01*
X128100Y183133D02*
G03*
X130350Y180426I5000J1867D01*
G01*
X118100Y186866D02*
G03*
X108100Y186866I-5000J-1867D01*
G01*
D02*
G03*
X98100Y186866I-5000J-1867D01*
G01*
Y183133D02*
G03*
X99780Y180821I5000J1867D01*
G01*
X98100Y246866D02*
G03*
X88100Y246866I-5000J-1867D01*
G01*
D02*
G03*
X78100Y246866I-5000J-1867D01*
G01*
D02*
G03*
X68100Y246866I-5000J-1867D01*
G01*
X88100Y243133D02*
G03*
X98100Y243133I5000J1867D01*
G01*
X78100D02*
G03*
X88100Y243133I5000J1867D01*
G01*
X68100D02*
G03*
X78100Y243133I5000J1867D01*
G01*
X98100Y186866D02*
G03*
X88100Y186866I-5000J-1867D01*
G01*
X95250Y180115D02*
G03*
X98100Y183133I-2150J4885D01*
G01*
X88100Y186866D02*
G03*
X78100Y186866I-5000J-1867D01*
G01*
X88100Y183133D02*
G03*
X90950Y180115I5000J1867D01*
G01*
X78100Y186866D02*
G03*
X68100Y186866I-5000J-1867D01*
G01*
Y246866D02*
G03*
X58100Y246866I-5000J-1867D01*
G01*
D02*
G03*
X48100Y246866I-5000J-1867D01*
G01*
D02*
G03*
X38100Y246866I-5000J-1867D01*
G01*
D02*
G03*
X28100Y246866I-5000J-1867D01*
G01*
X31900Y289500D02*
G03*
X31900Y289500I-11400J0D01*
G01*
X24000Y276150D02*
G03*
X22480Y275520I0J-2150D01*
G01*
X24000Y276150D02*
G03*
X22480Y275520I0J-2150D01*
G01*
X28100Y246866D02*
G03*
X28100Y243133I-5000J-1867D01*
G01*
X10480Y263520D02*
G03*
X9850Y262000I1520J-1520D01*
G01*
X10480Y263520D02*
G03*
X9850Y262000I1520J-1520D01*
G01*
X58100Y243133D02*
G03*
X68100Y243133I5000J1867D01*
G01*
X48100D02*
G03*
X58100Y243133I5000J1867D01*
G01*
X65250Y190400D02*
G03*
X64620Y191920I-2150J0D01*
G01*
X65250Y190400D02*
G03*
X64620Y191920I-2150J0D01*
G01*
X58520Y198020D02*
G03*
X57000Y198650I-1520J-1520D01*
G01*
X58520Y198020D02*
G03*
X57000Y198650I-1520J-1520D01*
G01*
X38100Y243133D02*
G03*
X48100Y243133I5000J1867D01*
G01*
X58100Y186866D02*
G03*
X48100Y186866I-5000J-1867D01*
G01*
X68100D02*
G03*
X65250Y189885I-5000J-1867D01*
G01*
X60695Y189764D02*
G03*
X58100Y186866I2405J-4764D01*
G01*
X55250Y180115D02*
G03*
X58100Y183133I-2150J4885D01*
G01*
X48100D02*
G03*
X50950Y180115I5000J1867D01*
G01*
X48100Y186866D02*
G03*
X38100Y186866I-5000J-1867D01*
G01*
X28100Y243133D02*
G03*
X38100Y243133I5000J1867D01*
G01*
X9850Y205000D02*
G03*
X10480Y203480I2150J0D01*
G01*
X9850Y205000D02*
G03*
X10480Y203480I2150J0D01*
G01*
X38100Y186866D02*
G03*
X28437Y187596I-5000J-1867D01*
G01*
X18980Y194980D02*
G03*
X20500Y194350I1520J1520D01*
G01*
X18980Y194980D02*
G03*
X20500Y194350I1520J1520D01*
G01*
X118100Y183133D02*
G03*
X128100Y183133I5000J1867D01*
G01*
X130950Y166400D02*
G03*
X131580Y164880I2150J0D01*
G01*
X130950Y166400D02*
G03*
X131580Y164880I2150J0D01*
G01*
X129000Y169350D02*
G03*
X130520Y169980I0J2150D01*
G01*
X129000Y169350D02*
G03*
X130520Y169980I0J2150D01*
G01*
X126550Y155205D02*
G03*
X122630Y159124I-3920J0D01*
G01*
X121370D02*
G03*
X117450Y155205I0J-3920D01*
G01*
X124650Y147436D02*
G03*
X126550Y150795I-2020J3359D01*
G01*
X117450D02*
G03*
X120350Y147011I3920J0D01*
G01*
X116589Y155205D02*
G03*
X112669Y159124I-3920J0D01*
G01*
X114189Y147182D02*
G03*
X116589Y150795I-1520J3613D01*
G01*
X108100Y183133D02*
G03*
X118100Y183133I5000J1867D01*
G01*
X104942Y179991D02*
G03*
X108100Y183133I-1842J5009D01*
G01*
X107500Y173650D02*
G03*
X105980Y173020I0J-2150D01*
G01*
X107500Y173650D02*
G03*
X105980Y173020I0J-2150D01*
G01*
X104620Y179580D02*
G03*
X104942Y179991I-1520J1520D01*
G01*
X104620Y179580D02*
G03*
X104942Y179991I-1520J1520D01*
G01*
X100558Y167599D02*
G03*
X99929Y166079I1520J-1520D01*
G01*
X100558Y167599D02*
G03*
X99929Y166079I1520J-1520D01*
G01*
X111409Y159124D02*
G03*
X107490Y155205I0J-3920D01*
G01*
X106628D02*
G03*
X104229Y158818I-3920J0D01*
G01*
X107490Y150795D02*
G03*
X109889Y147182I3920J0D01*
G01*
X102709Y146876D02*
G03*
X106628Y150795I0J3920D01*
G01*
X99929Y158818D02*
G03*
X97529Y155205I1520J-3613D01*
G01*
Y150795D02*
G03*
X101449Y146876I3920J0D01*
G01*
X124020Y141980D02*
G03*
X124650Y143500I-1520J1520D01*
G01*
X124020Y141980D02*
G03*
X124650Y143500I-1520J1520D01*
G01*
X116500Y135350D02*
G03*
X118020Y135980I0J2150D01*
G01*
X113560Y144019D02*
G03*
X114189Y145539I-1520J1520D01*
G01*
X113560Y144019D02*
G03*
X114189Y145539I-1520J1520D01*
G01*
X109000Y140350D02*
G03*
X110520Y140980I0J2150D01*
G01*
X109000Y140350D02*
G03*
X110520Y140980I0J2150D01*
G01*
X116500Y135350D02*
G03*
X118020Y135980I0J2150D01*
G01*
X94620Y176080D02*
G03*
X95250Y177600I-1520J1520D01*
G01*
X94620Y176080D02*
G03*
X95250Y177600I-1520J1520D01*
G01*
X78100Y183133D02*
G03*
X88100Y183133I5000J1867D01*
G01*
X68100D02*
G03*
X78100Y183133I5000J1867D01*
G01*
X77980Y165520D02*
G03*
X77350Y164000I1520J-1520D01*
G01*
X77980Y165520D02*
G03*
X77350Y164000I1520J-1520D01*
G01*
X82980Y164020D02*
G03*
X82350Y162500I1520J-1520D01*
G01*
X82980Y164020D02*
G03*
X82350Y162500I1520J-1520D01*
G01*
X96668Y155205D02*
G03*
X92748Y159124I-3920J0D01*
G01*
X91488D02*
G03*
X87568Y155205I0J-3920D01*
G01*
X58100Y183133D02*
G03*
X68100Y183133I5000J1867D01*
G01*
X38100D02*
G03*
X48100Y183133I5000J1867D01*
G01*
X28437Y182404D02*
G03*
X38100Y183133I4663J2596D01*
G01*
X92748Y146876D02*
G03*
X96668Y150795I0J3920D01*
G01*
X87568D02*
G03*
X91488Y146876I3920J0D01*
G01*
X82350Y148000D02*
G03*
X82980Y146480I2150J0D01*
G01*
X82350Y148000D02*
G03*
X82980Y146480I2150J0D01*
G01*
X77350Y146500D02*
G03*
X77980Y144980I2150J0D01*
G01*
X77350Y146500D02*
G03*
X77980Y144980I2150J0D01*
G01*
X88480Y140980D02*
G03*
X90000Y140350I1520J1520D01*
G01*
X88480Y140980D02*
G03*
X90000Y140350I1520J1520D01*
G01*
X86980Y135980D02*
G03*
X88500Y135350I1520J1520D01*
G01*
X86980Y135980D02*
G03*
X88500Y135350I1520J1520D01*
G01*
X59480Y127480D02*
G03*
X61000Y126850I1520J1520D01*
G01*
X59480Y127480D02*
G03*
X61000Y126850I1520J1520D01*
G01*
X50950Y136900D02*
G03*
X51580Y135380I2150J0D01*
G01*
X50950Y136900D02*
G03*
X51580Y135380I2150J0D01*
G01*
X32400Y20000D02*
G03*
X32400Y20000I-11400J0D01*
G01*
X270123Y292000D02*
X277500D01*
X270389Y290000D02*
X277500D01*
X269474Y294000D02*
X277500D01*
X269849Y286000D02*
X277500D01*
X270301Y288000D02*
X277500D01*
X266597Y298000D02*
X277500D01*
X263440Y300000D02*
X277500D01*
X268986Y284000D02*
X277500D01*
X268365Y296000D02*
X277500D01*
X265302Y280000D02*
X277500D01*
X267585Y282000D02*
X277500D01*
X218150Y272000D02*
X277500D01*
X218150Y274000D02*
X277500D01*
X218150Y268000D02*
X277500D01*
X218150Y270000D02*
X277500D01*
X218150Y264000D02*
X277500D01*
X218150Y266000D02*
X277500D01*
X264000Y299745D02*
Y309500D01*
X266000Y298498D02*
Y309500D01*
X262000Y300498D02*
Y309500D01*
X270000Y292493D02*
Y309500D01*
X268000Y296497D02*
Y309500D01*
X260000Y300856D02*
Y309500D01*
X252000Y298498D02*
Y309500D01*
X250000Y296497D02*
Y309500D01*
X248000Y292493D02*
Y309500D01*
X258000Y300856D02*
Y309500D01*
X256000Y300498D02*
Y309500D01*
X254000Y299745D02*
Y309500D01*
X268000Y178041D02*
Y282503D01*
X266000Y180041D02*
Y280502D01*
X264000Y182041D02*
Y279255D01*
X272000Y173789D02*
Y309500D01*
X270000Y176041D02*
Y286507D01*
X254000Y192041D02*
Y279255D01*
X252000Y194041D02*
Y280502D01*
X262000Y184041D02*
Y278502D01*
X256000Y190041D02*
Y278502D01*
X218150Y260000D02*
X277500D01*
X218150Y262000D02*
X277500D01*
X260000Y186041D02*
Y278144D01*
X258000Y188041D02*
Y278144D01*
X218150Y254000D02*
X277500D01*
X218150Y256000D02*
X277500D01*
X218150Y250000D02*
X277500D01*
X218150Y252000D02*
X277500D01*
X240000Y216360D02*
Y309500D01*
X242000Y214360D02*
Y309500D01*
X238000Y218360D02*
Y309500D01*
X246000Y210360D02*
Y309500D01*
X244000Y212360D02*
Y309500D01*
X232000Y224360D02*
Y309500D01*
X224000Y232360D02*
Y309500D01*
X236000Y220360D02*
Y309500D01*
X234000Y222360D02*
Y309500D01*
X230000Y226360D02*
Y309500D01*
X228000Y228360D02*
Y309500D01*
X250000Y206109D02*
Y282503D01*
X248000Y208360D02*
Y286507D01*
X220000Y236360D02*
Y309500D01*
X218150Y238210D02*
Y276500D01*
X226000Y230360D02*
Y309500D01*
X222000Y234360D02*
Y309500D01*
X214520Y281020D02*
X217520Y278020D01*
X215541Y280000D02*
X252698D01*
X216000Y279541D02*
Y309500D01*
X218000Y277289D02*
Y309500D01*
X144789Y282000D02*
X250415D01*
X214000Y281403D02*
Y309500D01*
X217540Y278000D02*
X277500D01*
X218150Y276000D02*
X277500D01*
X213460Y274000D02*
X213850D01*
X212109Y277350D02*
X213850Y275609D01*
X212628Y276000D02*
X213459D01*
X213290Y272000D02*
X213850D01*
X206000Y281650D02*
Y309500D01*
X208000Y281650D02*
Y309500D01*
X204000Y281650D02*
Y309500D01*
X212000Y281650D02*
Y309500D01*
X210000Y281650D02*
Y309500D01*
X203000Y281650D02*
X213000D01*
X203607Y277066D02*
X203891Y277350D01*
X210966D02*
X212109D01*
X212000Y276677D02*
Y277350D01*
X206000Y276478D02*
Y277350D01*
X203891D02*
X207247D01*
X204000Y276783D02*
Y277350D01*
X204754Y276000D02*
X205585D01*
X211945Y270000D02*
X213850D01*
X211256Y241568D02*
Y269523D01*
X213850Y238975D02*
Y275609D01*
X212000Y240825D02*
Y270048D01*
X211256Y266000D02*
X213850D01*
X211256Y268000D02*
X213850D01*
X211256Y262000D02*
X213850D01*
X211256Y264000D02*
X213850D01*
X218150Y258000D02*
X277500D01*
X211256Y260000D02*
X213850D01*
X211256Y256000D02*
X213850D01*
X211256Y258000D02*
X213850D01*
X211256Y254000D02*
X213850D01*
X195508Y262000D02*
X206956D01*
X211256Y250000D02*
X213850D01*
X211256Y252000D02*
X213850D01*
X204070Y270000D02*
X206268D01*
X206956Y242333D02*
Y269523D01*
X206000Y243289D02*
Y270246D01*
X195508Y268000D02*
X206956D01*
X195508Y266000D02*
X206956D01*
X204000Y245289D02*
Y269942D01*
X197289Y252000D02*
X206956D01*
X195508Y254000D02*
X206956D01*
X195508Y253781D02*
X206956Y242333D01*
X199289Y250000D02*
X206956D01*
X195508Y260000D02*
X206956D01*
X195508Y264000D02*
X206956D01*
X195508Y256000D02*
X206956D01*
X195508Y258000D02*
X206956D01*
X240360Y216000D02*
X277500D01*
X242360Y214000D02*
X277500D01*
X238360Y218000D02*
X277500D01*
X246360Y210000D02*
X277500D01*
X244360Y212000D02*
X277500D01*
X224360Y232000D02*
X277500D01*
X220360Y236000D02*
X277500D01*
X236360Y220000D02*
X277500D01*
X226360Y230000D02*
X277500D01*
X250150Y198000D02*
X277500D01*
X250150Y200000D02*
X277500D01*
X256041Y190000D02*
X277500D01*
X254041Y192000D02*
X277500D01*
X250040Y206000D02*
X277500D01*
X248360Y208000D02*
X277500D01*
X250150Y202000D02*
X277500D01*
X250150Y204000D02*
X277500D01*
X232360Y224000D02*
X277500D01*
X234360Y222000D02*
X277500D01*
X250150Y195891D02*
Y205320D01*
X228360Y228000D02*
X277500D01*
X222360Y234000D02*
X277500D01*
X230360Y226000D02*
X277500D01*
X220000Y194650D02*
Y205531D01*
X252041Y194000D02*
X277500D01*
X250150Y196000D02*
X277500D01*
X245150Y190000D02*
X246424D01*
X223110Y192000D02*
X228350D01*
X221916Y194000D02*
X228350D01*
X222000Y193934D02*
Y203531D01*
X260041Y186000D02*
X277500D01*
X262041Y184000D02*
X277500D01*
X258041Y188000D02*
X277500D01*
X266041Y180000D02*
X277500D01*
X264041Y182000D02*
X277500D01*
X245150Y180000D02*
X256424D01*
X250982Y182000D02*
X254424D01*
X250150Y195891D02*
X271520Y174520D01*
X258000Y172487D02*
Y178424D01*
X271903Y174000D02*
X277500D01*
X270041Y176000D02*
X277500D01*
X268041Y178000D02*
X277500D01*
X245150D02*
X258424D01*
X245150Y174000D02*
X262424D01*
X245150Y176000D02*
X260424D01*
X250000Y185982D02*
Y186424D01*
X248000Y186357D02*
Y188424D01*
X246000Y184970D02*
Y190424D01*
X222770Y190000D02*
X228350D01*
X245150Y188000D02*
X248424D01*
X251357Y184000D02*
X252424D01*
X249970Y186000D02*
X250424D01*
X245150D02*
X247030D01*
X245150Y184000D02*
X245643D01*
X245150Y182000D02*
X246018D01*
X218150Y246000D02*
X277500D01*
X218150Y244000D02*
X277500D01*
X218150Y248000D02*
X277500D01*
X218150Y240000D02*
X277500D01*
X218150Y242000D02*
X277500D01*
X211256Y246000D02*
X213850D01*
X211256Y248000D02*
X213850D01*
X211256Y242000D02*
X213850D01*
X211256Y244000D02*
X213850D01*
X218360Y238000D02*
X277500D01*
X212825Y240000D02*
X213850D01*
X218150Y238210D02*
X249520Y206840D01*
X209150Y210000D02*
X215530D01*
X209150Y206000D02*
X219531D01*
X209150Y208000D02*
X217530D01*
X209150Y202000D02*
X223531D01*
X209150Y204000D02*
X221531D01*
X205289Y244000D02*
X206956D01*
X211256Y241568D02*
X213850Y238975D01*
X203650Y218345D02*
X204850Y217145D01*
X209150Y216000D02*
X209530D01*
X203650Y214000D02*
X204850D01*
X203289Y246000D02*
X206956D01*
X201289Y248000D02*
X206956D01*
X203650Y216000D02*
X204850D01*
X203650Y218000D02*
X203995D01*
X209150Y212000D02*
X213530D01*
X209150Y214000D02*
X211530D01*
X203650Y210000D02*
X204850D01*
X203650Y212000D02*
X204850D01*
X203650Y206000D02*
X204850D01*
X203650Y208000D02*
X204850D01*
X203650Y202000D02*
X204850D01*
X203650Y204000D02*
X204850D01*
X209150Y216381D02*
X228350Y197180D01*
X209150Y200000D02*
X225531D01*
X218000Y193934D02*
Y207530D01*
X209150Y196000D02*
X228350D01*
X209150Y198000D02*
X227531D01*
X209150Y194000D02*
X218084D01*
X209150Y190000D02*
X217230D01*
X209150Y178000D02*
X228350D01*
X209150Y180000D02*
X228350D01*
X209150Y174000D02*
X228350D01*
X209150Y176000D02*
X228350D01*
X209150Y186000D02*
X228350D01*
X209150Y188000D02*
X228350D01*
X209150Y182000D02*
X228350D01*
X209150Y184000D02*
X228350D01*
X203650Y198000D02*
X204850D01*
X203650Y200000D02*
X204850D01*
X209150Y192000D02*
X216890D01*
X212000Y172650D02*
Y213530D01*
X203650Y194000D02*
X204850D01*
X203650Y196000D02*
X204850D01*
X203650Y190000D02*
X204850D01*
X203650Y192000D02*
X204850D01*
X203650Y178000D02*
X204850D01*
X203650Y180000D02*
X204850D01*
X203650Y174000D02*
X204850D01*
X203650Y176000D02*
X204850D01*
X203650Y186000D02*
X204850D01*
X203650Y188000D02*
X204850D01*
X203650Y182000D02*
X204850D01*
X203650Y184000D02*
X204850D01*
X202000Y281403D02*
Y309500D01*
X199712Y279253D02*
X201480Y281020D01*
X200000Y279541D02*
Y309500D01*
X198000Y276348D02*
Y309500D01*
X194000Y277715D02*
Y309500D01*
X192000Y277547D02*
Y309500D01*
X196000Y276881D02*
Y309500D01*
X190000Y276205D02*
Y309500D01*
X199082Y277201D02*
Y277732D01*
X196880Y276000D02*
X197711D01*
X189006D02*
X189837D01*
X196196Y270000D02*
X198394D01*
X184000Y277504D02*
Y309500D01*
X186000Y277732D02*
Y309500D01*
X180000Y277057D02*
Y309500D01*
X188000Y276972D02*
Y309500D01*
X182000Y276049D02*
Y309500D01*
X178000Y277745D02*
Y309500D01*
X170000Y277754D02*
Y309500D01*
X176000Y277457D02*
Y309500D01*
X172000Y277135D02*
Y309500D01*
X181132Y276000D02*
X181963D01*
X173258D02*
X174089D01*
X174000Y275877D02*
Y309500D01*
X168000Y277405D02*
Y309500D01*
X166000Y275686D02*
Y309500D01*
X172574Y270000D02*
X174772D01*
X190000Y255754D02*
Y270519D01*
X198000Y251289D02*
Y270377D01*
X196000Y253289D02*
Y269844D01*
X188322Y270000D02*
X190520D01*
X188000Y257754D02*
Y269752D01*
X195508Y253781D02*
Y269523D01*
X191208Y254545D02*
Y269523D01*
X202000Y247289D02*
Y269030D01*
X200000Y249289D02*
Y269138D01*
X187634Y268000D02*
X191208D01*
X179760D02*
X183334D01*
X187634Y258120D02*
Y269523D01*
X179760Y266000D02*
X183334D01*
X180448Y270000D02*
X182646D01*
X182000Y260218D02*
Y270675D01*
X180000Y262218D02*
Y269668D01*
X174000Y264683D02*
Y270847D01*
X166000Y262541D02*
Y271038D01*
X175460Y263222D02*
Y269523D01*
X172000Y266683D02*
Y269589D01*
X183334Y258884D02*
Y269523D01*
X179760Y262458D02*
Y269523D01*
X171886Y268000D02*
X175460D01*
X171886Y266796D02*
Y269523D01*
Y266796D02*
X175460Y263222D01*
X167586Y265906D02*
Y269523D01*
X160000Y277349D02*
Y309500D01*
X162000Y277760D02*
Y309500D01*
X156000Y277275D02*
Y309500D01*
X164000Y277208D02*
Y309500D01*
X158000Y275470D02*
Y309500D01*
X147041Y280000D02*
X200459D01*
X154000Y277762D02*
Y309500D01*
X152000Y277287D02*
Y309500D01*
X150000Y275426D02*
Y309500D01*
X165384Y276000D02*
X166215D01*
X157510D02*
X158341D01*
X149636D02*
X150467D01*
X148261Y278000D02*
X199099D01*
X144000Y282150D02*
Y309500D01*
X142000Y282150D02*
Y309500D01*
X148000Y278918D02*
Y309500D01*
X146000Y281041D02*
Y309500D01*
X136000Y282150D02*
Y309500D01*
X134000Y282150D02*
Y309500D01*
X140000Y282150D02*
Y309500D01*
X138000Y282150D02*
Y309500D01*
X145520Y281520D02*
X147634Y279406D01*
X148264Y277201D02*
Y277886D01*
X143109Y277850D02*
X143834Y277125D01*
X140000Y277395D02*
Y277850D01*
X136000Y277149D02*
Y277850D01*
X141762Y276000D02*
X142593D01*
X142000Y275648D02*
Y277850D01*
X164700Y270000D02*
X166898D01*
X158000Y260041D02*
Y271254D01*
X156826Y270000D02*
X159024D01*
X164012Y266000D02*
X167586D01*
X164012Y268000D02*
X167586D01*
X164012Y264528D02*
Y269523D01*
X159712Y263638D02*
Y269523D01*
X156138Y268000D02*
X159712D01*
X140390D02*
X151838D01*
X156138Y261902D02*
Y269523D01*
X151838Y261012D02*
Y269523D01*
X150000Y257150D02*
Y271298D01*
X142000Y260041D02*
Y271077D01*
X134000Y274537D02*
Y277850D01*
Y254650D02*
Y272187D01*
X148952Y270000D02*
X151150D01*
X144000Y258041D02*
Y269503D01*
X148000Y257150D02*
Y269387D01*
X146000Y257150D02*
Y268964D01*
X141078Y270000D02*
X143276D01*
X140390Y261650D02*
Y269523D01*
X136090Y260760D02*
Y269523D01*
X136000Y254650D02*
Y269575D01*
X187634Y266000D02*
X191208D01*
X187634Y264000D02*
X191208D01*
X179760D02*
X183334D01*
X179760Y262458D02*
X183334Y258884D01*
X174683Y264000D02*
X175460D01*
X172683Y266000D02*
X175460D01*
X164541Y264000D02*
X168602D01*
X168216Y264386D02*
X170452Y262150D01*
X170000D02*
Y262602D01*
X187634Y260000D02*
X191208D01*
X187634Y262000D02*
X191208D01*
X189754Y256000D02*
X191208D01*
X187754Y258000D02*
X191208D01*
X180218Y262000D02*
X183334D01*
X166391Y262150D02*
X170452D01*
X187634Y258120D02*
X191208Y254545D01*
X182218Y260000D02*
X183334D01*
X168000Y262150D02*
Y264638D01*
X164012Y264528D02*
X166391Y262150D01*
X160000Y259650D02*
Y262563D01*
X156138Y264000D02*
X159712D01*
X156138Y266000D02*
X159712D01*
X160342Y262118D02*
X162809Y259650D01*
X158391D02*
X162809D01*
X164966Y250000D02*
X168459D01*
X162000Y259650D02*
Y260459D01*
X158041Y260000D02*
X162459D01*
X156138Y262000D02*
X160459D01*
X154966Y250000D02*
X161233D01*
X156138Y261902D02*
X158391Y259650D01*
X168342Y246000D02*
X172459D01*
X168342Y244000D02*
X174459D01*
X167514Y248000D02*
X170459D01*
X168109Y250350D02*
X199350Y219109D01*
X168000Y187115D02*
Y242885D01*
X167514Y242000D02*
X176459D01*
X164966Y240000D02*
X178459D01*
X168342Y186000D02*
X199350D01*
X167514Y188000D02*
X199350D01*
X167514Y182000D02*
X199350D01*
X168342Y184000D02*
X199350D01*
X164966Y190000D02*
X199350D01*
X164966Y180000D02*
X199350D01*
X166000Y249480D02*
Y250350D01*
X160000Y249344D02*
Y250350D01*
X168000Y247115D02*
Y250350D01*
X158000Y247115D02*
Y250350D01*
X157514Y248000D02*
X158686D01*
X156000Y249480D02*
Y250350D01*
X157514Y242000D02*
X158686D01*
X158000Y187115D02*
Y242885D01*
X164000Y190261D02*
Y239739D01*
X162000Y190222D02*
Y239778D01*
X166000Y189480D02*
Y240520D01*
X160000Y189344D02*
Y240656D01*
X157514Y188000D02*
X158686D01*
X156000Y189480D02*
Y240520D01*
X154966Y180000D02*
X161233D01*
X157514Y182000D02*
X158686D01*
X144041Y258000D02*
X153959D01*
X152468Y259491D02*
X154809Y257150D01*
X152000D02*
Y260193D01*
X140390Y264000D02*
X151838D01*
X140390Y266000D02*
X151838D01*
X142041Y260000D02*
X152091D01*
X140390Y262000D02*
X151838D01*
X154000Y257150D02*
Y257959D01*
X150000Y249344D02*
Y250350D01*
X154966Y240000D02*
X161233D01*
X144891Y257150D02*
X154809D01*
X144966Y250000D02*
X151233D01*
X144966Y240000D02*
X151233D01*
X147514Y248000D02*
X148686D01*
X140390Y261650D02*
X144891Y257150D01*
X146000Y249480D02*
Y250350D01*
X140000Y254650D02*
Y255959D01*
X148000Y247115D02*
Y250350D01*
X140000Y249344D02*
Y250350D01*
X136720Y259240D02*
X141309Y254650D01*
X138000D02*
Y257959D01*
X137514Y248000D02*
X138686D01*
X138000Y247115D02*
Y250350D01*
X147514Y242000D02*
X148686D01*
X134967Y250000D02*
X141234D01*
X136000Y249480D02*
Y250350D01*
X134967Y240000D02*
X141234D01*
X137514Y242000D02*
X138686D01*
X154000Y190261D02*
Y239739D01*
X154966Y190000D02*
X161233D01*
X152000Y190222D02*
Y239778D01*
X150000Y189344D02*
Y240656D01*
X144966Y190000D02*
X151233D01*
X147514Y182000D02*
X148686D01*
X147514Y188000D02*
X148686D01*
X135250Y178000D02*
X199350D01*
X144966Y180000D02*
X151233D01*
X135250Y174000D02*
X199350D01*
X135250Y176000D02*
X199350D01*
X146000Y189480D02*
Y240520D01*
X142000Y190222D02*
Y239778D01*
X148000Y187115D02*
Y242885D01*
X140000Y189344D02*
Y240656D01*
X138000Y187115D02*
Y242885D01*
X136000Y189480D02*
Y240520D01*
X144000Y190261D02*
Y239739D01*
X137514Y188000D02*
X138686D01*
X137514Y182000D02*
X138686D01*
X134967Y190000D02*
X141234D01*
X134000Y190261D02*
Y239739D01*
X135250Y180000D02*
X141234D01*
X272150Y170000D02*
X277500D01*
X272150Y168000D02*
X277500D01*
X272150Y172000D02*
X277500D01*
X272150Y164000D02*
X277500D01*
X272150Y162000D02*
Y173000D01*
X262110Y170000D02*
X265350D01*
X272150Y166000D02*
X277500D01*
X272150Y162000D02*
X277500D01*
X269041Y158000D02*
X277500D01*
X271041Y160000D02*
X277500D01*
X266908Y156000D02*
X277500D01*
X267418Y156377D02*
X271520Y160480D01*
X264000Y168610D02*
Y172424D01*
X260916Y172000D02*
X264424D01*
X262000Y170460D02*
Y174424D01*
X265350Y168050D02*
Y171074D01*
X260000Y172487D02*
Y176424D01*
X256000Y170460D02*
Y180424D01*
X260066Y165106D02*
X260352Y165392D01*
X260000Y165106D02*
Y166459D01*
X259541Y166000D02*
X260390D01*
X255900Y168441D02*
Y168941D01*
X258647Y165106D02*
X260082Y166542D01*
X258647Y165106D02*
X260066D01*
X274000Y2000D02*
Y309500D01*
X272000Y2000D02*
Y161211D01*
X270000Y24440D02*
Y158959D01*
X277500Y2000D02*
Y309500D01*
X276000Y2000D02*
Y309500D01*
X264000Y30474D02*
Y155747D01*
X262000Y31122D02*
Y155747D01*
X268000Y27597D02*
Y156959D01*
X266000Y29365D02*
Y155750D01*
X255900Y142000D02*
X277500D01*
X255900Y144000D02*
X277500D01*
X255900Y138000D02*
X277500D01*
X255900Y140000D02*
X277500D01*
X255900Y154000D02*
X277500D01*
X255900Y155747D02*
X265897D01*
X255900Y146000D02*
X277500D01*
X255900Y148000D02*
X277500D01*
X256000Y91380D02*
Y155747D01*
X255900Y154870D02*
Y155689D01*
X260000Y31389D02*
Y155747D01*
X258000Y31301D02*
Y155747D01*
X255900Y153129D02*
Y154870D01*
Y153129D02*
Y154870D01*
Y145452D02*
Y147194D01*
Y148012D01*
Y140334D02*
Y142076D01*
Y142894D01*
Y137776D02*
Y140334D01*
Y142076D01*
Y144634D02*
Y145452D01*
Y147194D01*
Y142894D02*
Y144634D01*
Y142894D02*
Y144634D01*
X252000Y170224D02*
Y184424D01*
X254000Y170224D02*
Y182424D01*
X250000Y170224D02*
Y181018D01*
X245150Y191274D02*
X265350Y171074D01*
X245150Y172000D02*
X257084D01*
X245150Y170224D02*
X255900D01*
X248000D02*
Y180643D01*
X255900Y150000D02*
X277500D01*
X255900Y149752D02*
Y150570D01*
Y148012D02*
Y149752D01*
Y148012D02*
Y149752D01*
Y152000D02*
X277500D01*
X255900Y152312D02*
Y153129D01*
Y150570D02*
Y152312D01*
Y150570D02*
Y152312D01*
X228000Y170224D02*
Y197530D01*
X228350Y170224D02*
Y197180D01*
X226000Y170224D02*
Y199530D01*
X246000Y170224D02*
Y182030D01*
X245150Y170224D02*
Y191274D01*
X213916Y172000D02*
X228350D01*
X220000Y171650D02*
Y188350D01*
X224000Y170224D02*
Y201531D01*
X222000Y171607D02*
Y189066D01*
X223891Y170224D02*
X228350D01*
X223095Y171020D02*
X223891Y170224D01*
X228900Y144000D02*
X229459D01*
X228900Y142894D02*
Y144564D01*
X214302Y171650D02*
X221574D01*
X244000Y131150D02*
Y140334D01*
X244100Y137776D02*
Y140334D01*
X242000Y131150D02*
Y140334D01*
X240000Y131150D02*
Y140334D01*
X238000Y131150D02*
Y140334D01*
X234015D02*
X244100D01*
X236000Y131150D02*
Y140334D01*
X252150Y137776D02*
X255900D01*
X247850Y134391D02*
Y137776D01*
X254000Y93299D02*
Y137776D01*
X252150Y133500D02*
Y137776D01*
X228900Y138000D02*
X244100D01*
X228900Y140000D02*
X244100D01*
Y137776D02*
X247850D01*
X246000Y132541D02*
Y137776D01*
X228980Y144480D02*
X232495Y140964D01*
X228900Y142894D02*
Y144564D01*
X232000Y131150D02*
Y141459D01*
X230000Y131150D02*
Y143459D01*
X228900Y142000D02*
X231459D01*
X228900Y142076D02*
Y142894D01*
Y140334D02*
Y142076D01*
Y140334D02*
Y142076D01*
X234000Y131150D02*
Y140335D01*
X228900Y137776D02*
Y140334D01*
X228000Y131150D02*
Y137776D01*
X226000Y131150D02*
Y137776D01*
X223000D02*
X228900D01*
X224000Y131150D02*
Y137776D01*
X222000Y131150D02*
Y137776D01*
X220000Y131150D02*
Y137776D01*
X252150Y134000D02*
X277500D01*
X251540Y132000D02*
X277500D01*
X252150Y136000D02*
X277500D01*
X255492Y92000D02*
X277500D01*
X252746Y94000D02*
X277500D01*
X247541Y128000D02*
X277500D01*
X249541Y130000D02*
X277500D01*
X240085Y114000D02*
X277500D01*
X257621Y86000D02*
X277500D01*
X257484Y88000D02*
X277500D01*
X264974Y30000D02*
X277500D01*
X257265Y84000D02*
X277500D01*
X256829Y90000D02*
X277500D01*
X254561Y80000D02*
X277500D01*
X256342Y82000D02*
X277500D01*
X250000Y94705D02*
Y130459D01*
X252000Y94293D02*
Y132711D01*
X248000Y94621D02*
Y128459D01*
X247020Y127480D02*
X251520Y131980D01*
X244609Y131150D02*
X247850Y134391D01*
X256000Y30849D02*
Y81502D01*
X254000Y29985D02*
Y79583D01*
X246000Y94027D02*
Y126909D01*
X244000Y92779D02*
Y126850D01*
X242000Y90289D02*
Y126850D01*
X270723Y22000D02*
X277500D01*
X270900Y20000D02*
X277500D01*
X270175Y24000D02*
X277500D01*
X270175Y16000D02*
X277500D01*
X270723Y18000D02*
X277500D01*
X269193Y26000D02*
X277500D01*
X267622Y28000D02*
X277500D01*
X267622Y12000D02*
X277500D01*
X269193Y14000D02*
X277500D01*
X270000Y2000D02*
Y15560D01*
X268000Y2000D02*
Y12403D01*
X264974Y10000D02*
X277500D01*
X266000Y2000D02*
Y10635D01*
X264000Y2000D02*
Y9526D01*
X262000Y2000D02*
Y8878D01*
X252000Y28585D02*
Y78589D01*
X250000Y26302D02*
Y78177D01*
X248000Y2000D02*
Y78261D01*
X242000Y2000D02*
Y82593D01*
X240000Y2000D02*
Y56004D01*
X246000Y2000D02*
Y78855D01*
X244000Y2000D02*
Y80102D01*
X260000Y2000D02*
Y8611D01*
X258000Y2000D02*
Y8699D01*
X256000Y2000D02*
Y9151D01*
X250000Y2000D02*
Y13698D01*
X254000Y2000D02*
Y10014D01*
X252000Y2000D02*
Y11415D01*
X238015Y118000D02*
X277500D01*
X239658Y116000D02*
X277500D01*
X240000Y114909D02*
Y126850D01*
X238015Y110000D02*
X277500D01*
X239658Y112000D02*
X277500D01*
X238000Y118011D02*
Y126850D01*
X236000Y61745D02*
Y109168D01*
X209329Y90000D02*
X241856D01*
X209984Y88000D02*
X241201D01*
X209765Y84000D02*
X241420D01*
X210121Y86000D02*
X241065D01*
X205246Y94000D02*
X245939D01*
X207992Y92000D02*
X243193D01*
X207061Y80000D02*
X244124D01*
X208842Y82000D02*
X242343D01*
X234000Y118754D02*
Y126850D01*
X236000Y118832D02*
Y126850D01*
X232000Y117724D02*
Y126850D01*
X226000Y61769D02*
Y126850D01*
X217100Y137776D02*
X223000D01*
X217100D02*
X223000D01*
X220000Y115939D02*
Y126850D01*
X220400Y114000D02*
X230285D01*
X234000Y61668D02*
Y109246D01*
X218330Y118000D02*
X232355D01*
X219973Y116000D02*
X230712D01*
X218330Y110000D02*
X232355D01*
X219973Y112000D02*
X230712D01*
X238000Y60924D02*
Y109989D01*
X238991Y60000D02*
X277500D01*
X232000Y60637D02*
Y110276D01*
X239963Y58000D02*
X277500D01*
X240000Y57822D02*
Y113091D01*
X229148Y60000D02*
X231379D01*
X230000Y58436D02*
Y126850D01*
X239125Y54000D02*
X277500D01*
X239999Y56000D02*
X277500D01*
X238000Y2000D02*
Y52903D01*
X236000Y2000D02*
Y52082D01*
X229282Y54000D02*
X231245D01*
X230000Y2000D02*
Y55391D01*
X234000Y2000D02*
Y52159D01*
X232000Y2000D02*
Y53190D01*
X228000Y61030D02*
Y126850D01*
X224000Y61626D02*
Y126850D01*
X222000Y60496D02*
Y126850D01*
X219306Y60000D02*
X221537D01*
X220000Y58852D02*
Y112061D01*
X228000Y2000D02*
Y52797D01*
X226000Y2000D02*
Y52058D01*
X224000Y2000D02*
Y52201D01*
X219440Y54000D02*
X221403D01*
X222000Y2000D02*
Y53330D01*
X220000Y2000D02*
Y54974D01*
X214000Y171934D02*
Y211530D01*
X218000Y171650D02*
Y189066D01*
X210000Y171934D02*
Y215530D01*
X216000Y171650D02*
Y209530D01*
X209150Y170842D02*
Y216381D01*
Y172000D02*
X210084D01*
X217100Y162548D02*
Y163306D01*
X214915D02*
X217100D01*
Y160807D02*
Y162548D01*
Y160807D02*
Y162548D01*
X213916Y162000D02*
X217100D01*
X209150D02*
X210084D01*
X209150Y160000D02*
X217100D01*
X203650Y170000D02*
X204850D01*
X203650Y166000D02*
X204850D01*
X203650Y172000D02*
X204850D01*
X209150Y165842D02*
Y168158D01*
X203650Y164000D02*
X204850D01*
X203650Y168000D02*
X204850D01*
X198000Y163081D02*
Y220459D01*
X196000Y163081D02*
Y222459D01*
X194000Y163081D02*
Y224459D01*
X203650Y162000D02*
X204850D01*
X198778D02*
X199350D01*
X203650Y160000D02*
X204850D01*
X198778D02*
X199350D01*
X193222Y163081D02*
X198778D01*
X217100Y158247D02*
Y159988D01*
Y158247D02*
Y159988D01*
Y160807D01*
Y157430D02*
Y158247D01*
X216000Y147253D02*
Y163306D01*
X209150Y158000D02*
X217100D01*
X212000Y157110D02*
Y161350D01*
X214000Y155916D02*
Y162066D01*
X210000Y156770D02*
Y162066D01*
X217100Y155689D02*
Y157430D01*
Y155689D02*
Y157430D01*
Y153129D02*
Y154870D01*
Y155689D01*
X213934Y156000D02*
X217100D01*
Y153129D02*
Y154870D01*
X209150Y156098D02*
Y163158D01*
X203650Y149391D02*
Y218345D01*
X204850Y148500D02*
Y217145D01*
X204000Y149041D02*
Y217995D01*
X198778Y159144D02*
Y163081D01*
X193222Y159144D02*
Y163081D01*
X199350Y148500D02*
Y219109D01*
X193222Y158713D02*
Y159144D01*
X203650Y158000D02*
X204850D01*
X198778Y157919D02*
Y159144D01*
X203650Y156000D02*
X204850D01*
X198778Y157919D02*
Y159144D01*
Y158000D02*
X199350D01*
X193222Y158713D02*
Y159144D01*
X198778Y156000D02*
X199350D01*
X198778Y153982D02*
Y157919D01*
X184000Y158713D02*
Y234459D01*
X186000Y158713D02*
Y232459D01*
X182000Y158713D02*
Y236459D01*
X190000Y158713D02*
Y228459D01*
X188000Y158713D02*
Y230459D01*
X176000Y158713D02*
Y242459D01*
X174000Y158713D02*
Y244459D01*
X180000Y158713D02*
Y238459D01*
X178000Y158713D02*
Y240459D01*
X138541Y164000D02*
X199350D01*
X140541Y162000D02*
X193222D01*
X142541Y160000D02*
X193222D01*
X192000Y158713D02*
Y226459D01*
X135250Y170000D02*
X199350D01*
X135250Y172000D02*
X199350D01*
X136541Y166000D02*
X199350D01*
X135250Y168000D02*
X199350D01*
X168000Y158713D02*
Y182885D01*
X160000Y158713D02*
Y180656D01*
X158000Y158713D02*
Y182885D01*
X172000Y158713D02*
Y246459D01*
X170000Y158713D02*
Y248459D01*
X140000Y162541D02*
Y180656D01*
X138000Y164541D02*
Y182885D01*
X150000Y158713D02*
Y180656D01*
X148000Y158713D02*
Y182885D01*
X162000Y158713D02*
Y179778D01*
X156000Y158713D02*
Y180520D01*
X166000Y158713D02*
Y180520D01*
X164000Y158713D02*
Y179739D01*
X136000Y166541D02*
Y180520D01*
X135250Y167291D02*
Y180115D01*
X154000Y158713D02*
Y179739D01*
X142000Y160541D02*
Y179778D01*
X184000Y131150D02*
Y154413D01*
X186000Y131150D02*
Y154413D01*
X182000Y131150D02*
Y154413D01*
X190000Y131150D02*
Y154413D01*
X188000Y131150D02*
Y154413D01*
X142937D02*
X193222D01*
X143828Y158713D02*
X193222D01*
X180000Y131150D02*
Y154413D01*
X178000Y131150D02*
Y154413D01*
X172000Y131150D02*
Y154413D01*
X164000Y131150D02*
Y154413D01*
X176000Y131150D02*
Y154413D01*
X174000Y131150D02*
Y154413D01*
X156000Y131150D02*
Y154413D01*
X154000Y131150D02*
Y154413D01*
X162000Y131150D02*
Y154413D01*
X158000Y131150D02*
Y154413D01*
X152000Y158713D02*
Y179778D01*
X146000Y158713D02*
Y180520D01*
X144000Y158713D02*
Y179739D01*
X140000Y131150D02*
Y156459D01*
X135250Y167291D02*
X143828Y158713D01*
X138000Y131150D02*
Y158459D01*
X136000Y131150D02*
Y160459D01*
X134000Y131150D02*
Y162459D01*
X148000Y131150D02*
Y154413D01*
X146000Y131150D02*
Y154413D01*
X152000Y131150D02*
Y154413D01*
X150000Y131150D02*
Y154413D01*
X144000Y131150D02*
Y154413D01*
X142000Y131150D02*
Y154628D01*
X217100Y152312D02*
Y153129D01*
Y150570D02*
Y152312D01*
X214650Y154000D02*
X217100D01*
Y150570D02*
Y152312D01*
X214000Y147253D02*
Y152084D01*
X213934Y152000D02*
X217100D01*
X212000Y147253D02*
Y150890D01*
X217100Y148012D02*
Y149752D01*
Y150570D01*
Y147253D02*
Y148012D01*
Y149752D01*
X210541Y148000D02*
X217100D01*
X209150Y150000D02*
X217100D01*
X202075Y137776D02*
X217100D01*
X211288Y147253D02*
X217100D01*
X210000Y148541D02*
Y151230D01*
X209150Y149391D02*
Y151902D01*
Y149391D02*
X211288Y147253D01*
X203650Y152000D02*
X204850D01*
X203650Y154000D02*
X204850D01*
X203650Y149391D02*
X204876Y148164D01*
X203650Y150000D02*
X204850D01*
X202965Y142076D02*
X204884D01*
X208000Y131150D02*
Y137776D01*
X204000Y142076D02*
Y142959D01*
X201041Y144000D02*
X202959D01*
X202000Y143041D02*
Y144959D01*
X216000Y131150D02*
Y137776D01*
X218000Y131150D02*
Y137776D01*
X214000Y131150D02*
Y137776D01*
X218000Y118214D02*
Y126850D01*
X216000Y118874D02*
Y126850D01*
X212000Y131150D02*
Y137776D01*
X210000Y131150D02*
Y137776D01*
X214000Y118665D02*
Y126850D01*
X212000Y117429D02*
Y126850D01*
X218000Y61128D02*
Y109786D01*
X216000Y61788D02*
Y109126D01*
X218000Y2000D02*
Y52699D01*
X216000Y2000D02*
Y52039D01*
X214000Y61578D02*
Y109335D01*
X212000Y60343D02*
Y110571D01*
X214000Y2000D02*
Y52249D01*
X212000Y2000D02*
Y53484D01*
X206000Y93613D02*
Y126850D01*
Y131150D02*
Y137776D01*
X210000Y87916D02*
Y126850D01*
X208000Y91991D02*
Y126850D01*
X204000Y131150D02*
Y137776D01*
X202000Y131150D02*
Y137777D01*
X204000Y94445D02*
Y126850D01*
X202000Y94729D02*
Y126850D01*
X206000Y2000D02*
Y79269D01*
X204000Y2000D02*
Y78437D01*
X210000Y2000D02*
Y84966D01*
X208000Y2000D02*
Y80891D01*
X202000Y2000D02*
Y78153D01*
X198778Y154000D02*
X199350D01*
X198150Y153982D02*
X198778D01*
X199980Y146980D02*
X204884Y142076D01*
X198150Y150000D02*
X199350D01*
X198150Y152000D02*
X199350D01*
X198150Y148000D02*
X199409D01*
X198150Y146891D02*
Y153982D01*
X199041Y146000D02*
X200959D01*
X200000Y145041D02*
Y146959D01*
Y94523D02*
Y126850D01*
Y131150D02*
Y138959D01*
X198150Y146891D02*
X202965Y142076D01*
X194480Y144480D02*
X200554Y138405D01*
X193222Y153982D02*
X193850D01*
Y146000D02*
Y153982D01*
X193222D02*
Y154413D01*
X192000Y131150D02*
Y154413D01*
X166000Y131150D02*
Y154413D01*
X160000Y131150D02*
Y154413D01*
X170000Y131150D02*
Y154413D01*
X168000Y131150D02*
Y154413D01*
X198000Y131150D02*
Y140959D01*
X196000Y131150D02*
Y142959D01*
X198000Y2000D02*
Y79096D01*
Y93786D02*
Y126850D01*
X194000Y131150D02*
Y145211D01*
X196000Y92322D02*
Y126850D01*
X194000Y89127D02*
Y126850D01*
X176000Y2000D02*
Y126850D01*
X178000Y2000D02*
Y126850D01*
X174000Y2000D02*
Y126850D01*
X182000Y2000D02*
Y126850D01*
X180000Y2000D02*
Y126850D01*
X168000Y2000D02*
Y126850D01*
X166000Y2000D02*
Y126850D01*
X172000Y2000D02*
Y126850D01*
X170000Y2000D02*
Y126850D01*
X194000Y2000D02*
Y83755D01*
X192000Y2000D02*
Y126850D01*
X200000Y2000D02*
Y78359D01*
X196000Y2000D02*
Y80560D01*
X186000Y2000D02*
Y126850D01*
X184000Y2000D02*
Y126850D01*
X190000Y2000D02*
Y126850D01*
X188000Y2000D02*
Y126850D01*
X144000Y2000D02*
Y126850D01*
X142000Y2000D02*
Y126850D01*
X148000Y2000D02*
Y126850D01*
X146000Y2000D02*
Y126850D01*
X136000Y2000D02*
Y126850D01*
X134000Y2000D02*
Y126850D01*
X140000Y2000D02*
Y126850D01*
X138000Y2000D02*
Y126850D01*
X160000Y2000D02*
Y126850D01*
X158000Y2000D02*
Y126850D01*
X164000Y2000D02*
Y126850D01*
X162000Y2000D02*
Y126850D01*
X152000Y2000D02*
Y126850D01*
X150000Y2000D02*
Y126850D01*
X156000Y2000D02*
Y126850D01*
X154000Y2000D02*
Y126850D01*
X132000Y282150D02*
Y309500D01*
X128500Y282150D02*
X144000D01*
X130000D02*
Y309500D01*
X128000Y282091D02*
Y309500D01*
X126000Y280541D02*
Y309500D01*
X124480Y279020D02*
X126980Y281520D01*
X124000Y278289D02*
Y309500D01*
X129391Y277850D02*
X143109D01*
X128150Y276609D02*
X129391Y277850D01*
X128150Y272000D02*
X134056D01*
X128150Y274000D02*
X133887D01*
X113965Y278000D02*
X123909D01*
X128150Y276000D02*
X134719D01*
X112000Y278346D02*
Y309500D01*
X114000Y277985D02*
Y309500D01*
X110000Y277727D02*
Y309500D01*
X116000Y276207D02*
Y309500D01*
X108000Y276408D02*
Y309500D01*
X106000Y278038D02*
Y309500D01*
X104000Y278337D02*
Y309500D01*
X102000Y277648D02*
Y309500D01*
X100000Y276588D02*
Y309500D01*
X116601Y274000D02*
X123850D01*
X116114Y276000D02*
X123850D01*
X106091Y278000D02*
X110531D01*
X128150Y270000D02*
X135402D01*
X128150Y266000D02*
X136090D01*
X128150Y257891D02*
Y276609D01*
X132000Y254650D02*
Y277850D01*
X130000Y256041D02*
Y277850D01*
X113965Y270000D02*
X123850D01*
X116114Y272000D02*
X123850D01*
X128150Y268000D02*
X136090D01*
X123850Y257000D02*
Y277500D01*
X128150Y262000D02*
X136090D01*
X128150Y264000D02*
X136090D01*
X128150Y258000D02*
X137959D01*
X128150Y260000D02*
X136229D01*
X128150Y257891D02*
X131391Y254650D01*
X124000Y250261D02*
Y256211D01*
X122000Y250222D02*
Y309500D01*
X116000Y249480D02*
Y271793D01*
X120000Y249344D02*
Y309500D01*
X118000Y247115D02*
Y309500D01*
X108000Y247115D02*
Y271592D01*
X114000Y250261D02*
Y270015D01*
X106091Y270000D02*
X110531D01*
X112000Y250222D02*
Y269654D01*
X110000Y249344D02*
Y270273D01*
X104000Y250261D02*
Y269663D01*
X102000Y250222D02*
Y270352D01*
X106000Y249480D02*
Y269962D01*
X100000Y249344D02*
Y271412D01*
X2000Y302000D02*
X277500D01*
X24940Y300000D02*
X254560D01*
X28097Y298000D02*
X251403D01*
X29865Y296000D02*
X249635D01*
X30974Y294000D02*
X248526D01*
X2000Y308000D02*
X277500D01*
X2000Y309500D02*
X277500D01*
X2000Y304000D02*
X277500D01*
X2000Y306000D02*
X277500D01*
X31622Y292000D02*
X247878D01*
X31889Y290000D02*
X247611D01*
X31801Y288000D02*
X247699D01*
X98216Y278000D02*
X102657D01*
X30485Y284000D02*
X249014D01*
X31349Y286000D02*
X248151D01*
X29085Y282000D02*
X127711D01*
X26802Y280000D02*
X125459D01*
X96000Y278324D02*
Y309500D01*
X98000Y278086D02*
Y309500D01*
X90000Y278130D02*
Y309500D01*
X94000Y277563D02*
Y309500D01*
X92000Y276750D02*
Y309500D01*
X88000Y278308D02*
Y309500D01*
X80000Y278287D02*
Y309500D01*
X86000Y277471D02*
Y309500D01*
X82000Y278170D02*
Y309500D01*
X90342Y278000D02*
X94784D01*
X82468D02*
X86909D01*
X84000Y276898D02*
Y309500D01*
X78000Y277372D02*
Y309500D01*
X2000Y278000D02*
X79035D01*
X24000Y276150D02*
X76967D01*
X76000D02*
Y309500D01*
X98216Y270000D02*
X102657D01*
X94000Y250261D02*
Y270437D01*
X90342Y270000D02*
X94784D01*
X19041Y266000D02*
X123850D01*
X21041Y268000D02*
X123850D01*
X98000Y247115D02*
Y269914D01*
X96000Y249480D02*
Y269676D01*
X15041Y262000D02*
X123850D01*
X17041Y264000D02*
X123850D01*
X14150Y258000D02*
X123850D01*
X14150Y260000D02*
X123850D01*
X92000Y250222D02*
Y271250D01*
X84000Y250261D02*
Y271102D01*
X24891Y271850D02*
X76967D01*
X76000Y249480D02*
Y271850D01*
X74000Y250261D02*
Y271850D01*
X82468Y270000D02*
X86909D01*
X86000Y249480D02*
Y270529D01*
X90000Y249344D02*
Y269870D01*
X88000Y247115D02*
Y269692D01*
X82000Y250222D02*
Y269830D01*
X23041Y270000D02*
X79035D01*
X80000Y249344D02*
Y269713D01*
X78000Y247115D02*
Y270628D01*
X131391Y254650D02*
X141309D01*
X130500Y250350D02*
X168109D01*
X130041Y256000D02*
X139959D01*
X130000Y249344D02*
Y250409D01*
X124480Y255480D02*
X128980Y250980D01*
X128000Y247115D02*
Y251959D01*
X127514Y248000D02*
X128686D01*
X127514Y242000D02*
X128686D01*
X124967Y250000D02*
X131234D01*
X124967Y240000D02*
X131234D01*
X126000Y249480D02*
Y253959D01*
X114966Y250000D02*
X121233D01*
X117514Y248000D02*
X118686D01*
X104966Y250000D02*
X111233D01*
X107514Y248000D02*
X108686D01*
X97514D02*
X98686D01*
X114966Y240000D02*
X121233D01*
X117514Y242000D02*
X118686D01*
X124000Y190261D02*
Y239739D01*
X114000Y190261D02*
Y239739D01*
X107514Y242000D02*
X108686D01*
X97514D02*
X98686D01*
X104966Y240000D02*
X111233D01*
X130000Y189344D02*
Y240656D01*
X132000Y190222D02*
Y239778D01*
X126000Y189480D02*
Y240520D01*
X128000Y187115D02*
Y242885D01*
X122000Y190222D02*
Y239778D01*
X120000Y189344D02*
Y240656D01*
X118000Y187115D02*
Y242885D01*
X124967Y190000D02*
X131234D01*
X127514Y188000D02*
X128686D01*
X127514Y182000D02*
X128686D01*
X114966Y190000D02*
X121233D01*
X117514Y188000D02*
X118686D01*
X117514Y182000D02*
X118686D01*
X116000Y189480D02*
Y240520D01*
X112000Y190222D02*
Y239778D01*
X110000Y189344D02*
Y240656D01*
X108000Y187115D02*
Y242885D01*
X106000Y189480D02*
Y240520D01*
X102000Y190222D02*
Y239778D01*
X100000Y189344D02*
Y240656D01*
X98000Y187115D02*
Y242885D01*
X104966Y190000D02*
X111233D01*
X104000Y190261D02*
Y239739D01*
X107514Y182000D02*
X108686D01*
X107514Y188000D02*
X108686D01*
X97514D02*
X98686D01*
X97514Y182000D02*
X98686D01*
X14150Y232000D02*
X186459D01*
X14150Y230000D02*
X188459D01*
X14150Y234000D02*
X184459D01*
X14150Y226000D02*
X192459D01*
X14150Y228000D02*
X190459D01*
X14150Y252000D02*
X127959D01*
X14150Y254000D02*
X125959D01*
X14150Y236000D02*
X182459D01*
X14150Y238000D02*
X180459D01*
X14150Y214000D02*
X199350D01*
X14150Y216000D02*
X199350D01*
X14150Y210000D02*
X199350D01*
X14150Y212000D02*
X199350D01*
X14150Y222000D02*
X196459D01*
X14150Y224000D02*
X194459D01*
X14150Y218000D02*
X199350D01*
X14150Y220000D02*
X198459D01*
X84966Y250000D02*
X91234D01*
X94967D02*
X101234D01*
X87514Y248000D02*
X88686D01*
X14150Y256000D02*
X124097D01*
X74967Y250000D02*
X81234D01*
X77514Y248000D02*
X78686D01*
X94967Y240000D02*
X101234D01*
X87514Y242000D02*
X88686D01*
X84966Y240000D02*
X91234D01*
X74967D02*
X81234D01*
X77514Y242000D02*
X78686D01*
X20041Y200000D02*
X199350D01*
X58541Y198000D02*
X199350D01*
X94000Y190261D02*
Y239739D01*
X96000Y189480D02*
Y240520D01*
X92000Y190222D02*
Y239778D01*
X14150Y206000D02*
X199350D01*
X14150Y208000D02*
X199350D01*
X18041Y202000D02*
X199350D01*
X16041Y204000D02*
X199350D01*
X94967Y190000D02*
X101234D01*
X84966Y180000D02*
X90950D01*
X62541Y194000D02*
X199350D01*
X60541Y196000D02*
X199350D01*
X64541Y192000D02*
X199350D01*
X84966Y190000D02*
X91234D01*
X86000Y189480D02*
Y240520D01*
X84000Y190261D02*
Y239739D01*
X90000Y189344D02*
Y240656D01*
X88000Y187115D02*
Y242885D01*
X82000Y190222D02*
Y239778D01*
X76000Y189480D02*
Y240520D01*
X80000Y189344D02*
Y240656D01*
X78000Y187115D02*
Y242885D01*
X87514Y188000D02*
X88686D01*
X87514Y182000D02*
X88686D01*
X74967Y190000D02*
X81234D01*
X77514Y188000D02*
X78686D01*
X77514Y182000D02*
X78686D01*
X66000Y276150D02*
Y309500D01*
X68000Y276150D02*
Y309500D01*
X64000Y276150D02*
Y309500D01*
X72000Y276150D02*
Y309500D01*
X70000Y276150D02*
Y309500D01*
X52000Y276150D02*
Y309500D01*
X50000Y276150D02*
Y309500D01*
X62000Y276150D02*
Y309500D01*
X60000Y276150D02*
Y309500D01*
X74000Y276150D02*
Y309500D01*
X58000Y276150D02*
Y309500D01*
X64000Y250261D02*
Y271850D01*
X62000Y250222D02*
Y271850D01*
X56000Y276150D02*
Y309500D01*
X54000Y276150D02*
Y309500D01*
Y250261D02*
Y271850D01*
X48000Y276150D02*
Y309500D01*
X40000Y276150D02*
Y309500D01*
X42000Y276150D02*
Y309500D01*
X38000Y276150D02*
Y309500D01*
X46000Y276150D02*
Y309500D01*
X44000Y276150D02*
Y309500D01*
X32000Y276150D02*
Y309500D01*
X26000Y299485D02*
Y309500D01*
X36000Y276150D02*
Y309500D01*
X34000Y276150D02*
Y309500D01*
X30000Y276150D02*
Y283198D01*
Y295802D02*
Y309500D01*
X44000Y250261D02*
Y271850D01*
X34000Y250261D02*
Y271850D01*
X28000Y298085D02*
Y309500D01*
X24000Y300349D02*
Y309500D01*
X28000Y276150D02*
Y280915D01*
X26000Y276150D02*
Y279515D01*
X70000Y249344D02*
Y271850D01*
X72000Y250222D02*
Y271850D01*
X66000Y249480D02*
Y271850D01*
X68000Y247115D02*
Y271850D01*
X60000Y249344D02*
Y271850D01*
X56000Y249480D02*
Y271850D01*
X52000Y250222D02*
Y271850D01*
X58000Y247115D02*
Y271850D01*
X50000Y249344D02*
Y271850D01*
X64966Y250000D02*
X71234D01*
X67514Y248000D02*
X68686D01*
X57514D02*
X58686D01*
X54966Y250000D02*
X61234D01*
X44967D02*
X51234D01*
X47514Y248000D02*
X48686D01*
X46000Y249480D02*
Y271850D01*
X42000Y250222D02*
Y271850D01*
X40000Y249344D02*
Y271850D01*
X38000Y247115D02*
Y271850D01*
X36000Y249480D02*
Y271850D01*
X32000Y250222D02*
Y271850D01*
X28000Y247115D02*
Y271850D01*
X26000Y249480D02*
Y271850D01*
X34966Y250000D02*
X41234D01*
X37514Y248000D02*
X38686D01*
X48000Y247115D02*
Y271850D01*
X24967Y250000D02*
X31234D01*
X30000Y249344D02*
Y271850D01*
X27514Y248000D02*
X28686D01*
X22000Y300801D02*
Y309500D01*
X24000Y276150D02*
Y278651D01*
X20000Y300889D02*
Y309500D01*
X18000Y300623D02*
Y309500D01*
X22000Y275041D02*
Y278199D01*
X20000Y273041D02*
Y278111D01*
X2000Y276000D02*
X23211D01*
X2000Y274000D02*
X20959D01*
X2000Y272000D02*
X18959D01*
X18000Y271041D02*
Y278378D01*
X16000Y299974D02*
Y309500D01*
X2000Y300000D02*
X16060D01*
X14000Y298865D02*
Y309500D01*
X12000Y297097D02*
Y309500D01*
X10000Y293940D02*
Y309500D01*
X2000Y298000D02*
X12903D01*
X2000Y296000D02*
X11135D01*
X2000Y294000D02*
X10026D01*
X2000Y292000D02*
X9377D01*
X2000Y288000D02*
X9199D01*
X2000Y290000D02*
X9111D01*
X16000Y269041D02*
Y279026D01*
X2000Y286000D02*
X9651D01*
X2000Y282000D02*
X11914D01*
X2000Y284000D02*
X10514D01*
X2000Y270000D02*
X16959D01*
X2000Y280000D02*
X14198D01*
X14150Y261109D02*
X24891Y271850D01*
X24000Y250261D02*
Y270959D01*
X22000Y250222D02*
Y268959D01*
X20000Y249344D02*
Y266959D01*
X18000Y246573D02*
Y264959D01*
X2000Y268000D02*
X14959D01*
X14000Y267041D02*
Y280135D01*
X10480Y263520D02*
X22480Y275520D01*
X2000Y266000D02*
X12959D01*
X14150Y205891D02*
Y261109D01*
X18000Y202041D02*
Y243427D01*
X16000Y204041D02*
Y262959D01*
X14150Y250000D02*
X21234D01*
X14150Y248000D02*
X18686D01*
X14150Y244000D02*
X17857D01*
X14150Y246000D02*
X17857D01*
X12000Y265041D02*
Y281903D01*
X10000Y262789D02*
Y285060D01*
X2000Y264000D02*
X10959D01*
X2000Y262000D02*
X9850D01*
Y205000D02*
Y262000D01*
X2000Y260000D02*
X9850D01*
X2000Y248000D02*
X9850D01*
X2000Y250000D02*
X9850D01*
X2000Y244000D02*
X9850D01*
X2000Y246000D02*
X9850D01*
X2000Y256000D02*
X9850D01*
X2000Y258000D02*
X9850D01*
X2000Y252000D02*
X9850D01*
X2000Y254000D02*
X9850D01*
X67514Y242000D02*
X68686D01*
X64966Y240000D02*
X71234D01*
X72000Y190222D02*
Y239778D01*
X60000Y196541D02*
Y240656D01*
X54966Y240000D02*
X61234D01*
X57514Y242000D02*
X58686D01*
X58000Y198403D02*
Y242885D01*
X64000Y192541D02*
Y239739D01*
X74000Y190261D02*
Y239739D01*
X58520Y198020D02*
X64620Y191920D01*
X62000Y194541D02*
Y239778D01*
X50000Y198650D02*
Y240656D01*
X56000Y198650D02*
Y240520D01*
X47514Y242000D02*
X48686D01*
X48000Y198650D02*
Y242885D01*
X40000Y198650D02*
Y240656D01*
X37514Y242000D02*
X38686D01*
X38000Y198650D02*
Y242885D01*
X36000Y198650D02*
Y240520D01*
X54000Y198650D02*
Y239739D01*
X52000Y198650D02*
Y239778D01*
X54000Y190261D02*
Y194350D01*
X46000Y198650D02*
Y240520D01*
X44967Y240000D02*
X51234D01*
X44000Y198650D02*
Y239739D01*
Y190261D02*
Y194350D01*
X42000Y198650D02*
Y239778D01*
X70000Y189344D02*
Y240656D01*
X66000Y189480D02*
Y240520D01*
X65250Y189885D02*
Y190400D01*
X68000Y187115D02*
Y242885D01*
X60000Y189344D02*
Y190459D01*
X56109Y194350D02*
X60695Y189764D01*
X54966Y190000D02*
X60459D01*
X58000Y187115D02*
Y192459D01*
X65250Y190000D02*
X71234D01*
X67514Y188000D02*
X68686D01*
X67514Y182000D02*
X68686D01*
X57514Y188000D02*
X58686D01*
X57514Y182000D02*
X58686D01*
X52000Y190222D02*
Y194350D01*
X46000Y189480D02*
Y194350D01*
X50000Y189344D02*
Y194350D01*
X48000Y187115D02*
Y194350D01*
X42000Y190222D02*
Y194350D01*
X36000Y189480D02*
Y194350D01*
X40000Y189344D02*
Y194350D01*
X38000Y187115D02*
Y194350D01*
X56000Y189480D02*
Y194350D01*
X47514Y188000D02*
X48686D01*
X47514Y182000D02*
X48686D01*
X44967Y190000D02*
X51234D01*
X37514Y188000D02*
X38686D01*
X37514Y182000D02*
X38686D01*
X24967Y240000D02*
X31234D01*
X34966D02*
X41234D01*
X27514Y242000D02*
X28686D01*
X34000Y198650D02*
Y239739D01*
X14150Y240000D02*
X21234D01*
X14150Y242000D02*
X18686D01*
X24000Y198650D02*
Y239739D01*
X20000Y200041D02*
Y240656D01*
X2000Y232000D02*
X9850D01*
X14150Y205891D02*
X21391Y198650D01*
X2000Y204000D02*
X10097D01*
X2000Y236000D02*
X9850D01*
X2000Y200000D02*
X13959D01*
X2000Y202000D02*
X11959D01*
X2000Y228000D02*
X9850D01*
X2000Y226000D02*
X9850D01*
X2000Y230000D02*
X9850D01*
X2000Y222000D02*
X9850D01*
X2000Y224000D02*
X9850D01*
X2000Y240000D02*
X9850D01*
X2000Y242000D02*
X9850D01*
X2000Y234000D02*
X9850D01*
X2000Y238000D02*
X9850D01*
X2000Y210000D02*
X9850D01*
X2000Y212000D02*
X9850D01*
X2000Y206000D02*
X9850D01*
X2000Y208000D02*
X9850D01*
X2000Y218000D02*
X9850D01*
X2000Y220000D02*
X9850D01*
X2000Y214000D02*
X9850D01*
X2000Y216000D02*
X9850D01*
X32000Y198650D02*
Y239778D01*
X34000Y190261D02*
Y194350D01*
X30000Y198650D02*
Y240656D01*
X32000Y190222D02*
Y194350D01*
X30000Y189344D02*
Y194350D01*
X21391Y198650D02*
X57000D01*
X28000D02*
Y242885D01*
X20500Y194350D02*
X56109D01*
X26000Y190337D02*
Y194350D01*
X34966Y190000D02*
X41234D01*
X28437D02*
X31234D01*
X28437Y187596D02*
Y190337D01*
X2000Y192000D02*
X58459D01*
X2000Y194000D02*
X56459D01*
X17763Y190337D02*
X28437D01*
X28000D02*
Y194350D01*
X26000Y198650D02*
Y240520D01*
X22000Y198650D02*
Y239778D01*
X2000Y196000D02*
X17959D01*
X2000Y198000D02*
X15959D01*
X10480Y203480D02*
X18980Y194980D01*
X18000Y190337D02*
Y195959D01*
X24000Y190337D02*
Y194350D01*
X22000Y190337D02*
Y194350D01*
X20000Y190337D02*
Y194409D01*
X2000Y190000D02*
X17763D01*
X2000Y186000D02*
X17763D01*
X2000Y188000D02*
X17763D01*
X2000Y182000D02*
X17763D01*
X2000Y184000D02*
X17763D01*
X130000Y175541D02*
Y180656D01*
X130350Y175891D02*
Y180426D01*
X128000Y173650D02*
Y182885D01*
X130520Y169980D02*
X130950Y170409D01*
X128109Y173650D02*
X130350Y175891D01*
X124967Y180000D02*
X130350D01*
X126000Y173650D02*
Y180520D01*
X124000Y173650D02*
Y179739D01*
X130950Y166400D02*
Y170409D01*
X130541Y170000D02*
X130950D01*
X125378Y158000D02*
X138459D01*
X124000Y158877D02*
Y169350D01*
X118000Y173650D02*
Y182885D01*
X114966Y180000D02*
X121233D01*
X116000Y173650D02*
Y180520D01*
X122000Y173650D02*
Y179778D01*
X120000Y173650D02*
Y180656D01*
X114000Y173650D02*
Y179739D01*
X112000Y173650D02*
Y179778D01*
X110000Y158862D02*
Y169350D01*
Y173650D02*
Y180656D01*
X121370Y159124D02*
X122630D01*
X122000D02*
Y169350D01*
X120000Y158877D02*
Y169350D01*
X116000Y157271D02*
Y169350D01*
X111409Y159124D02*
X112669D01*
X112000D02*
Y169350D01*
X115417Y158000D02*
X118622D01*
X114000Y158892D02*
Y169350D01*
X131580Y164880D02*
X141417Y155043D01*
X132000Y131150D02*
Y164459D01*
X126550Y150795D02*
Y155205D01*
X130000Y131150D02*
Y169597D01*
X128000Y131150D02*
Y169350D01*
X126468Y156000D02*
X140459D01*
X126000Y157206D02*
Y169350D01*
X126550Y152000D02*
X193850D01*
X126550Y154000D02*
X193222D01*
X126468Y150000D02*
X193850D01*
X126000Y131150D02*
Y148794D01*
X125378Y148000D02*
X193850D01*
X124650Y143500D02*
Y147436D01*
X118000Y157206D02*
Y169350D01*
X116589Y152000D02*
X117450D01*
Y150795D02*
Y155205D01*
X116589Y150795D02*
Y155205D01*
X116507Y156000D02*
X117532D01*
X116589Y154000D02*
X117450D01*
X120350Y144391D02*
Y147011D01*
X116507Y150000D02*
X117532D01*
X120000Y144041D02*
Y147123D01*
X118000Y142041D02*
Y148794D01*
X115417Y148000D02*
X118622D01*
X109889Y146430D02*
Y147182D01*
X116000Y140041D02*
Y148729D01*
X114189Y145539D02*
Y147182D01*
X104966Y180000D02*
X111233D01*
X108000Y173650D02*
Y182885D01*
X107500Y173650D02*
X128109D01*
X106000Y173040D02*
Y180520D01*
X103041Y178000D02*
X130350D01*
X101041Y176000D02*
X130350D01*
X99041Y174000D02*
X128459D01*
X107041Y168000D02*
X130950D01*
X108391Y169350D02*
X129000D01*
X105041Y166000D02*
X130988D01*
X104229Y165188D02*
X108391Y169350D01*
X104229Y162000D02*
X134459D01*
X104229Y164000D02*
X132459D01*
X104000Y171041D02*
Y178959D01*
X100558Y167599D02*
X105980Y173020D01*
X102000Y169041D02*
Y176959D01*
X95250Y180000D02*
X98959D01*
X98000Y179041D02*
Y182885D01*
X100000Y166628D02*
Y174959D01*
X82980Y164020D02*
X99780Y180821D01*
X97041Y172000D02*
X104959D01*
X95041Y170000D02*
X102959D01*
X93041Y168000D02*
X100959D01*
X91041Y166000D02*
X99929D01*
X87041Y162000D02*
X99929D01*
X89041Y164000D02*
X99929D01*
X108000Y157139D02*
Y168959D01*
X106628Y154000D02*
X107490D01*
Y150795D02*
Y155205D01*
X106628Y150795D02*
Y155205D01*
X104229Y160000D02*
X136459D01*
X105456Y158000D02*
X108662D01*
X106547Y156000D02*
X107571D01*
X106628Y152000D02*
X107490D01*
X108109Y144650D02*
X109889Y146430D01*
X108000Y144650D02*
Y148862D01*
X105456Y148000D02*
X108662D01*
X106547Y150000D02*
X107571D01*
X106000Y144650D02*
Y148667D01*
X104229Y158818D02*
Y165188D01*
X99929Y158818D02*
Y166079D01*
X106000Y157333D02*
Y166959D01*
X98000Y157067D02*
Y172959D01*
X86650Y161609D02*
X104620Y179580D01*
X86650Y160000D02*
X99929D01*
X95496Y158000D02*
X98701D01*
X104000Y144650D02*
Y147094D01*
X101449Y146876D02*
X102709D01*
X102000Y144650D02*
Y146876D01*
X100000Y144650D02*
Y147153D01*
X95496Y148000D02*
X98701D01*
X96586Y156000D02*
X97611D01*
X98000Y144650D02*
Y148933D01*
X124650Y144000D02*
X194959D01*
X124040Y142000D02*
X196959D01*
X124650Y146000D02*
X193850D01*
X114189D02*
X120350D01*
X113541Y144000D02*
X119959D01*
X115609Y139650D02*
X120350Y144391D01*
X111541Y142000D02*
X117959D01*
X120041Y138000D02*
X201118D01*
X122041Y140000D02*
X198959D01*
X118041Y136000D02*
X247850D01*
X118020Y135980D02*
X124020Y141980D01*
X89041Y140000D02*
X115959D01*
X89391Y139650D02*
X115609D01*
X88500Y135350D02*
X116500D01*
X110520Y140980D02*
X113560Y144019D01*
X114000Y139650D02*
Y144657D01*
X112000Y139650D02*
Y142459D01*
X89541Y146000D02*
X109459D01*
X90891Y144650D02*
X108109D01*
X106000Y139650D02*
Y140350D01*
X104000Y139650D02*
Y140350D01*
X110000Y139650D02*
Y140597D01*
X108000Y139650D02*
Y140350D01*
X90000D02*
X109000D01*
X98000Y139650D02*
Y140350D01*
X102000Y139650D02*
Y140350D01*
X100000Y139650D02*
Y140350D01*
X124000Y131150D02*
Y141959D01*
X122000Y131150D02*
Y139959D01*
X120000Y131150D02*
Y137959D01*
X132000Y2000D02*
Y126850D01*
X126000Y2000D02*
Y126850D01*
X118000Y131150D02*
Y135960D01*
X116000Y131150D02*
Y135350D01*
X114000Y131150D02*
Y135350D01*
X124000Y2000D02*
Y126850D01*
X122000Y2000D02*
Y126850D01*
X130000Y2000D02*
Y126850D01*
X128000Y2000D02*
Y126850D01*
X116000Y2000D02*
Y126850D01*
X114000Y2000D02*
Y126850D01*
X120000Y2000D02*
Y126850D01*
X118000Y2000D02*
Y126850D01*
X108000Y131150D02*
Y135350D01*
X106000Y131150D02*
Y135350D01*
X112000Y131150D02*
Y135350D01*
X110000Y131150D02*
Y135350D01*
X100000Y131150D02*
Y135350D01*
X98000Y131150D02*
Y135350D01*
X104000Y131150D02*
Y135350D01*
X102000Y131150D02*
Y135350D01*
X108000Y2000D02*
Y126850D01*
X106000Y2000D02*
Y126850D01*
X112000Y2000D02*
Y126850D01*
X110000Y2000D02*
Y126850D01*
X100000Y2000D02*
Y126850D01*
X98000Y2000D02*
Y126850D01*
X104000Y2000D02*
Y126850D01*
X102000Y2000D02*
Y126850D01*
X2000Y106000D02*
X277500D01*
X2000Y104000D02*
X277500D01*
X2000Y108000D02*
X277500D01*
X2000Y100000D02*
X277500D01*
X2000Y102000D02*
X277500D01*
X2000Y124000D02*
X277500D01*
X2000Y126000D02*
X277500D01*
X2000Y120000D02*
X277500D01*
X2000Y122000D02*
X277500D01*
X2000Y72000D02*
X277500D01*
X2000Y74000D02*
X277500D01*
X2000Y68000D02*
X277500D01*
X2000Y70000D02*
X277500D01*
X2000Y96000D02*
X277500D01*
X2000Y98000D02*
X277500D01*
X2000Y76000D02*
X277500D01*
X2000Y78000D02*
X277500D01*
X59041Y134000D02*
X247459D01*
X61041Y132000D02*
X245459D01*
X61891Y131150D02*
X244609D01*
X61000Y126850D02*
X245500D01*
X2000Y118000D02*
X212670D01*
X2000Y116000D02*
X211027D01*
X2000Y114000D02*
X210600D01*
X2000Y110000D02*
X212670D01*
X2000Y112000D02*
X211027D01*
X2000Y84000D02*
X193920D01*
X2000Y86000D02*
X193564D01*
X2000Y80000D02*
X196624D01*
X2000Y82000D02*
X194843D01*
X2000Y94000D02*
X198440D01*
X2000Y92000D02*
X195693D01*
X2000Y90000D02*
X194356D01*
X2000Y88000D02*
X193701D01*
X2000Y48000D02*
X277500D01*
X2000Y46000D02*
X277500D01*
X2000Y50000D02*
X277500D01*
X2000Y42000D02*
X277500D01*
X2000Y44000D02*
X277500D01*
X2000Y64000D02*
X277500D01*
X2000Y66000D02*
X277500D01*
X2000Y52000D02*
X277500D01*
X2000Y62000D02*
X277500D01*
X2000Y8000D02*
X277500D01*
X2000Y32000D02*
X277500D01*
X2000Y4000D02*
X277500D01*
X2000Y6000D02*
X277500D01*
X2000Y38000D02*
X277500D01*
X2000Y40000D02*
X277500D01*
X2000Y34000D02*
X277500D01*
X2000Y36000D02*
X277500D01*
X26474Y30000D02*
X254026D01*
X29122Y28000D02*
X251378D01*
X30693Y26000D02*
X249807D01*
X31675Y24000D02*
X248825D01*
X2000Y60000D02*
X211694D01*
X2000Y58000D02*
X210722D01*
X2000Y54000D02*
X211560D01*
X2000Y56000D02*
X210686D01*
X32223Y22000D02*
X248277D01*
X32400Y20000D02*
X248100D01*
X31675Y16000D02*
X248825D01*
X32223Y18000D02*
X248277D01*
X29122Y12000D02*
X251378D01*
X30693Y14000D02*
X249807D01*
X2000Y2000D02*
X277500D01*
X26474Y10000D02*
X254026D01*
X96000Y177041D02*
Y180520D01*
X95250Y178000D02*
X96959D01*
X95250Y177600D02*
Y180115D01*
X90950Y178491D02*
Y180115D01*
X77980Y165520D02*
X90950Y178491D01*
X90000Y177541D02*
Y180656D01*
X94541Y176000D02*
X94959D01*
X94000Y175041D02*
Y175459D01*
X92541Y174000D02*
X92959D01*
X92000Y173041D02*
Y173459D01*
X90541Y172000D02*
X90959D01*
X90000Y171041D02*
Y171459D01*
X81650Y163109D02*
X94620Y176080D01*
X88541Y170000D02*
X88959D01*
X88000Y175541D02*
Y182885D01*
X86000Y173541D02*
Y180520D01*
X84000Y171541D02*
Y179739D01*
X82000Y169541D02*
Y179778D01*
X80000Y167541D02*
Y180656D01*
X74967Y180000D02*
X81234D01*
X64966D02*
X71234D01*
X78000Y165541D02*
Y182885D01*
X88000Y169041D02*
Y169459D01*
X86541Y168000D02*
X86959D01*
X86000Y167041D02*
Y167459D01*
X84541Y166000D02*
X84959D01*
X84000Y165041D02*
Y165459D01*
X82541Y164000D02*
X82960D01*
X94000Y158919D02*
Y168959D01*
X91488Y159124D02*
X92748D01*
X92000D02*
Y166959D01*
X96000Y157393D02*
Y170959D01*
X90000Y158831D02*
Y164959D01*
X88000Y156993D02*
Y162959D01*
X86650Y148891D02*
Y161609D01*
X97529Y150795D02*
Y155205D01*
X96668Y150795D02*
Y155205D01*
X86650Y158000D02*
X88740D01*
X86650Y156000D02*
X87650D01*
X87568Y150795D02*
Y155205D01*
X72000Y131150D02*
Y179778D01*
X70000Y131150D02*
Y180656D01*
X76000Y131150D02*
Y180520D01*
X74000Y131150D02*
Y179739D01*
X64000Y131150D02*
Y179739D01*
X62000Y131150D02*
Y179778D01*
X68000Y131150D02*
Y182885D01*
X66000Y131150D02*
Y180520D01*
X82350Y148000D02*
Y162500D01*
X81650Y156000D02*
X82350D01*
X82000Y147041D02*
Y163459D01*
X81650Y147391D02*
Y163109D01*
Y160000D02*
X82350D01*
X81650Y162000D02*
X82350D01*
X81650Y158000D02*
X82350D01*
X77350Y146500D02*
Y164000D01*
X55250Y178000D02*
X90459D01*
X55250Y180000D02*
X61234D01*
X55250Y176000D02*
X88459D01*
X55250Y172000D02*
X84459D01*
X2000Y178000D02*
X50950D01*
X44967Y180000D02*
X50950D01*
X55250Y174000D02*
X86459D01*
X2000Y176000D02*
X50950D01*
X55250Y170000D02*
X82459D01*
X55250Y168000D02*
X80459D01*
X55250Y166000D02*
X78459D01*
X55250Y164000D02*
X77350D01*
X55250Y160000D02*
X77350D01*
X55250Y162000D02*
X77350D01*
X55250Y158000D02*
X77350D01*
X2000D02*
X50950D01*
X34966Y180000D02*
X41234D01*
X28437D02*
X31234D01*
X28437Y179663D02*
Y182404D01*
X17763Y179663D02*
Y190337D01*
X2000Y180000D02*
X17763D01*
X2000Y174000D02*
X50950D01*
X17763Y179663D02*
X28437D01*
X2000Y162000D02*
X50950D01*
X2000Y164000D02*
X50950D01*
X2000Y156000D02*
X50950D01*
X2000Y160000D02*
X50950D01*
X2000Y170000D02*
X50950D01*
X2000Y172000D02*
X50950D01*
X2000Y166000D02*
X50950D01*
X2000Y168000D02*
X50950D01*
X58000Y135041D02*
Y182885D01*
X60000Y133041D02*
Y180656D01*
X56000Y137041D02*
Y180520D01*
X50000Y2000D02*
Y180656D01*
X48000Y2000D02*
Y182885D01*
X38000Y2000D02*
Y182885D01*
X36000Y2000D02*
Y180520D01*
X46000Y2000D02*
Y180520D01*
X40000Y2000D02*
Y180656D01*
X55250Y154000D02*
X77350D01*
X55250Y156000D02*
X77350D01*
X55250Y137791D02*
Y180115D01*
X50950Y136900D02*
Y180115D01*
X34000Y2000D02*
Y179739D01*
X32000Y22993D02*
Y179778D01*
X44000Y2000D02*
Y179739D01*
X42000Y2000D02*
Y179778D01*
X14000Y28998D02*
Y199959D01*
X12000Y26997D02*
Y201959D01*
X10000Y22993D02*
Y204211D01*
X8000Y2000D02*
Y309500D01*
X2000Y2000D02*
Y309500D01*
Y2000D02*
Y309500D01*
X6000Y2000D02*
Y309500D01*
X4000Y2000D02*
Y309500D01*
X26000Y30245D02*
Y179663D01*
X24000Y30998D02*
Y179663D01*
X30000Y26997D02*
Y180656D01*
X28000Y28998D02*
Y179663D01*
X22000Y31356D02*
Y179663D01*
X20000Y31356D02*
Y179663D01*
X18000Y30998D02*
Y179663D01*
X16000Y30245D02*
Y197959D01*
X96668Y152000D02*
X97529D01*
X96586Y150000D02*
X97611D01*
X96668Y154000D02*
X97529D01*
X88000Y147541D02*
Y149007D01*
X91488Y146876D02*
X92748D01*
X92000Y144650D02*
Y146876D01*
X96000Y144650D02*
Y148607D01*
X94000Y144650D02*
Y147081D01*
X90000Y145541D02*
Y147169D01*
X87541Y148000D02*
X88740D01*
X86650Y148891D02*
X90891Y144650D01*
X82980Y146480D02*
X88480Y140980D01*
X86650Y152000D02*
X87568D01*
X86650Y150000D02*
X87650D01*
X86650Y154000D02*
X87568D01*
X81650Y152000D02*
X82350D01*
X81650Y154000D02*
X82350D01*
X81650Y148000D02*
X82350D01*
X81650Y150000D02*
X82350D01*
X86000Y143041D02*
Y143459D01*
X85041Y144000D02*
X85459D01*
X88000Y141041D02*
Y141459D01*
X87041Y142000D02*
X87459D01*
X84000Y145041D02*
Y145459D01*
X83041Y146000D02*
X83459D01*
X90000Y139650D02*
Y140350D01*
X92000Y139650D02*
Y140350D01*
X96000Y139650D02*
Y140350D01*
X94000Y139650D02*
Y140350D01*
X81650Y147391D02*
X89391Y139650D01*
X96000Y131150D02*
Y135350D01*
X94000Y131150D02*
Y135350D01*
X96000Y2000D02*
Y126850D01*
X94000Y2000D02*
Y126850D01*
X92000Y131150D02*
Y135350D01*
X90000Y131150D02*
Y135350D01*
X92000Y2000D02*
Y126850D01*
X90000Y2000D02*
Y126850D01*
X86000Y131150D02*
Y136959D01*
X84000Y131150D02*
Y138959D01*
X88000Y2000D02*
Y126850D01*
Y131150D02*
Y135409D01*
X77980Y144980D02*
X86980Y135980D01*
X78000Y131150D02*
Y144959D01*
X82000Y131150D02*
Y140959D01*
X80000Y131150D02*
Y142959D01*
X82000Y2000D02*
Y126850D01*
X80000Y2000D02*
Y126850D01*
X86000Y2000D02*
Y126850D01*
X84000Y2000D02*
Y126850D01*
X74000Y2000D02*
Y126850D01*
X72000Y2000D02*
Y126850D01*
X78000Y2000D02*
Y126850D01*
X76000Y2000D02*
Y126850D01*
X55250Y142000D02*
X80959D01*
X55250Y140000D02*
X82959D01*
X55250Y144000D02*
X78959D01*
X55250Y138000D02*
X84959D01*
X55250Y137791D02*
X61891Y131150D01*
X55250Y150000D02*
X77350D01*
X55250Y152000D02*
X77350D01*
X55250Y146000D02*
X77409D01*
X55250Y148000D02*
X77350D01*
X57041Y136000D02*
X86959D01*
X51580Y135380D02*
X59480Y127480D01*
X2000Y132000D02*
X54959D01*
X2000Y134000D02*
X52959D01*
X2000Y128000D02*
X58959D01*
X2000Y130000D02*
X56959D01*
X2000Y144000D02*
X50950D01*
X2000Y142000D02*
X50950D01*
X2000Y146000D02*
X50950D01*
X2000Y138000D02*
X50950D01*
X2000Y140000D02*
X50950D01*
X2000Y152000D02*
X50950D01*
X2000Y154000D02*
X50950D01*
X2000Y148000D02*
X50950D01*
X2000Y150000D02*
X50950D01*
X2000Y136000D02*
X51147D01*
X2000Y30000D02*
X15526D01*
X2000Y28000D02*
X12878D01*
X2000Y26000D02*
X11307D01*
X2000Y24000D02*
X10325D01*
X2000Y22000D02*
X9777D01*
X62000Y2000D02*
Y126850D01*
X64000Y2000D02*
Y126850D01*
X60000Y2000D02*
Y127097D01*
X68000Y2000D02*
Y126850D01*
X66000Y2000D02*
Y126850D01*
X54000Y2000D02*
Y132959D01*
X52000Y2000D02*
Y134959D01*
X58000Y2000D02*
Y128959D01*
X56000Y2000D02*
Y130959D01*
X30000Y2000D02*
Y13003D01*
X28000Y2000D02*
Y11002D01*
X70000Y2000D02*
Y126850D01*
X32000Y2000D02*
Y17007D01*
X26000Y2000D02*
Y9755D01*
X24000Y2000D02*
Y9002D01*
X10000Y2000D02*
Y17007D01*
X2000Y18000D02*
X9777D01*
X2000Y20000D02*
X9600D01*
X2000Y14000D02*
X11307D01*
X2000Y16000D02*
X10325D01*
X18000Y2000D02*
Y9002D01*
X16000Y2000D02*
Y9755D01*
X22000Y2000D02*
Y8644D01*
X20000Y2000D02*
Y8644D01*
X2000Y10000D02*
X15526D01*
X2000Y12000D02*
X12878D01*
X14000Y2000D02*
Y11002D01*
X12000Y2000D02*
Y13003D01*
D26*
X196000Y160500D02*
D03*
Y156563D02*
D03*
D27*
X250000Y139926D02*
D03*
Y142484D02*
D03*
Y145044D02*
D03*
Y147602D02*
D03*
Y150162D02*
D03*
Y152720D02*
D03*
Y155280D02*
D03*
Y157838D02*
D03*
Y160398D02*
D03*
Y162957D02*
D03*
Y165515D02*
D03*
Y168075D02*
D03*
X223000D02*
D03*
Y165515D02*
D03*
Y162957D02*
D03*
Y160398D02*
D03*
Y157838D02*
D03*
Y155280D02*
D03*
Y152720D02*
D03*
Y150162D02*
D03*
Y147602D02*
D03*
Y145044D02*
D03*
Y142484D02*
D03*
Y139926D02*
D03*
D28*
X245500Y193965D02*
X267500Y171965D01*
Y163500D02*
Y171965D01*
X264398Y160398D02*
X267500Y163500D01*
X248000Y195000D02*
X270000Y173000D01*
Y162000D02*
Y173000D01*
X265897Y157897D02*
X270000Y162000D01*
X245500Y193965D02*
Y204284D01*
X248000Y195000D02*
Y205320D01*
X250000Y160398D02*
X264398D01*
X250059Y157897D02*
X265897D01*
X260957Y162957D02*
X263500Y165500D01*
X250000Y162957D02*
X260957D01*
X212000Y169500D02*
X221574D01*
X223000Y168075D01*
X116500Y137500D02*
X122500Y143500D01*
X88500Y137500D02*
X116500D01*
X79500Y146500D02*
X88500Y137500D01*
X79500Y164000D02*
X93100Y177600D01*
X79500Y146500D02*
Y164000D01*
X84500Y162500D02*
X103100Y181100D01*
X84500Y148000D02*
Y162500D01*
Y148000D02*
X90000Y142500D01*
X107500Y171500D02*
X129000D01*
X102079Y166079D02*
X107500Y171500D01*
X102079Y153000D02*
Y166079D01*
X129000Y171500D02*
X132500Y175000D01*
X222941Y165456D02*
X223000Y165515D01*
X212957Y165456D02*
X222941D01*
X212000Y164500D02*
X212957Y165456D01*
X256015Y165515D02*
X259000Y168500D01*
X250000Y165515D02*
X256015D01*
X259000Y168500D02*
Y169500D01*
X57000Y196500D02*
X63100Y190400D01*
X20500Y196500D02*
X57000D01*
X12000Y205000D02*
X20500Y196500D01*
X12000Y205000D02*
Y262000D01*
X93100Y177600D02*
Y185000D01*
X103100Y181100D02*
Y185000D01*
X132500Y175000D02*
Y184700D01*
X213000Y279500D02*
X216000Y276500D01*
X203000Y279500D02*
X213000D01*
X201232Y277732D02*
X203000Y279500D01*
X128500Y280000D02*
X144000D01*
X126000Y277500D02*
X128500Y280000D01*
X126000Y257000D02*
Y277500D01*
X146114Y273362D02*
Y277886D01*
X144000Y280000D02*
X146114Y277886D01*
X216000Y237320D02*
Y276500D01*
Y237320D02*
X248000Y205320D01*
X250000Y157838D02*
X250059Y157897D01*
X201232Y273362D02*
Y277732D01*
X209106Y240678D02*
X245500Y204284D01*
X209106Y240678D02*
Y273362D01*
X241756Y152779D02*
X249941D01*
X240500Y154035D02*
X241756Y152779D01*
X240500Y154035D02*
Y202213D01*
X238000Y153000D02*
X240779Y150221D01*
X238000Y153000D02*
Y201178D01*
X240779Y150221D02*
X249941D01*
X193358Y252890D02*
X243000Y203249D01*
Y156535D02*
Y203249D01*
Y156535D02*
X244197Y155339D01*
X249941D02*
X250000Y155280D01*
X244197Y155339D02*
X249941D01*
X185484Y257229D02*
X240500Y202213D01*
X177610Y261567D02*
X238000Y201178D01*
X169736Y265906D02*
X235500Y200142D01*
Y150000D02*
Y200142D01*
Y150000D02*
X237897Y147602D01*
X172107Y260000D02*
X233000Y199107D01*
Y148000D02*
Y199107D01*
Y148000D02*
X236000Y145000D01*
X171071Y257500D02*
X230500Y198071D01*
Y146000D02*
Y198071D01*
Y146000D02*
X234015Y142484D01*
X249941Y152779D02*
X250000Y152720D01*
X193358Y252890D02*
Y273362D01*
X185484Y257229D02*
Y273362D01*
X249941Y150221D02*
X250000Y150162D01*
X177610Y261567D02*
Y273362D01*
X237897Y147602D02*
X250000D01*
X236000Y145000D02*
X249956D01*
X169736Y265906D02*
Y273362D01*
X207000Y148500D02*
Y218036D01*
X170036Y255000D02*
X207000Y218036D01*
X234015Y142484D02*
X250000D01*
X165500Y260000D02*
X172107D01*
X161862Y263638D02*
X165500Y260000D01*
X138240Y260760D02*
X144000Y255000D01*
X138240Y260760D02*
Y273362D01*
X144000Y255000D02*
X170036D01*
X157500Y257500D02*
X171071D01*
X153988Y261012D02*
X157500Y257500D01*
X153988Y261012D02*
Y273362D01*
X161862Y263638D02*
Y273362D01*
X249956Y145000D02*
X250000Y145044D01*
X169000Y252500D02*
X201500Y220000D01*
X130500Y252500D02*
X169000D01*
X126000Y257000D02*
X130500Y252500D01*
X222941Y145103D02*
X223000Y145044D01*
X210398Y145103D02*
X222941D01*
X207000Y148500D02*
X210398Y145103D01*
X207516Y142484D02*
X223000D01*
X201500Y148500D02*
X207516Y142484D01*
X201500Y148500D02*
Y220000D01*
X202075Y139926D02*
X223000D01*
X196000Y146000D02*
X202075Y139926D01*
X196000Y146000D02*
Y156563D01*
X142937D02*
X196000D01*
X133100Y166400D02*
X142937Y156563D01*
X133100Y166400D02*
Y185000D01*
X61000Y129000D02*
X245500D01*
X53100Y136900D02*
X61000Y129000D01*
X53100Y136900D02*
Y185000D01*
X245500Y129000D02*
X250000Y133500D01*
Y139926D01*
X122500Y143500D02*
Y152500D01*
X109000Y142500D02*
X112039Y145539D01*
X90000Y142500D02*
X109000D01*
X112039Y145539D02*
Y153000D01*
X122000D02*
X122500Y152500D01*
X24000Y274000D02*
X80752D01*
X12000Y262000D02*
X24000Y274000D01*
X63100Y185000D02*
Y190400D01*
D29*
X23100Y185000D02*
D03*
D30*
X33100D02*
D03*
X43100D02*
D03*
X53100D02*
D03*
X63100D02*
D03*
X73100D02*
D03*
X83100D02*
D03*
X93100D02*
D03*
X103100D02*
D03*
X113100D02*
D03*
X123100D02*
D03*
X133100D02*
D03*
X143100D02*
D03*
X153100D02*
D03*
X163100D02*
D03*
X23100Y245000D02*
D03*
X33100D02*
D03*
X43100D02*
D03*
X53100D02*
D03*
X63100D02*
D03*
X73100D02*
D03*
X83100D02*
D03*
X93100D02*
D03*
X103100D02*
D03*
X113100D02*
D03*
X123100D02*
D03*
X133100D02*
D03*
X143100D02*
D03*
X153100D02*
D03*
X163100D02*
D03*
D31*
X20500Y289500D02*
D03*
X259000D02*
D03*
X259500Y20000D02*
D03*
X21000D02*
D03*
D32*
X146114Y273362D02*
D03*
X138240D02*
D03*
X177610D02*
D03*
X169736D02*
D03*
X153988D02*
D03*
X161862D02*
D03*
X193358D02*
D03*
X185484D02*
D03*
X201232D02*
D03*
X209106D02*
D03*
D33*
X201842Y86441D02*
D03*
X249342D02*
D03*
D34*
X215500Y114000D02*
D03*
X235185D02*
D03*
X215500Y56913D02*
D03*
X225342D02*
D03*
X235185D02*
D03*
D35*
X92118Y153000D02*
D03*
X102079D02*
D03*
X112039D02*
D03*
X122000D02*
D03*
D36*
X112248Y274000D02*
D03*
X104374D02*
D03*
X96500D02*
D03*
X88626D02*
D03*
X80752D02*
D03*
D37*
X211500Y154000D02*
D03*
X263500Y165500D02*
D03*
X212000Y169500D02*
D03*
Y164500D02*
D03*
X220000Y191500D02*
D03*
X259000Y169500D02*
D03*
D38*
X248500Y183500D02*
D03*
M02*
