G04*
G04 #@! TF.GenerationSoftware,Altium Limited,CircuitMaker,2.2.1 (2.2.1.6)*
G04*
G04 Layer_Physical_Order=2*
G04 Layer_Color=11436288*
%FSLAX25Y25*%
%MOIN*%
G70*
G04*
G04 #@! TF.SameCoordinates,14122C10-9453-4DBA-84BC-A3BC323669C7*
G04*
G04*
G04 #@! TF.FilePolarity,Positive*
G04*
G01*
G75*
%ADD10C,0.01000*%
%ADD25C,0.00800*%
%ADD28C,0.01500*%
%ADD29R,0.07874X0.07874*%
%ADD30C,0.07874*%
%ADD31C,0.20000*%
%ADD32C,0.06000*%
%ADD33C,0.13780*%
%ADD34C,0.07000*%
G04:AMPARAMS|DCode=35|XSize=62.99mil|YSize=94.49mil|CornerRadius=25.2mil|HoleSize=0mil|Usage=FLASHONLY|Rotation=0.000|XOffset=0mil|YOffset=0mil|HoleType=Round|Shape=RoundedRectangle|*
%AMROUNDEDRECTD35*
21,1,0.06299,0.04410,0,0,0.0*
21,1,0.01260,0.09449,0,0,0.0*
1,1,0.05039,0.00630,-0.02205*
1,1,0.05039,-0.00630,-0.02205*
1,1,0.05039,-0.00630,0.02205*
1,1,0.05039,0.00630,0.02205*
%
%ADD35ROUNDEDRECTD35*%
%ADD36C,0.05905*%
%ADD37C,0.03500*%
%ADD38C,0.03000*%
D10*
X259000Y289500D02*
X270000D01*
X259000D02*
Y300500D01*
Y278500D02*
Y289500D01*
X248000D02*
X259000D01*
X220000Y191500D02*
X222750D01*
X220000D02*
Y194250D01*
Y188750D02*
Y191500D01*
X248500Y183500D02*
Y186000D01*
X246000Y183500D02*
X248500D01*
Y181000D02*
Y183500D01*
X235185Y114000D02*
X239685D01*
X235185D02*
Y118500D01*
X230685Y114000D02*
X235185D01*
Y109500D02*
Y114000D01*
X249342Y86441D02*
Y94331D01*
Y86441D02*
X257232D01*
X241453D02*
X249342D01*
Y78551D02*
Y86441D01*
X259500Y20000D02*
X270500D01*
X259500D02*
Y31000D01*
X248500Y20000D02*
X259500D01*
Y9000D02*
Y20000D01*
X225342Y56913D02*
X229842D01*
X225342D02*
Y61413D01*
X220843Y56913D02*
X225342D01*
Y52413D02*
Y56913D01*
X211500Y151250D02*
Y154000D01*
Y156750D01*
X208750Y154000D02*
X211500D01*
X201842Y86441D02*
X209732D01*
X201842Y78551D02*
Y86441D01*
Y94331D01*
X193953Y86441D02*
X201842D01*
X112248Y274000D02*
X116201D01*
X112248Y270047D02*
Y274000D01*
Y277953D01*
X104374Y270047D02*
Y274000D01*
Y277953D01*
X133100Y245000D02*
Y249937D01*
Y240063D02*
Y245000D01*
X96500Y274000D02*
Y277953D01*
Y270047D02*
Y274000D01*
X88626Y270047D02*
Y274000D01*
Y277953D01*
X20500Y289500D02*
Y300500D01*
X9500Y289500D02*
X20500D01*
X31500D01*
X20500Y278500D02*
Y289500D01*
X153100Y185000D02*
Y189937D01*
Y180063D02*
Y185000D01*
X92118Y153000D02*
Y158724D01*
Y153000D02*
X96268D01*
X87968D02*
X92118D01*
Y147276D02*
Y153000D01*
X21000Y20000D02*
X32000D01*
X21000D02*
Y31000D01*
X10000Y20000D02*
X21000D01*
Y9000D02*
Y20000D01*
D25*
X266150Y231071D02*
G03*
X265520Y232591I-2150J0D01*
G01*
X266150Y231071D02*
G03*
X265520Y232591I-2150J0D01*
G01*
X270400Y289500D02*
G03*
X270400Y289500I-11400J0D01*
G01*
X232091Y266020D02*
G03*
X230571Y266650I-1520J-1520D01*
G01*
X232091Y266020D02*
G03*
X230571Y266650I-1520J-1520D01*
G01*
X217650Y238500D02*
G03*
X217020Y240020I-2150J0D01*
G01*
X271650Y171000D02*
G03*
X271020Y172520I-2150J0D01*
G01*
X271650Y171000D02*
G03*
X271020Y172520I-2150J0D01*
G01*
X256850Y171802D02*
G03*
X255999Y168541I2150J-2302D01*
G01*
X262150Y169500D02*
G03*
X262000Y170459I-3150J0D01*
G01*
X263826Y168633D02*
G03*
X261866Y168193I-326J-3133D01*
G01*
X261866D02*
G03*
X262150Y169500I-2866J1307D01*
G01*
X261198Y163350D02*
G03*
X264850Y162654I2302J2150D01*
G01*
X223150Y191500D02*
G03*
X217650Y193598I-3150J0D01*
G01*
Y189402D02*
G03*
X223150Y191500I2350J2098D01*
G01*
X254480Y163980D02*
G03*
X256000Y163350I1520J1520D01*
G01*
X254480Y163980D02*
G03*
X256000Y163350I1520J1520D01*
G01*
X250850Y185199D02*
G03*
X250850Y181801I-2350J-1699D01*
G01*
Y168500D02*
G03*
X251480Y166980I2150J0D01*
G01*
X250850Y168500D02*
G03*
X251480Y166980I2150J0D01*
G01*
X213506Y273362D02*
G03*
X205169Y275327I-4400J0D01*
G01*
D02*
G03*
X197295Y275327I-3937J-1965D01*
G01*
X205169Y271397D02*
G03*
X213506Y273362I3937J1965D01*
G01*
X197295Y271397D02*
G03*
X205169Y271397I3937J1965D01*
G01*
X197295Y275327D02*
G03*
X189421Y275327I-3937J-1965D01*
G01*
Y271397D02*
G03*
X197295Y271397I3937J1965D01*
G01*
X217650Y238500D02*
G03*
X217020Y240020I-2150J0D01*
G01*
X189421Y275327D02*
G03*
X181547Y275327I-3937J-1965D01*
G01*
X181547D02*
G03*
X173673Y275327I-3937J-1965D01*
G01*
X181547Y271397D02*
G03*
X189421Y271397I3937J1965D01*
G01*
X173673D02*
G03*
X181547Y271397I3937J1965D01*
G01*
X173673Y275327D02*
G03*
X165799Y275327I-3937J-1965D01*
G01*
Y271397D02*
G03*
X173673Y271397I3937J1965D01*
G01*
X178020Y231520D02*
G03*
X176500Y232150I-1520J-1520D01*
G01*
X187150Y221500D02*
G03*
X186520Y223020I-2150J0D01*
G01*
X187150Y221500D02*
G03*
X186520Y223020I-2150J0D01*
G01*
X213350Y172346D02*
G03*
X209698Y171650I-1350J-2846D01*
G01*
Y167350D02*
G03*
X210084Y167000I2302J2150D01*
G01*
D02*
G03*
X209698Y166650I1916J-2500D01*
G01*
Y162350D02*
G03*
X213350Y161654I2302J2150D01*
G01*
X207000Y171650D02*
G03*
X205480Y171020I0J-2150D01*
G01*
X207000Y171650D02*
G03*
X205480Y171020I0J-2150D01*
G01*
X196480Y162020D02*
G03*
X195850Y160500I1520J-1520D01*
G01*
X196480Y162020D02*
G03*
X195850Y160500I1520J-1520D01*
G01*
X182150Y218000D02*
G03*
X181520Y219520I-2150J0D01*
G01*
X182150Y218000D02*
G03*
X181520Y219520I-2150J0D01*
G01*
X178020Y231520D02*
G03*
X176500Y232150I-1520J-1520D01*
G01*
X175020Y226020D02*
G03*
X173500Y226650I-1520J-1520D01*
G01*
X175020Y226020D02*
G03*
X173500Y226650I-1520J-1520D01*
G01*
X271020Y116480D02*
G03*
X271650Y118000I-1520J1520D01*
G01*
X271020Y116480D02*
G03*
X271650Y118000I-1520J1520D01*
G01*
X252500Y98850D02*
G03*
X254020Y99480I0J2150D01*
G01*
X252500Y98850D02*
G03*
X254020Y99480I0J2150D01*
G01*
X240085Y114000D02*
G03*
X240085Y114000I-4900J0D01*
G01*
X257632Y86441D02*
G03*
X257632Y86441I-8290J0D01*
G01*
X270900Y20000D02*
G03*
X270900Y20000I-11400J0D01*
G01*
X235056Y52015D02*
G03*
X240085Y56913I129J4898D01*
G01*
D02*
G03*
X231127Y54167I-4900J0D01*
G01*
X230242Y56913D02*
G03*
X230242Y56913I-4900J0D01*
G01*
X229500Y47350D02*
G03*
X231020Y47980I0J2150D01*
G01*
X229500Y47350D02*
G03*
X231020Y47980I0J2150D01*
G01*
X213350Y156550D02*
G03*
X213350Y151451I-1850J-2550D01*
G01*
X220400Y114000D02*
G03*
X217650Y118403I-4900J0D01*
G01*
X213350D02*
G03*
X220400Y114000I2150J-4403D01*
G01*
X195850Y112000D02*
G03*
X196480Y110480I2150J0D01*
G01*
X195850Y112000D02*
G03*
X196480Y110480I2150J0D01*
G01*
X209664Y103376D02*
G03*
X210000Y103350I336J2124D01*
G01*
X209664Y103376D02*
G03*
X210000Y103350I336J2124D01*
G01*
X207480Y99480D02*
G03*
X209000Y98850I1520J1520D01*
G01*
X207480Y99480D02*
G03*
X209000Y98850I1520J1520D01*
G01*
X220400Y56913D02*
G03*
X211097Y59063I-4900J0D01*
G01*
Y54763D02*
G03*
X220400Y56913I4403J2150D01*
G01*
X210132Y86441D02*
G03*
X210132Y86441I-8290J0D01*
G01*
X193456Y55085D02*
G03*
X194587Y54763I1131J1829D01*
G01*
X193456Y55085D02*
G03*
X194587Y54763I1131J1829D01*
G01*
X194480Y47980D02*
G03*
X196000Y47350I1520J1520D01*
G01*
X194480Y47980D02*
G03*
X196000Y47350I1520J1520D01*
G01*
X182850Y66500D02*
G03*
X183171Y65369I2150J0D01*
G01*
X182850Y66500D02*
G03*
X183171Y65369I2150J0D01*
G01*
X177850Y65500D02*
G03*
X178480Y63980I2150J0D01*
G01*
X177850Y65500D02*
G03*
X178480Y63980I2150J0D01*
G01*
X165799Y275327D02*
G03*
X157925Y275327I-3937J-1965D01*
G01*
D02*
G03*
X150051Y275327I-3937J-1965D01*
G01*
X157925Y271397D02*
G03*
X165799Y271397I3937J1965D01*
G01*
X150051D02*
G03*
X157925Y271397I3937J1965D01*
G01*
X150051Y275327D02*
G03*
X142177Y275327I-3937J-1965D01*
G01*
Y271397D02*
G03*
X150051Y271397I3937J1965D01*
G01*
X142177Y275327D02*
G03*
X142177Y271397I-3937J-1965D01*
G01*
X116601Y274000D02*
G03*
X108311Y275856I-4353J0D01*
G01*
X108311D02*
G03*
X100437Y275856I-3937J-1856D01*
G01*
X108311Y272144D02*
G03*
X116601Y274000I3937J1856D01*
G01*
X100437Y272144D02*
G03*
X108311Y272144I3937J1856D01*
G01*
X101980Y252520D02*
G03*
X101350Y251000I1520J-1520D01*
G01*
X101980Y252520D02*
G03*
X101350Y251000I1520J-1520D01*
G01*
X168437Y245000D02*
G03*
X158100Y246866I-5337J0D01*
G01*
D02*
G03*
X148100Y246866I-5000J-1867D01*
G01*
D02*
G03*
X138100Y246866I-5000J-1867D01*
G01*
D02*
G03*
X128100Y246866I-5000J-1867D01*
G01*
X158100Y243133D02*
G03*
X168437Y245000I5000J1867D01*
G01*
X148100Y243133D02*
G03*
X158100Y243133I5000J1867D01*
G01*
X138100D02*
G03*
X148100Y243133I5000J1867D01*
G01*
X128100D02*
G03*
X138100Y243133I5000J1867D01*
G01*
X125250Y240115D02*
G03*
X128100Y243133I-2150J4885D01*
G01*
Y246866D02*
G03*
X118100Y246866I-5000J-1867D01*
G01*
D02*
G03*
X108100Y246866I-5000J-1867D01*
G01*
X118100Y243133D02*
G03*
X120950Y240115I5000J1867D01*
G01*
X115650Y240312D02*
G03*
X118100Y243133I-2550J4688D01*
G01*
X108100Y246866D02*
G03*
X105650Y249688I-5000J-1867D01*
G01*
X108100Y243133D02*
G03*
X111350Y239958I5000J1867D01*
G01*
X98100Y243133D02*
G03*
X108100Y243133I5000J1867D01*
G01*
X120950Y234400D02*
G03*
X121580Y232880I2150J0D01*
G01*
X120950Y234400D02*
G03*
X121580Y232880I2150J0D01*
G01*
X125980Y228480D02*
G03*
X127500Y227850I1520J1520D01*
G01*
X125980Y228480D02*
G03*
X127500Y227850I1520J1520D01*
G01*
X111350Y234500D02*
G03*
X111980Y232980I2150J0D01*
G01*
X111350Y234500D02*
G03*
X111980Y232980I2150J0D01*
G01*
X100437Y275856D02*
G03*
X92563Y275856I-3937J-1856D01*
G01*
D02*
G03*
X84689Y275856I-3937J-1856D01*
G01*
X92563Y272144D02*
G03*
X100437Y272144I3937J1856D01*
G01*
X84689Y272144D02*
G03*
X92563Y272144I3937J1856D01*
G01*
X84689Y275856D02*
G03*
X84689Y272144I-3937J-1856D01*
G01*
X31900Y289500D02*
G03*
X31900Y289500I-11400J0D01*
G01*
X40500Y266650D02*
G03*
X38980Y266020I0J-2150D01*
G01*
X40500Y266650D02*
G03*
X38980Y266020I0J-2150D01*
G01*
X61580Y252920D02*
G03*
X60950Y251400I1520J-1520D01*
G01*
X61580Y252920D02*
G03*
X60950Y251400I1520J-1520D01*
G01*
X101350Y250042D02*
G03*
X98100Y246866I1750J-5042D01*
G01*
D02*
G03*
X88100Y246866I-5000J-1867D01*
G01*
D02*
G03*
X78100Y246866I-5000J-1867D01*
G01*
X88100Y243133D02*
G03*
X98100Y243133I5000J1867D01*
G01*
X78100D02*
G03*
X88100Y243133I5000J1867D01*
G01*
X78100Y246866D02*
G03*
X68100Y246866I-5000J-1867D01*
G01*
D02*
G03*
X65250Y249885I-5000J-1867D01*
G01*
X60950D02*
G03*
X58100Y246866I2150J-4885D01*
G01*
X68100Y243133D02*
G03*
X78100Y243133I5000J1867D01*
G01*
X58100D02*
G03*
X68100Y243133I5000J1867D01*
G01*
X51580Y256120D02*
G03*
X50950Y254600I1520J-1520D01*
G01*
X51580Y256120D02*
G03*
X50950Y254600I1520J-1520D01*
G01*
X41580Y256620D02*
G03*
X40950Y255100I1520J-1520D01*
G01*
X31580Y258620D02*
G03*
X30950Y257100I1520J-1520D01*
G01*
X41580Y256620D02*
G03*
X40950Y255100I1520J-1520D01*
G01*
X31580Y258620D02*
G03*
X30950Y257100I1520J-1520D01*
G01*
X58100Y246866D02*
G03*
X55250Y249885I-5000J-1867D01*
G01*
X50950D02*
G03*
X48100Y246866I2150J-4885D01*
G01*
D02*
G03*
X45250Y249885I-5000J-1867D01*
G01*
X40950D02*
G03*
X38100Y246866I2150J-4885D01*
G01*
X48100Y243133D02*
G03*
X58100Y243133I5000J1867D01*
G01*
X38100D02*
G03*
X48100Y243133I5000J1867D01*
G01*
X38100Y246866D02*
G03*
X35250Y249885I-5000J-1867D01*
G01*
X30950D02*
G03*
X28100Y246866I2150J-4885D01*
G01*
D02*
G03*
X28100Y243133I-5000J-1867D01*
G01*
D02*
G03*
X38100Y243133I5000J1867D01*
G01*
X168437Y185000D02*
G03*
X158100Y186866I-5337J0D01*
G01*
Y183133D02*
G03*
X168437Y185000I5000J1867D01*
G01*
X158100Y186866D02*
G03*
X148100Y186866I-5000J-1867D01*
G01*
Y183133D02*
G03*
X158100Y183133I5000J1867D01*
G01*
X148100Y186866D02*
G03*
X138100Y186866I-5000J-1867D01*
G01*
Y183133D02*
G03*
X148100Y183133I5000J1867D01*
G01*
X121980Y222980D02*
G03*
X123500Y222350I1520J1520D01*
G01*
X121980Y222980D02*
G03*
X123500Y222350I1520J1520D01*
G01*
X128100Y183133D02*
G03*
X138100Y183133I5000J1867D01*
G01*
Y186866D02*
G03*
X128100Y186866I-5000J-1867D01*
G01*
X118100Y183133D02*
G03*
X128100Y183133I5000J1867D01*
G01*
Y186866D02*
G03*
X118100Y186866I-5000J-1867D01*
G01*
X108100Y183133D02*
G03*
X118100Y183133I5000J1867D01*
G01*
Y186866D02*
G03*
X108100Y186866I-5000J-1867D01*
G01*
X126550Y155205D02*
G03*
X122630Y159124I-3920J0D01*
G01*
X121370D02*
G03*
X117450Y155205I0J-3920D01*
G01*
X116589D02*
G03*
X112669Y159124I-3920J0D01*
G01*
X111409D02*
G03*
X107490Y155205I0J-3920D01*
G01*
X117450Y150795D02*
G03*
X121370Y146876I3920J0D01*
G01*
X112669D02*
G03*
X116589Y150795I0J3920D01*
G01*
X122630Y146876D02*
G03*
X126550Y150795I0J3920D01*
G01*
X107490D02*
G03*
X111409Y146876I3920J0D01*
G01*
X108100Y186866D02*
G03*
X98100Y186866I-5000J-1867D01*
G01*
Y183133D02*
G03*
X108100Y183133I5000J1867D01*
G01*
X98100Y186866D02*
G03*
X88100Y186866I-5000J-1867D01*
G01*
Y183133D02*
G03*
X98100Y183133I5000J1867D01*
G01*
X78100D02*
G03*
X88100Y183133I5000J1867D01*
G01*
Y186866D02*
G03*
X78100Y186866I-5000J-1867D01*
G01*
X68100Y183133D02*
G03*
X78100Y183133I5000J1867D01*
G01*
Y186866D02*
G03*
X68100Y186866I-5000J-1867D01*
G01*
X58100Y183133D02*
G03*
X68100Y183133I5000J1867D01*
G01*
Y186866D02*
G03*
X58100Y186866I-5000J-1867D01*
G01*
D02*
G03*
X48100Y186866I-5000J-1867D01*
G01*
Y183133D02*
G03*
X58100Y183133I5000J1867D01*
G01*
X48100Y186866D02*
G03*
X38100Y186866I-5000J-1867D01*
G01*
Y183133D02*
G03*
X48100Y183133I5000J1867D01*
G01*
X38100Y186866D02*
G03*
X28437Y187596I-5000J-1867D01*
G01*
Y182404D02*
G03*
X38100Y183133I4663J2596D01*
G01*
X106628Y155205D02*
G03*
X102709Y159124I-3920J0D01*
G01*
X101449D02*
G03*
X97529Y155205I0J-3920D01*
G01*
X96668D02*
G03*
X92748Y159124I-3920J0D01*
G01*
X91488D02*
G03*
X87568Y155205I0J-3920D01*
G01*
X102709Y146876D02*
G03*
X106628Y150795I0J3920D01*
G01*
X97529D02*
G03*
X101449Y146876I3920J0D01*
G01*
X92748D02*
G03*
X96668Y150795I0J3920D01*
G01*
X87568D02*
G03*
X91488Y146876I3920J0D01*
G01*
X32400Y20000D02*
G03*
X32400Y20000I-11400J0D01*
G01*
X269474Y294000D02*
X277000D01*
X270000Y292493D02*
Y309000D01*
X270389Y290000D02*
X277000D01*
X270123Y292000D02*
X277000D01*
X266597Y298000D02*
X277000D01*
X263440Y300000D02*
X277000D01*
X268365Y296000D02*
X277000D01*
X269849Y286000D02*
X277000D01*
X270301Y288000D02*
X277000D01*
X267585Y282000D02*
X277000D01*
X268986Y284000D02*
X277000D01*
X250112Y248000D02*
X277000D01*
X265302Y280000D02*
X277000D01*
X254112Y244000D02*
X277000D01*
X252112Y246000D02*
X277000D01*
X264000Y299745D02*
Y309000D01*
X262000Y300498D02*
Y309000D01*
X268000Y296497D02*
Y309000D01*
X266000Y298498D02*
Y309000D01*
X260000Y300856D02*
Y309000D01*
X258000Y300856D02*
Y309000D01*
X256000Y300498D02*
Y309000D01*
X254000Y299745D02*
Y309000D01*
X252000Y298498D02*
Y309000D01*
X254000Y244112D02*
Y279255D01*
X250000Y248112D02*
Y282503D01*
Y296497D02*
Y309000D01*
X252000Y246112D02*
Y280502D01*
X264112Y234000D02*
X277000D01*
X270000Y173541D02*
Y286507D01*
X268000Y175541D02*
Y282503D01*
X258112Y240000D02*
X277000D01*
X256112Y242000D02*
X277000D01*
X262112Y236000D02*
X277000D01*
X260112Y238000D02*
X277000D01*
X266150Y228000D02*
X277000D01*
X266150Y230000D02*
X277000D01*
X266150Y224000D02*
X277000D01*
X266150Y226000D02*
X277000D01*
X265939Y232000D02*
X277000D01*
X266150Y177391D02*
Y231071D01*
X262000Y236112D02*
Y278502D01*
X260000Y238112D02*
Y278144D01*
X266000Y231860D02*
Y280502D01*
X264000Y234112D02*
Y279255D01*
X258000Y240112D02*
Y278144D01*
X256000Y242112D02*
Y278502D01*
X250850Y185199D02*
Y230574D01*
X250000Y185982D02*
Y231424D01*
X256850Y171802D02*
Y228109D01*
X255150Y229809D02*
X256850Y228109D01*
X256000Y170460D02*
Y228959D01*
X255150Y169391D02*
Y229809D01*
Y226000D02*
X256850D01*
X255150Y228000D02*
X256850D01*
X255150Y224000D02*
X256850D01*
X248000Y292493D02*
Y309000D01*
X244000Y254112D02*
Y309000D01*
X213460Y274000D02*
X277000D01*
X212628Y276000D02*
X277000D01*
X213290Y272000D02*
X277000D01*
X242000Y256112D02*
Y309000D01*
X238112Y260000D02*
X277000D01*
X236112Y262000D02*
X277000D01*
X242112Y256000D02*
X277000D01*
X240112Y258000D02*
X277000D01*
X232112Y266000D02*
X277000D01*
X211945Y270000D02*
X277000D01*
X234112Y264000D02*
X277000D01*
X236000Y262112D02*
Y309000D01*
X234000Y264112D02*
Y309000D01*
X240000Y258112D02*
Y309000D01*
X238000Y260112D02*
Y309000D01*
X228000Y266650D02*
Y309000D01*
X222000Y266650D02*
Y309000D01*
X232000Y266106D02*
Y309000D01*
X230000Y266650D02*
Y309000D01*
X226000Y266650D02*
Y309000D01*
X224000Y266650D02*
Y309000D01*
X220000Y266650D02*
Y309000D01*
X218000Y266650D02*
Y309000D01*
X202691Y254350D02*
X227074D01*
X246112Y252000D02*
X277000D01*
X246000Y252112D02*
Y309000D01*
X248112Y250000D02*
X277000D01*
X248000Y250112D02*
Y286507D01*
X244112Y254000D02*
X277000D01*
X232091Y266020D02*
X265520Y232591D01*
X227074Y254350D02*
X250850Y230574D01*
X246000Y184970D02*
Y235424D01*
X217650Y232000D02*
X249424D01*
X217650Y234000D02*
X247424D01*
X217650Y230000D02*
X250850D01*
X248000Y186357D02*
Y233424D01*
X217650Y226000D02*
X250850D01*
X217650Y228000D02*
X250850D01*
X217650Y224000D02*
X250850D01*
X211041Y246000D02*
X235424D01*
X220000Y194650D02*
Y254350D01*
X222000Y193934D02*
Y254350D01*
X218000Y193934D02*
Y254350D01*
X205041Y252000D02*
X229424D01*
X203041Y254000D02*
X227424D01*
X209041Y248000D02*
X233424D01*
X207041Y250000D02*
X231424D01*
X217650Y238000D02*
X243424D01*
X217040Y240000D02*
X241424D01*
X217650Y236000D02*
X245424D01*
X217650Y193598D02*
Y238500D01*
X215041Y242000D02*
X239424D01*
X213041Y244000D02*
X237424D01*
X266150Y210000D02*
X277000D01*
X266150Y212000D02*
X277000D01*
X266150Y206000D02*
X277000D01*
X266150Y208000D02*
X277000D01*
X266150Y220000D02*
X277000D01*
X266150Y222000D02*
X277000D01*
X266150Y214000D02*
X277000D01*
X266150Y218000D02*
X277000D01*
X266150Y196000D02*
X277000D01*
X266150Y198000D02*
X277000D01*
X266150Y192000D02*
X277000D01*
X266150Y194000D02*
X277000D01*
X266150Y202000D02*
X277000D01*
X266150Y204000D02*
X277000D01*
X266150Y200000D02*
X277000D01*
X266150Y216000D02*
X277000D01*
X255150Y218000D02*
X256850D01*
X255150Y212000D02*
X256850D01*
X255150Y214000D02*
X256850D01*
X255150Y208000D02*
X256850D01*
X255150Y210000D02*
X256850D01*
X255150Y204000D02*
X256850D01*
X255150Y206000D02*
X256850D01*
X255150Y194000D02*
X256850D01*
X255150Y196000D02*
X256850D01*
X255150Y190000D02*
X256850D01*
X255150Y192000D02*
X256850D01*
X255150Y200000D02*
X256850D01*
X255150Y202000D02*
X256850D01*
X255150Y198000D02*
X256850D01*
X266150Y180000D02*
X277000D01*
X266150Y182000D02*
X277000D01*
X267541Y176000D02*
X277000D01*
X266150Y178000D02*
X277000D01*
X266150Y188000D02*
X277000D01*
X266150Y190000D02*
X277000D01*
X266150Y184000D02*
X277000D01*
X266150Y186000D02*
X277000D01*
X271650Y164000D02*
X277000D01*
X271650Y168000D02*
X277000D01*
X271650Y160000D02*
X277000D01*
X271650Y162000D02*
X277000D01*
X271403Y172000D02*
X277000D01*
X269541Y174000D02*
X277000D01*
X271650Y170000D02*
X277000D01*
X266150Y177391D02*
X271020Y172520D01*
X262000Y170459D02*
X263826Y168633D01*
X255150Y186000D02*
X256850D01*
X255150Y188000D02*
X256850D01*
X255150Y176000D02*
X256850D01*
X262110Y170000D02*
X262459D01*
X271650Y166000D02*
X277000D01*
X256000Y163350D02*
X261198D01*
X255150Y220000D02*
X256850D01*
X255150Y222000D02*
X256850D01*
X255150Y216000D02*
X256850D01*
X217650Y214000D02*
X250850D01*
X217650Y220000D02*
X250850D01*
X217650Y222000D02*
X250850D01*
X217650Y216000D02*
X250850D01*
X217650Y218000D02*
X250850D01*
X217650Y204000D02*
X250850D01*
X217650Y206000D02*
X250850D01*
X217650Y200000D02*
X250850D01*
X217650Y202000D02*
X250850D01*
X217650Y210000D02*
X250850D01*
X217650Y212000D02*
X250850D01*
X217650Y208000D02*
X250850D01*
X223110Y192000D02*
X250850D01*
X221916Y194000D02*
X250850D01*
X217650Y196000D02*
X250850D01*
X217650Y198000D02*
X250850D01*
X217650Y194000D02*
X218084D01*
X222770Y190000D02*
X250850D01*
X249970Y186000D02*
X250850D01*
X217650Y188000D02*
X250850D01*
X217650Y186000D02*
X247030D01*
X217650Y184000D02*
X245643D01*
X255150Y172000D02*
X256850D01*
X255150Y174000D02*
X256850D01*
X255150Y169391D02*
X255999Y168541D01*
X255150Y170000D02*
X255890D01*
X255150Y182000D02*
X256850D01*
X255150Y184000D02*
X256850D01*
X255150Y178000D02*
X256850D01*
X255150Y180000D02*
X256850D01*
X251480Y166980D02*
X254480Y163980D01*
X217650Y166000D02*
X252459D01*
X217650Y162000D02*
X264850D01*
X217650Y164000D02*
X254459D01*
X217650Y160000D02*
X264850D01*
X250850Y168500D02*
Y181801D01*
X217650Y182000D02*
X246018D01*
X217650Y178000D02*
X250850D01*
X217650Y180000D02*
X250850D01*
X217650Y174000D02*
X250850D01*
X217650Y176000D02*
X250850D01*
X217650Y170000D02*
X250850D01*
X217650Y172000D02*
X250850D01*
X217650Y168000D02*
X250909D01*
X210000Y277671D02*
Y309000D01*
X208000Y277621D02*
Y309000D01*
X216000Y266650D02*
Y309000D01*
X212000Y276677D02*
Y309000D01*
X206000Y276478D02*
Y309000D01*
X204000Y276783D02*
Y309000D01*
X206000Y266650D02*
Y270246D01*
X212000Y266650D02*
Y270048D01*
X210000Y266650D02*
Y269054D01*
X204070Y270000D02*
X206268D01*
X204754Y276000D02*
X205585D01*
X204000Y266650D02*
Y269942D01*
X202000Y277695D02*
Y309000D01*
X200000Y277586D02*
Y309000D01*
X198000Y276348D02*
Y309000D01*
X196000Y276881D02*
Y309000D01*
X194000Y277715D02*
Y309000D01*
X192000Y277547D02*
Y309000D01*
X190000Y276205D02*
Y309000D01*
X188000Y276972D02*
Y309000D01*
X196880Y276000D02*
X197711D01*
X196196Y270000D02*
X198394D01*
X188322D02*
X190520D01*
X189006Y276000D02*
X189837D01*
X188000Y266650D02*
Y269752D01*
X214000Y266650D02*
Y309000D01*
X212000Y245041D02*
Y254350D01*
X216000Y241041D02*
Y254350D01*
X214000Y243041D02*
Y254350D01*
X208000Y249041D02*
Y254350D01*
Y266650D02*
Y269104D01*
X202691Y254350D02*
X217020Y240020D01*
X210000Y247041D02*
Y254350D01*
X212000Y172650D02*
Y238959D01*
X213350Y172346D02*
Y237609D01*
X210000Y171934D02*
Y240959D01*
X199109Y251850D02*
X213350Y237609D01*
X208000Y171650D02*
Y242959D01*
X206000Y171403D02*
Y244959D01*
X200000Y266650D02*
Y269138D01*
X198000Y266650D02*
Y270377D01*
X206000Y251041D02*
Y254350D01*
X202000Y266650D02*
Y269030D01*
X192000Y266650D02*
Y269177D01*
X190000Y266650D02*
Y270519D01*
X196000Y266650D02*
Y269844D01*
X194000Y266650D02*
Y269009D01*
X204000Y169541D02*
Y246959D01*
Y253041D02*
Y254350D01*
X202000Y167541D02*
Y248959D01*
X200000Y165541D02*
Y250959D01*
X198000Y163541D02*
Y251850D01*
X186000Y223541D02*
Y251850D01*
X196000Y161289D02*
Y251850D01*
X186000Y277732D02*
Y309000D01*
X184000Y277504D02*
Y309000D01*
X182000Y276049D02*
Y309000D01*
X180000Y277057D02*
Y309000D01*
X178000Y277745D02*
Y309000D01*
X181132Y276000D02*
X181963D01*
X180448Y270000D02*
X182646D01*
X186000Y266650D02*
Y268992D01*
X184000Y266650D02*
Y269220D01*
X178000Y266650D02*
Y268980D01*
X180000Y266650D02*
Y269668D01*
X176000Y277457D02*
Y309000D01*
X170000Y277754D02*
Y309000D01*
X174000Y275877D02*
Y309000D01*
X172000Y277135D02*
Y309000D01*
X168000Y277405D02*
Y309000D01*
X162000Y277760D02*
Y309000D01*
X166000Y275686D02*
Y309000D01*
X164000Y277208D02*
Y309000D01*
X173258Y276000D02*
X174089D01*
X172574Y270000D02*
X174772D01*
X174000Y266650D02*
Y270847D01*
X164700Y270000D02*
X166898D01*
X165384Y276000D02*
X166215D01*
X182000Y266650D02*
Y270675D01*
X180000Y229541D02*
Y251850D01*
X184000Y225541D02*
Y251850D01*
X182000Y227541D02*
Y251850D01*
X176000Y266650D02*
Y269267D01*
X174000Y232150D02*
Y251850D01*
X178000Y231540D02*
Y251850D01*
X176000Y232150D02*
Y251850D01*
X168342Y246000D02*
X204959D01*
X167514Y248000D02*
X202959D01*
X168342Y244000D02*
X206959D01*
X167514Y242000D02*
X208959D01*
X164966Y250000D02*
X200959D01*
X164966Y240000D02*
X210959D01*
X172000Y266650D02*
Y269589D01*
X170000Y266650D02*
Y268970D01*
X168000Y247115D02*
Y251850D01*
Y266650D02*
Y269319D01*
X166000Y266650D02*
Y271038D01*
X164000Y266650D02*
Y269516D01*
Y250261D02*
Y251850D01*
X162000Y266650D02*
Y268964D01*
X168000Y232150D02*
Y242885D01*
X166000Y249480D02*
Y251850D01*
X172000Y232150D02*
Y251850D01*
X170000Y232150D02*
Y251850D01*
X164000Y232150D02*
Y239739D01*
X162000Y232150D02*
Y239778D01*
X166000Y232150D02*
Y240520D01*
X187150Y216000D02*
X213350D01*
X187150Y218000D02*
X213350D01*
X187150Y212000D02*
X213350D01*
X187150Y214000D02*
X213350D01*
X185541Y224000D02*
X213350D01*
X183541Y226000D02*
X213350D01*
X187150Y220000D02*
X213350D01*
X187091Y222000D02*
X213350D01*
X187150Y196000D02*
X213350D01*
X187150Y204000D02*
X213350D01*
X187150Y192000D02*
X213350D01*
X187150Y194000D02*
X213350D01*
X187150Y208000D02*
X213350D01*
X187150Y210000D02*
X213350D01*
X187150Y206000D02*
X213350D01*
X187150Y202000D02*
X213350D01*
X182150Y218000D02*
X182850D01*
X182150Y210000D02*
X182850D01*
X182150Y216000D02*
X182850D01*
X182150Y202000D02*
X182850D01*
X182150Y208000D02*
X182850D01*
X187150Y198000D02*
X213350D01*
X187150Y200000D02*
X213350D01*
X187150Y184000D02*
X213350D01*
X187150Y190000D02*
X213350D01*
X187150Y188000D02*
X213350D01*
X182150Y200000D02*
X182850D01*
X187150Y186000D02*
X213350D01*
X187150Y178000D02*
X213350D01*
X187150Y180000D02*
X213350D01*
X187150Y176000D02*
X213350D01*
X187150Y182000D02*
X213350D01*
X187150Y174000D02*
X213350D01*
X187150Y172000D02*
X210084D01*
X207891Y167350D02*
X209698D01*
X207891Y162350D02*
X209698D01*
X205541Y160000D02*
X213350D01*
X207541Y162000D02*
X210084D01*
X203541Y158000D02*
X213350D01*
X207000Y171650D02*
X209698D01*
X208000Y166650D02*
Y167350D01*
X207191Y166650D02*
X207891Y167350D01*
X187150Y170000D02*
X204459D01*
X196480Y162020D02*
X205480Y171020D01*
X187150Y168000D02*
X202459D01*
X207191Y166650D02*
X209698D01*
X187150Y166000D02*
X200459D01*
X187150Y164000D02*
X198459D01*
X187150Y162000D02*
X196460D01*
X187150Y160000D02*
X195850D01*
X181541Y228000D02*
X213350D01*
X179541Y230000D02*
X213350D01*
X182000Y218789D02*
Y221459D01*
X179041Y222000D02*
X181459D01*
X177289Y232000D02*
X213350D01*
X178020Y231520D02*
X186520Y223020D01*
X175609Y227850D02*
X182850Y220609D01*
X175020Y226020D02*
X181520Y219520D01*
X182150Y212000D02*
X182850D01*
X182150Y214000D02*
X182850D01*
X182150Y204000D02*
X182850D01*
X182150Y206000D02*
X182850D01*
X181041Y220000D02*
X182850D01*
X172000Y226650D02*
Y227850D01*
X176000Y225041D02*
Y227459D01*
X174000Y226591D02*
Y227850D01*
X166000Y226650D02*
Y227850D01*
X164000Y226650D02*
Y227850D01*
X170000Y226650D02*
Y227850D01*
X168000Y226650D02*
Y227850D01*
X177041Y224000D02*
X179459D01*
X175041Y226000D02*
X177459D01*
X180000Y221041D02*
Y223459D01*
X178000Y223041D02*
Y225459D01*
X172609Y222350D02*
X177850Y217109D01*
X182150Y188000D02*
X182850D01*
X182150Y190000D02*
X182850D01*
X182150Y184000D02*
X182850D01*
X182150Y186000D02*
X182850D01*
X182150Y196000D02*
X182850D01*
X182150Y198000D02*
X182850D01*
X182150Y192000D02*
X182850D01*
X182150Y194000D02*
X182850D01*
X182150Y170000D02*
X182850D01*
X182150Y172000D02*
X182850D01*
X182150Y166000D02*
X182850D01*
X182150Y168000D02*
X182850D01*
X182150Y180000D02*
X182850D01*
X182150Y182000D02*
X182850D01*
X182150Y174000D02*
X182850D01*
X167514Y188000D02*
X177850D01*
X168000Y187115D02*
Y222350D01*
X168342Y184000D02*
X177850D01*
X168342Y186000D02*
X177850D01*
X164000Y190261D02*
Y222350D01*
X162000Y190222D02*
Y222350D01*
X164966Y190000D02*
X177850D01*
X166000Y189480D02*
Y222350D01*
X182150Y176000D02*
X182850D01*
X182150Y178000D02*
X182850D01*
X182150Y160000D02*
X182850D01*
X182150Y164000D02*
X182850D01*
X164966Y180000D02*
X177850D01*
X167514Y182000D02*
X177850D01*
X182150Y162000D02*
X182850D01*
X271650Y148000D02*
X277000D01*
X271650Y150000D02*
X277000D01*
X271650Y144000D02*
X277000D01*
X271650Y146000D02*
X277000D01*
X271650Y156000D02*
X277000D01*
X271650Y158000D02*
X277000D01*
X271650Y152000D02*
X277000D01*
X271650Y154000D02*
X277000D01*
X271650Y132000D02*
X277000D01*
X271650Y134000D02*
X277000D01*
X271650Y128000D02*
X277000D01*
X271650Y130000D02*
X277000D01*
X271650Y140000D02*
X277000D01*
X271650Y142000D02*
X277000D01*
X271650Y136000D02*
X277000D01*
X271650Y138000D02*
X277000D01*
X271650Y124000D02*
X277000D01*
X271650Y126000D02*
X277000D01*
X271650Y118000D02*
Y171000D01*
X264850Y121391D02*
Y162654D01*
X264000Y120541D02*
Y162390D01*
X262000Y118541D02*
Y162730D01*
X260000Y116541D02*
Y163350D01*
X258000Y114541D02*
Y163350D01*
X271650Y120000D02*
X277000D01*
X271650Y122000D02*
X277000D01*
X271650Y118000D02*
X277000D01*
X270541Y116000D02*
X277000D01*
X268541Y114000D02*
X277000D01*
X274000Y2000D02*
Y309000D01*
X272000Y2000D02*
Y309000D01*
X277000Y2000D02*
Y309000D01*
X276000Y2000D02*
Y309000D01*
X266541Y112000D02*
X277000D01*
X254020Y99480D02*
X271020Y116480D01*
X270000Y24440D02*
Y115459D01*
X268000Y27597D02*
Y113459D01*
X262541Y108000D02*
X277000D01*
X264541Y110000D02*
X277000D01*
X260541Y106000D02*
X277000D01*
X266000Y29365D02*
Y111459D01*
X256541Y102000D02*
X277000D01*
X258541Y104000D02*
X277000D01*
X254541Y100000D02*
X277000D01*
X256000Y112541D02*
Y163350D01*
X254000Y110541D02*
Y164459D01*
X264000Y30474D02*
Y109459D01*
X252000Y108541D02*
Y166459D01*
X248000Y107650D02*
Y180643D01*
X246000Y107650D02*
Y182030D01*
X251109Y107650D02*
X264850Y121391D01*
X250000Y107650D02*
Y181018D01*
X260000Y31389D02*
Y105459D01*
X256000Y91380D02*
Y101459D01*
X262000Y31122D02*
Y107459D01*
X258000Y31301D02*
Y103459D01*
X254000Y93299D02*
Y99460D01*
X217650Y148000D02*
X264850D01*
X217650Y150000D02*
X264850D01*
X217650Y144000D02*
X264850D01*
X217650Y146000D02*
X264850D01*
X217650Y156000D02*
X264850D01*
X217650Y158000D02*
X264850D01*
X217650Y152000D02*
X264850D01*
X217650Y154000D02*
X264850D01*
X217650Y134000D02*
X264850D01*
X217650Y136000D02*
X264850D01*
X217650Y130000D02*
X264850D01*
X217650Y132000D02*
X264850D01*
X217650Y140000D02*
X264850D01*
X217650Y142000D02*
X264850D01*
X217650Y138000D02*
X264850D01*
X236000Y118832D02*
Y245424D01*
X234000Y118754D02*
Y247424D01*
X240000Y114909D02*
Y241424D01*
X238000Y118011D02*
Y243424D01*
X217650Y126000D02*
X264850D01*
X217650Y128000D02*
X264850D01*
X217650Y124000D02*
X264850D01*
X232000Y117724D02*
Y249424D01*
X238015Y118000D02*
X261459D01*
X239658Y116000D02*
X259459D01*
X240085Y114000D02*
X257459D01*
X219973Y116000D02*
X230712D01*
X217650Y122000D02*
X264850D01*
X217650Y120000D02*
X263459D01*
X218330Y118000D02*
X232355D01*
X239658Y112000D02*
X255459D01*
X240000Y107650D02*
Y113091D01*
X244000Y107650D02*
Y237424D01*
X242000Y107650D02*
Y239424D01*
X238015Y110000D02*
X253459D01*
X238000Y107650D02*
Y109989D01*
X210891Y107650D02*
X251109D01*
X236000D02*
Y109168D01*
X240000Y57822D02*
Y98850D01*
X236000Y61745D02*
Y98850D01*
X210000Y103350D02*
X251809D01*
X210541Y108000D02*
X251459D01*
X209891Y103150D02*
X251609D01*
X230000Y107650D02*
Y251424D01*
X224000Y107650D02*
Y254350D01*
X222000Y107650D02*
Y189066D01*
X228000Y107650D02*
Y253424D01*
X226000Y107650D02*
Y254350D01*
X234000Y107650D02*
Y109246D01*
X232000Y107650D02*
Y110276D01*
X234000Y61668D02*
Y98850D01*
X224000Y61626D02*
Y98850D01*
X219973Y112000D02*
X230712D01*
X220400Y114000D02*
X230285D01*
X218330Y110000D02*
X232355D01*
X257484Y88000D02*
X277000D01*
X256829Y90000D02*
X277000D01*
X257265Y84000D02*
X277000D01*
X257621Y86000D02*
X277000D01*
X255492Y92000D02*
X277000D01*
X252746Y94000D02*
X277000D01*
X256342Y82000D02*
X277000D01*
X239999Y56000D02*
X277000D01*
X254561Y80000D02*
X277000D01*
X267622Y28000D02*
X277000D01*
X264974Y30000D02*
X277000D01*
X239963Y58000D02*
X277000D01*
X238991Y60000D02*
X277000D01*
X239125Y54000D02*
X277000D01*
X250000Y94705D02*
Y98850D01*
X248000Y94621D02*
Y98850D01*
X252000Y94293D02*
Y98850D01*
X246000Y94027D02*
Y98850D01*
X244000Y92779D02*
Y98850D01*
X242000Y90289D02*
Y98850D01*
X238000Y60924D02*
Y98850D01*
X256000Y30849D02*
Y81502D01*
X254000Y29985D02*
Y79583D01*
X252000Y28585D02*
Y78589D01*
X250000Y26302D02*
Y78177D01*
X270723Y22000D02*
X277000D01*
X270175Y24000D02*
X277000D01*
X270723Y18000D02*
X277000D01*
X270900Y20000D02*
X277000D01*
X269193Y26000D02*
X277000D01*
X270175Y16000D02*
X277000D01*
X267622Y12000D02*
X277000D01*
X269193Y14000D02*
X277000D01*
X270000Y2000D02*
Y15560D01*
X268000Y2000D02*
Y12403D01*
X264974Y10000D02*
X277000D01*
X266000Y2000D02*
Y10635D01*
X264000Y2000D02*
Y9526D01*
X248000Y2000D02*
Y78261D01*
X242000Y2000D02*
Y82593D01*
X240000Y2000D02*
Y56004D01*
X246000Y2000D02*
Y78855D01*
X244000Y2000D02*
Y80102D01*
X258000Y2000D02*
Y8699D01*
X256000Y2000D02*
Y9151D01*
X262000Y2000D02*
Y8878D01*
X260000Y2000D02*
Y8611D01*
X252000Y2000D02*
Y11415D01*
X250000Y2000D02*
Y13698D01*
X254000Y2000D02*
Y10014D01*
X209000Y98850D02*
X252500D01*
X205246Y94000D02*
X245939D01*
X207061Y80000D02*
X244124D01*
X207992Y92000D02*
X243193D01*
X187150Y96000D02*
X277000D01*
X187150Y98000D02*
X277000D01*
X187150Y76000D02*
X277000D01*
X187150Y78000D02*
X277000D01*
X188541Y66000D02*
X277000D01*
X187150Y68000D02*
X277000D01*
X192541Y62000D02*
X277000D01*
X190541Y64000D02*
X277000D01*
X187150Y72000D02*
X277000D01*
X187150Y74000D02*
X277000D01*
X187150Y70000D02*
X277000D01*
X228000Y61030D02*
Y98850D01*
X226000Y61769D02*
Y98850D01*
X232000Y60637D02*
Y98850D01*
X230000Y58436D02*
Y98850D01*
X209329Y90000D02*
X241856D01*
X209984Y88000D02*
X241201D01*
X210121Y86000D02*
X241065D01*
X222000Y60496D02*
Y98850D01*
X229148Y60000D02*
X231379D01*
X208842Y82000D02*
X242343D01*
X209765Y84000D02*
X241420D01*
X219306Y60000D02*
X221537D01*
X231020Y47980D02*
X235056Y52015D01*
X238000Y2000D02*
Y52903D01*
X236000Y2000D02*
Y52082D01*
X229282Y54000D02*
X230959D01*
X228609Y51650D02*
X231127Y54167D01*
X233041Y50000D02*
X277000D01*
X235041Y52000D02*
X277000D01*
X234000Y2000D02*
Y50959D01*
X232000Y2000D02*
Y48959D01*
X231041Y48000D02*
X277000D01*
X230000Y53041D02*
Y55391D01*
X228000Y51650D02*
Y52797D01*
X226000Y51650D02*
Y52058D01*
X196541Y52000D02*
X228959D01*
X219440Y54000D02*
X221403D01*
X224000Y51650D02*
Y52201D01*
X222000Y51650D02*
Y53330D01*
X226000Y2000D02*
Y47350D01*
X224000Y2000D02*
Y47350D01*
X230000Y2000D02*
Y47409D01*
X228000Y2000D02*
Y47350D01*
X196000D02*
X229500D01*
X196891Y51650D02*
X228609D01*
X222000Y2000D02*
Y47350D01*
X213350Y156550D02*
Y161654D01*
X217650Y118403D02*
Y189402D01*
X213350Y118403D02*
Y151451D01*
X203150Y148000D02*
X213350D01*
X203150Y150000D02*
X213350D01*
X203150Y144000D02*
X213350D01*
X203150Y146000D02*
X213350D01*
X203150Y124000D02*
X213350D01*
X203150Y126000D02*
X213350D01*
X203150Y120000D02*
X213350D01*
X203150Y122000D02*
X213350D01*
X203150Y140000D02*
X213350D01*
X203150Y142000D02*
X213350D01*
X203150Y136000D02*
X213350D01*
X203150Y138000D02*
X213350D01*
X212000Y157110D02*
Y161350D01*
X210000Y156770D02*
Y162066D01*
X203150Y157609D02*
X207891Y162350D01*
X187150Y158000D02*
X195850D01*
X203150Y156000D02*
X209066D01*
X203150Y152000D02*
X209066D01*
X203150Y154000D02*
X208350D01*
X203150Y130000D02*
X213350D01*
X203150Y134000D02*
X213350D01*
X203150Y132000D02*
X213350D01*
X187150Y148000D02*
X195850D01*
X203150Y128000D02*
X213350D01*
X218000Y118214D02*
Y189066D01*
X212000Y117429D02*
Y150890D01*
X220000Y115939D02*
Y188350D01*
X203150Y118000D02*
X212670D01*
X203150Y116000D02*
X211027D01*
X203150Y115391D02*
X210891Y107650D01*
X216000D02*
Y109126D01*
X214000Y107650D02*
Y109335D01*
X220000Y107650D02*
Y112061D01*
X218000Y107650D02*
Y109786D01*
X208541Y110000D02*
X212670D01*
X206541Y112000D02*
X211027D01*
X212000Y107650D02*
Y110571D01*
X206000Y112541D02*
Y160459D01*
X204000Y114541D02*
Y158459D01*
X208000Y110541D02*
Y162350D01*
X195850Y112000D02*
Y160500D01*
X194000Y89127D02*
Y251850D01*
X188000Y66541D02*
Y251850D01*
X192000Y62541D02*
Y251850D01*
X190000Y64541D02*
Y251850D01*
X204541Y114000D02*
X210600D01*
X203150Y115391D02*
Y157609D01*
X210000Y108541D02*
Y151230D01*
X196480Y110480D02*
X207480Y99480D01*
X196000Y92322D02*
Y111211D01*
X187150Y154000D02*
X195850D01*
X187150Y156000D02*
X195850D01*
X187150Y150000D02*
X195850D01*
X187150Y152000D02*
X195850D01*
X187150Y146000D02*
X195850D01*
X182150Y150000D02*
X182850D01*
X187150Y142000D02*
X195850D01*
X187150Y144000D02*
X195850D01*
X187150Y132000D02*
X195850D01*
X187150Y134000D02*
X195850D01*
X187150Y128000D02*
X195850D01*
X187150Y130000D02*
X195850D01*
X187150Y138000D02*
X195850D01*
X187150Y140000D02*
X195850D01*
X187150Y136000D02*
X195850D01*
X182150Y146000D02*
X182850D01*
X182150Y148000D02*
X182850D01*
X182150Y142000D02*
X182850D01*
X182150Y144000D02*
X182850D01*
X182150Y156000D02*
X182850D01*
X182150Y158000D02*
X182850D01*
X182150Y152000D02*
X182850D01*
X182150Y154000D02*
X182850D01*
X182150Y132000D02*
X182850D01*
X182150Y134000D02*
X182850D01*
X182150Y128000D02*
X182850D01*
X182150Y130000D02*
X182850D01*
X182150Y138000D02*
X182850D01*
X182150Y140000D02*
X182850D01*
X182150Y136000D02*
X182850D01*
X187150Y124000D02*
X195850D01*
X187150Y126000D02*
X195850D01*
X187150Y122000D02*
X195850D01*
X187150Y67391D02*
Y221500D01*
X182150Y124000D02*
X182850D01*
X182150Y126000D02*
X182850D01*
X187150Y120000D02*
X195850D01*
X182150Y122000D02*
X182850D01*
X187150Y116000D02*
X195850D01*
X187150Y118000D02*
X195850D01*
X187150Y110000D02*
X196959D01*
X187150Y114000D02*
X195850D01*
X182150Y116000D02*
X182850D01*
X182150Y118000D02*
X182850D01*
X187150Y112000D02*
X195850D01*
X182850Y66500D02*
Y220609D01*
X182150Y66391D02*
Y218000D01*
X177850Y65500D02*
Y217109D01*
X176000Y2000D02*
Y218959D01*
X170000Y2000D02*
Y222350D01*
X168000Y2000D02*
Y182885D01*
X174000Y2000D02*
Y220959D01*
X172000Y2000D02*
Y222350D01*
X182150Y114000D02*
X182850D01*
X182150Y120000D02*
X182850D01*
X182150Y110000D02*
X182850D01*
X182150Y112000D02*
X182850D01*
X164000Y2000D02*
Y179739D01*
X162000Y2000D02*
Y179778D01*
X166000Y2000D02*
Y180520D01*
X216000Y61788D02*
Y98850D01*
X218000Y61128D02*
Y98850D01*
X212000Y60343D02*
Y98850D01*
X209664Y103376D02*
X209891Y103150D01*
X214000Y61578D02*
Y98850D01*
X210000Y87916D02*
Y98850D01*
X220000Y58852D02*
Y98850D01*
X210000Y59063D02*
Y84966D01*
X194541Y60000D02*
X211694D01*
X195477Y59063D02*
X211097D01*
X204000Y94445D02*
Y102959D01*
X202000Y94729D02*
Y104959D01*
X208000Y91991D02*
Y99097D01*
X206000Y93613D02*
Y100959D01*
X200000Y94523D02*
Y106959D01*
X198000Y93786D02*
Y108959D01*
X204000Y59063D02*
Y78437D01*
X202000Y59063D02*
Y78153D01*
X208000Y59063D02*
Y80891D01*
X206000Y59063D02*
Y79269D01*
X198000Y59063D02*
Y79096D01*
X196000Y59063D02*
Y80560D01*
X200000Y59063D02*
Y78359D01*
X214000Y51650D02*
Y52249D01*
X212000Y51650D02*
Y53484D01*
X220000Y51650D02*
Y54974D01*
X218000Y51650D02*
Y52699D01*
X194587Y54763D02*
X211097D01*
X194541Y54000D02*
X211560D01*
X220000Y2000D02*
Y47350D01*
X216000Y51650D02*
Y52039D01*
X218000Y2000D02*
Y47350D01*
X216000Y2000D02*
Y47350D01*
X212000Y2000D02*
Y47350D01*
X210000Y2000D02*
Y47350D01*
X214000Y2000D02*
Y47350D01*
X206000Y51650D02*
Y54763D01*
X204000Y51650D02*
Y54763D01*
X210000Y51650D02*
Y54763D01*
X208000Y51650D02*
Y54763D01*
X198000Y51650D02*
Y54763D01*
X196000Y52541D02*
Y54763D01*
X202000Y51650D02*
Y54763D01*
X200000Y51650D02*
Y54763D01*
X204000Y2000D02*
Y47350D01*
X202000Y2000D02*
Y47350D01*
X208000Y2000D02*
Y47350D01*
X206000Y2000D02*
Y47350D01*
X198000Y2000D02*
Y47350D01*
X196000Y2000D02*
Y47350D01*
X200000Y2000D02*
Y47350D01*
X187150Y106000D02*
X200959D01*
X187150Y108000D02*
X198959D01*
X187150Y104000D02*
X202959D01*
X187150Y100000D02*
X206959D01*
X187150Y102000D02*
X204959D01*
X187150Y94000D02*
X198440D01*
X187150Y92000D02*
X195693D01*
X187150Y90000D02*
X194356D01*
X187150Y88000D02*
X193701D01*
X187150Y86000D02*
X193564D01*
X187150Y82000D02*
X194843D01*
X187150Y84000D02*
X193920D01*
X187150Y80000D02*
X196624D01*
X182150Y98000D02*
X182850D01*
X182150Y100000D02*
X182850D01*
X182150Y94000D02*
X182850D01*
X182150Y96000D02*
X182850D01*
X182150Y106000D02*
X182850D01*
X182150Y108000D02*
X182850D01*
X182150Y102000D02*
X182850D01*
X182150Y104000D02*
X182850D01*
X182150Y84000D02*
X182850D01*
X182150Y86000D02*
X182850D01*
X182150Y80000D02*
X182850D01*
X182150Y82000D02*
X182850D01*
X182150Y90000D02*
X182850D01*
X182150Y92000D02*
X182850D01*
X182150Y88000D02*
X182850D01*
X194000Y60541D02*
Y83755D01*
X193456Y55085D02*
X196891Y51650D01*
X187150Y67391D02*
X195477Y59063D01*
X178480Y63980D02*
X194480Y47980D01*
X186000Y2000D02*
Y56459D01*
X184000Y2000D02*
Y58459D01*
X194000Y54541D02*
Y54845D01*
Y2000D02*
Y48459D01*
X190000Y2000D02*
Y52459D01*
X188000Y2000D02*
Y54459D01*
X192000Y2000D02*
Y50459D01*
X182150Y68000D02*
X182850D01*
X182150Y70000D02*
X182850D01*
X182150Y76000D02*
X182850D01*
X182150Y78000D02*
X182850D01*
X182150Y72000D02*
X182850D01*
X182150Y74000D02*
X182850D01*
X182150Y66391D02*
X183171Y65369D01*
X182541Y66000D02*
X182909D01*
X182000Y2000D02*
Y60459D01*
X180000Y2000D02*
Y62459D01*
X178000Y2000D02*
Y64711D01*
X160000Y277349D02*
Y309000D01*
X157510Y276000D02*
X158341D01*
X158000Y275470D02*
Y309000D01*
X154000Y277762D02*
Y309000D01*
X152000Y277287D02*
Y309000D01*
X156000Y277275D02*
Y309000D01*
X156826Y270000D02*
X159024D01*
X160000Y266650D02*
Y269376D01*
X158000Y266650D02*
Y271254D01*
X148952Y270000D02*
X151150D01*
X149636Y276000D02*
X150467D01*
X152000Y266650D02*
Y269437D01*
X148000Y277338D02*
Y309000D01*
X146000Y277761D02*
Y309000D01*
X150000Y275426D02*
Y309000D01*
X144000Y277221D02*
Y309000D01*
X140000Y277395D02*
Y309000D01*
X136000Y277149D02*
Y309000D01*
X142000Y275648D02*
Y309000D01*
X134000Y274537D02*
Y309000D01*
X141762Y276000D02*
X142593D01*
X148000Y266650D02*
Y269387D01*
X141078Y270000D02*
X143276D01*
X138000Y277756D02*
Y309000D01*
X150000Y266650D02*
Y271298D01*
X146000Y266650D02*
Y268964D01*
X156000Y266650D02*
Y269449D01*
X154000Y266650D02*
Y268962D01*
X140000Y266650D02*
Y269330D01*
X138000Y266650D02*
Y268969D01*
X144000Y266650D02*
Y269503D01*
X142000Y266650D02*
Y271077D01*
X156000Y249480D02*
Y251850D01*
X154000Y250261D02*
Y251850D01*
X150000Y249344D02*
Y251850D01*
X148000Y247115D02*
Y251850D01*
X144000Y250261D02*
Y251850D01*
X142000Y250222D02*
Y251850D01*
X146000Y249480D02*
Y251850D01*
X128000Y266650D02*
Y309000D01*
X126000Y266650D02*
Y309000D01*
X132000Y266650D02*
Y309000D01*
X130000Y266650D02*
Y309000D01*
X120000Y266650D02*
Y309000D01*
X118000Y266650D02*
Y309000D01*
X124000Y266650D02*
Y309000D01*
X122000Y266650D02*
Y309000D01*
X136000Y266650D02*
Y269575D01*
X134000Y266650D02*
Y272187D01*
X138000Y247115D02*
Y251850D01*
X136000Y249480D02*
Y251850D01*
X124000Y250261D02*
Y251850D01*
X122000Y250222D02*
Y251850D01*
X118000Y247115D02*
Y251850D01*
X2000Y302000D02*
X277000D01*
X24940Y300000D02*
X254560D01*
X28097Y298000D02*
X251403D01*
X29865Y296000D02*
X249635D01*
X2000Y308000D02*
X277000D01*
X2000Y309000D02*
X277000D01*
X2000Y304000D02*
X277000D01*
X2000Y306000D02*
X277000D01*
X30974Y294000D02*
X248526D01*
X31622Y292000D02*
X247878D01*
X113965Y278000D02*
X277000D01*
X31349Y286000D02*
X248151D01*
X29085Y282000D02*
X250415D01*
X30485Y284000D02*
X249014D01*
X26802Y280000D02*
X252698D01*
X114000Y277985D02*
Y309000D01*
X112000Y278346D02*
Y309000D01*
X116000Y276207D02*
Y309000D01*
X110000Y277727D02*
Y309000D01*
X106000Y278038D02*
Y309000D01*
X104000Y278337D02*
Y309000D01*
X108000Y276408D02*
Y309000D01*
X102000Y277648D02*
Y309000D01*
X116114Y276000D02*
X134719D01*
X106091Y278000D02*
X110531D01*
X31801Y288000D02*
X247699D01*
X31889Y290000D02*
X247611D01*
X98216Y278000D02*
X102657D01*
X116601Y274000D02*
X133887D01*
X116114Y272000D02*
X134056D01*
X116000Y266650D02*
Y271793D01*
X113965Y270000D02*
X135402D01*
X114000Y266650D02*
Y270015D01*
X112000Y266650D02*
Y269654D01*
X110000Y266650D02*
Y270273D01*
X2000Y268000D02*
X277000D01*
X106091Y270000D02*
X110531D01*
X40500Y266650D02*
X230571D01*
X108000D02*
Y271592D01*
X106000Y266650D02*
Y269962D01*
X104000Y266650D02*
Y269663D01*
X98216Y270000D02*
X102657D01*
X69091Y254350D02*
X103809D01*
X102000Y266650D02*
Y270352D01*
X101980Y252520D02*
X103809Y254350D01*
X102000Y252541D02*
Y254350D01*
X108000Y247115D02*
Y251850D01*
X68741Y254000D02*
X103459D01*
X66741Y252000D02*
X101597D01*
X162000Y250222D02*
Y251850D01*
X160000Y249344D02*
Y251850D01*
X158000Y247115D02*
Y251850D01*
X154966Y250000D02*
X161233D01*
X152000Y250222D02*
Y251850D01*
X157514Y248000D02*
X158686D01*
X147514D02*
X148686D01*
X154966Y240000D02*
X161233D01*
X157514Y242000D02*
X158686D01*
X144966Y250000D02*
X151233D01*
X147514Y242000D02*
X148686D01*
X144966Y240000D02*
X151233D01*
X134000Y250261D02*
Y251850D01*
X132000Y250222D02*
Y251850D01*
X140000Y249344D02*
Y251850D01*
X130000Y249344D02*
Y251850D01*
X126000Y249480D02*
Y251850D01*
X128000Y247115D02*
Y251850D01*
X134967Y250000D02*
X141234D01*
X137514Y248000D02*
X138686D01*
X134967Y240000D02*
X141234D01*
X137514Y242000D02*
X138686D01*
X127514D02*
X128686D01*
X127514Y248000D02*
X128686D01*
X160000Y232150D02*
Y240656D01*
X158000Y232150D02*
Y242885D01*
X156000Y232150D02*
Y240520D01*
X150000Y232150D02*
Y240656D01*
X148000Y232150D02*
Y242885D01*
X146000Y232150D02*
Y240520D01*
X144000Y232150D02*
Y239739D01*
X154000Y232150D02*
Y239739D01*
X152000Y232150D02*
Y239778D01*
X126541Y234000D02*
X213350D01*
X128391Y232150D02*
X176500D01*
X127500Y227850D02*
X175609D01*
X138000Y232150D02*
Y242885D01*
X136000Y232150D02*
Y240520D01*
X142000Y232150D02*
Y239778D01*
X140000Y232150D02*
Y240656D01*
X128000Y232541D02*
Y242885D01*
X132000Y232150D02*
Y239778D01*
X130000Y232150D02*
Y240656D01*
X138000Y226650D02*
Y227850D01*
X134000Y232150D02*
Y239739D01*
X136000Y226650D02*
Y227850D01*
X134000Y226650D02*
Y227850D01*
X128000Y226650D02*
Y227850D01*
X126000Y226650D02*
Y228460D01*
X132000Y226650D02*
Y227850D01*
X124967Y250000D02*
X131234D01*
X120000Y249344D02*
Y251850D01*
X107391D02*
X199109D01*
X114966Y250000D02*
X121233D01*
X117514Y248000D02*
X118686D01*
X117514Y242000D02*
X118686D01*
X125250Y238000D02*
X212959D01*
X125250Y240000D02*
X131234D01*
X115650D02*
X120950D01*
X115650Y238000D02*
X120950D01*
X114000Y250261D02*
Y251850D01*
X112000Y250222D02*
Y251850D01*
X116000Y249480D02*
Y251850D01*
X110000Y249344D02*
Y251850D01*
X105650Y250109D02*
X107391Y251850D01*
X101350Y250042D02*
Y251000D01*
X106000Y249480D02*
Y250459D01*
X105650Y249688D02*
Y250109D01*
X107514Y248000D02*
X108686D01*
X107514Y242000D02*
X108686D01*
X104966Y240000D02*
X111233D01*
X105650Y250000D02*
X111233D01*
X125250Y236000D02*
X213350D01*
X125250Y235291D02*
Y240115D01*
Y235291D02*
X128391Y232150D01*
X126000Y234541D02*
Y240520D01*
X117041Y234000D02*
X120988D01*
X121580Y232880D02*
X125980Y228480D01*
X123041Y228000D02*
X126711D01*
X124000Y227041D02*
Y230459D01*
X121041Y230000D02*
X124459D01*
X119041Y232000D02*
X122459D01*
X122000Y229041D02*
Y232459D01*
X120950Y234400D02*
Y240115D01*
X116000Y235041D02*
Y240520D01*
X120000Y231041D02*
Y240656D01*
X118000Y233041D02*
Y242885D01*
X115650Y236000D02*
X120950D01*
X2000Y238000D02*
X111350D01*
X115650Y235391D02*
Y240312D01*
X111350Y234500D02*
Y239958D01*
X2000Y234000D02*
X111409D01*
X2000Y236000D02*
X111350D01*
X2000Y230000D02*
X114959D01*
X2000Y232000D02*
X112959D01*
X2000Y228000D02*
X116959D01*
X98000Y278086D02*
Y309000D01*
X96000Y278324D02*
Y309000D01*
X100000Y276588D02*
Y309000D01*
X94000Y277563D02*
Y309000D01*
X92000Y276750D02*
Y309000D01*
X100000Y266650D02*
Y271412D01*
X98000Y266650D02*
Y269914D01*
X94000Y266650D02*
Y270437D01*
X90342Y270000D02*
X94784D01*
X90342Y278000D02*
X94784D01*
X90000Y278130D02*
Y309000D01*
X88000Y278308D02*
Y309000D01*
X86000Y277471D02*
Y309000D01*
X84000Y276898D02*
Y309000D01*
X82000Y278170D02*
Y309000D01*
X80000Y278287D02*
Y309000D01*
X78000Y277372D02*
Y309000D01*
X92000Y266650D02*
Y271250D01*
X90000Y266650D02*
Y269870D01*
X82468Y270000D02*
X86909D01*
X82468Y278000D02*
X86909D01*
X88000Y266650D02*
Y269692D01*
X72000Y266650D02*
Y309000D01*
X70000Y266650D02*
Y309000D01*
X76000Y266650D02*
Y309000D01*
X74000Y266650D02*
Y309000D01*
X62000Y266650D02*
Y309000D01*
X60000Y266650D02*
Y309000D01*
X68000Y266650D02*
Y309000D01*
X66000Y266650D02*
Y309000D01*
X84000Y266650D02*
Y271102D01*
X82000Y266650D02*
Y269830D01*
X96000Y266650D02*
Y269676D01*
X86000Y266650D02*
Y270529D01*
X78000Y266650D02*
Y270628D01*
X64000Y266650D02*
Y309000D01*
X80000Y266650D02*
Y269713D01*
X54000Y266650D02*
Y309000D01*
X52000Y266650D02*
Y309000D01*
X58000Y266650D02*
Y309000D01*
X56000Y266650D02*
Y309000D01*
X46000Y266650D02*
Y309000D01*
X44000Y266650D02*
Y309000D01*
X50000Y266650D02*
Y309000D01*
X48000Y266650D02*
Y309000D01*
X50891Y259850D02*
X55309D01*
X54000Y258541D02*
Y259850D01*
X51580Y256120D02*
X55309Y259850D01*
X52000Y256541D02*
Y259850D01*
X46000Y261041D02*
Y262350D01*
X44000Y259041D02*
Y262350D01*
X45250Y254209D02*
X50891Y259850D01*
X26000Y299485D02*
Y309000D01*
X24000Y300349D02*
Y309000D01*
X30000Y295802D02*
Y309000D01*
X28000Y298085D02*
Y309000D01*
X22000Y300801D02*
Y309000D01*
X20000Y300889D02*
Y309000D01*
X18000Y300623D02*
Y309000D01*
X2000Y278000D02*
X79035D01*
X2000Y276000D02*
X76886D01*
X2000Y274000D02*
X76399D01*
X16000Y299974D02*
Y309000D01*
X14000Y298865D02*
Y309000D01*
X12000Y297097D02*
Y309000D01*
X10000Y293940D02*
Y309000D01*
X2000Y300000D02*
X16060D01*
X2000Y298000D02*
X12903D01*
X2000Y296000D02*
X11135D01*
X2000Y294000D02*
X10026D01*
X2000Y284000D02*
X10514D01*
X2000Y286000D02*
X9651D01*
X2000Y280000D02*
X14198D01*
X2000Y282000D02*
X11914D01*
X2000Y292000D02*
X9377D01*
X2000Y290000D02*
X9111D01*
X2000Y288000D02*
X9199D01*
X42000Y266650D02*
Y309000D01*
X40000Y266591D02*
Y309000D01*
X2000Y270000D02*
X79035D01*
X2000Y272000D02*
X76886D01*
X31580Y258620D02*
X38980Y266020D01*
X2000Y266000D02*
X38959D01*
X41391Y262350D02*
X47309D01*
X41041Y262000D02*
X46959D01*
X41580Y256620D02*
X47309Y262350D01*
X42000Y257041D02*
Y262350D01*
X39041Y260000D02*
X44959D01*
X35250Y256209D02*
X41391Y262350D01*
X40000Y249344D02*
Y260959D01*
X38000Y265041D02*
Y309000D01*
X36000Y263041D02*
Y309000D01*
X34000Y261041D02*
Y309000D01*
X32000Y259041D02*
Y309000D01*
X26000Y249480D02*
Y279515D01*
X24000Y250261D02*
Y278651D01*
X30000Y249344D02*
Y283198D01*
X28000Y247115D02*
Y280915D01*
X22000Y250222D02*
Y278199D01*
X20000Y249344D02*
Y278111D01*
X38000Y247115D02*
Y258959D01*
X18000Y246573D02*
Y278378D01*
X2000Y264000D02*
X36959D01*
X2000Y262000D02*
X34959D01*
X2000Y260000D02*
X32959D01*
X94000Y250261D02*
Y254350D01*
X92000Y250222D02*
Y254350D01*
X100000Y249344D02*
Y254350D01*
X96000Y249480D02*
Y254350D01*
X86000Y249480D02*
Y254350D01*
X84000Y250261D02*
Y254350D01*
X90000Y249344D02*
Y254350D01*
X76000Y249480D02*
Y254350D01*
X94967Y250000D02*
X101234D01*
X82000Y250222D02*
Y254350D01*
X84966Y250000D02*
X91234D01*
X80000Y249344D02*
Y254350D01*
X74000Y250261D02*
Y254350D01*
X72000Y250222D02*
Y254350D01*
X74967Y250000D02*
X81234D01*
X64000Y255341D02*
Y257350D01*
X62000Y253341D02*
Y257350D01*
X65250Y250509D02*
X69091Y254350D01*
X61580Y252920D02*
X66009Y257350D01*
X58891D02*
X66009D01*
X57541Y256000D02*
X64660D01*
X60000Y249344D02*
Y257350D01*
X56000Y249480D02*
Y254459D01*
X65250Y250000D02*
X71234D01*
X66000Y249480D02*
Y251259D01*
X65250Y249885D02*
Y250509D01*
X55541Y254000D02*
X62660D01*
X60950Y249885D02*
Y251400D01*
X97514Y248000D02*
X98686D01*
X98000Y247115D02*
Y254350D01*
X87514Y248000D02*
X88686D01*
X77514D02*
X78686D01*
X88000Y247115D02*
Y254350D01*
X97514Y242000D02*
X98686D01*
X87514D02*
X88686D01*
X94967Y240000D02*
X101234D01*
X84966D02*
X91234D01*
X74967D02*
X81234D01*
X78000Y247115D02*
Y254350D01*
X70000Y249344D02*
Y254350D01*
X68000Y247115D02*
Y253259D01*
X67514Y248000D02*
X68686D01*
X58000Y247115D02*
Y256459D01*
X77514Y242000D02*
X78686D01*
X67514D02*
X68686D01*
X64966Y240000D02*
X71234D01*
X57514Y242000D02*
X58686D01*
X57514Y248000D02*
X58686D01*
X55250Y253710D02*
X58891Y257350D01*
X50950Y249885D02*
Y254600D01*
X49041Y258000D02*
X53459D01*
X37041D02*
X42959D01*
X47041Y256000D02*
X51468D01*
X55250Y252000D02*
X61035D01*
X55250Y250000D02*
X60950D01*
X55250Y249885D02*
Y253710D01*
X45250Y249885D02*
Y254209D01*
Y252000D02*
X50950D01*
X45250Y254000D02*
X50950D01*
X45250Y250000D02*
X50950D01*
X35250Y256000D02*
X41147D01*
X40950Y249885D02*
Y255100D01*
X2000Y258000D02*
X31147D01*
X30950Y249885D02*
Y257100D01*
X2000Y256000D02*
X30950D01*
X35250Y252000D02*
X40950D01*
X35250Y254000D02*
X40950D01*
X35250Y250000D02*
X40950D01*
X24967D02*
X30950D01*
X2000Y252000D02*
X30950D01*
X2000Y254000D02*
X30950D01*
X2000Y250000D02*
X21234D01*
X50000Y249344D02*
Y258959D01*
X48000Y247115D02*
Y256959D01*
X47514Y248000D02*
X48686D01*
X46000Y249480D02*
Y254959D01*
X54966Y240000D02*
X61234D01*
X47514Y242000D02*
X48686D01*
X44967Y240000D02*
X51234D01*
X34966D02*
X41234D01*
X37514Y242000D02*
X38686D01*
X36000Y249480D02*
Y256959D01*
X35250Y249885D02*
Y256209D01*
X37514Y248000D02*
X38686D01*
X27514D02*
X28686D01*
X2000D02*
X18686D01*
X27514Y242000D02*
X28686D01*
X2000Y244000D02*
X17857D01*
X24967Y240000D02*
X31234D01*
X2000Y242000D02*
X18686D01*
X2000Y246000D02*
X17857D01*
X2000Y240000D02*
X21234D01*
X158000Y226650D02*
Y227850D01*
X156000Y226650D02*
Y227850D01*
X162000Y226650D02*
Y227850D01*
X160000Y226650D02*
Y227850D01*
X154000Y226650D02*
Y227850D01*
X152000Y226650D02*
Y227850D01*
X150000Y189344D02*
Y222350D01*
Y226650D02*
Y227850D01*
X154966Y190000D02*
X161233D01*
X156000Y189480D02*
Y222350D01*
X160000Y189344D02*
Y222350D01*
X157514Y188000D02*
X158686D01*
X154000Y190261D02*
Y222350D01*
X152000Y190222D02*
Y222350D01*
X144966Y190000D02*
X151233D01*
X147514Y188000D02*
X148686D01*
X148000Y226650D02*
Y227850D01*
X146000Y226650D02*
Y227850D01*
Y189480D02*
Y222350D01*
X144000Y190261D02*
Y222350D01*
Y226650D02*
Y227850D01*
X142000Y226650D02*
Y227850D01*
Y190222D02*
Y222350D01*
X140000Y226650D02*
Y227850D01*
Y189344D02*
Y222350D01*
X136000Y189480D02*
Y222350D01*
X137514Y188000D02*
X138686D01*
X138000Y187115D02*
Y222350D01*
X134000Y190261D02*
Y222350D01*
X132000Y190222D02*
Y222350D01*
X134967Y190000D02*
X141234D01*
X158000Y187115D02*
Y222350D01*
Y2000D02*
Y182885D01*
X154966Y180000D02*
X161233D01*
X157514Y182000D02*
X158686D01*
X160000Y2000D02*
Y180656D01*
X156000Y2000D02*
Y180520D01*
X152000Y2000D02*
Y179778D01*
X144966Y180000D02*
X151233D01*
X154000Y2000D02*
Y179739D01*
X147514Y182000D02*
X148686D01*
X148000Y187115D02*
Y222350D01*
X150000Y2000D02*
Y180656D01*
X148000Y2000D02*
Y182885D01*
X137514Y182000D02*
X138686D01*
X138000Y2000D02*
Y182885D01*
X142000Y2000D02*
Y179778D01*
X140000Y2000D02*
Y180656D01*
X146000Y2000D02*
Y180520D01*
X144000Y2000D02*
Y179739D01*
X134967Y180000D02*
X141234D01*
X136000Y2000D02*
Y180520D01*
X132000Y2000D02*
Y179778D01*
X2000Y210000D02*
X177850D01*
X2000Y212000D02*
X177850D01*
X2000Y206000D02*
X177850D01*
X2000Y208000D02*
X177850D01*
X2000Y218000D02*
X176959D01*
X2000Y220000D02*
X174959D01*
X2000Y214000D02*
X177850D01*
X2000Y216000D02*
X177850D01*
X2000Y196000D02*
X177850D01*
X2000Y198000D02*
X177850D01*
X2000Y192000D02*
X177850D01*
X2000Y194000D02*
X177850D01*
X2000Y202000D02*
X177850D01*
X2000Y204000D02*
X177850D01*
X2000Y200000D02*
X177850D01*
X124391Y226650D02*
X173500D01*
X130000D02*
Y227850D01*
X115650Y235391D02*
X124391Y226650D01*
X114000Y190261D02*
Y230959D01*
X2000Y224000D02*
X120959D01*
X2000Y226000D02*
X118959D01*
X111980Y232980D02*
X121980Y222980D01*
X112000Y190222D02*
Y232959D01*
X123500Y222350D02*
X172609D01*
X124000Y190261D02*
Y222350D01*
X124967Y190000D02*
X131234D01*
X122000Y190222D02*
Y222960D01*
X2000Y222000D02*
X172959D01*
X130000Y189344D02*
Y222350D01*
X128000Y187115D02*
Y222350D01*
X127514Y188000D02*
X128686D01*
X126000Y189480D02*
Y222350D01*
X127514Y182000D02*
X128686D01*
X126000Y157206D02*
Y180520D01*
X130000Y2000D02*
Y180656D01*
X128000Y2000D02*
Y182885D01*
X124967Y180000D02*
X131234D01*
X122000Y159124D02*
Y179778D01*
X124000Y158877D02*
Y179739D01*
X120000Y189344D02*
Y224959D01*
X116000Y189480D02*
Y228959D01*
X117514Y188000D02*
X118686D01*
X118000Y187115D02*
Y226959D01*
X114966Y190000D02*
X121233D01*
X104966D02*
X111233D01*
X120000Y158877D02*
Y180656D01*
X117514Y182000D02*
X118686D01*
X118000Y157206D02*
Y182885D01*
X116000Y157271D02*
Y180520D01*
X114966Y180000D02*
X121233D01*
X104966D02*
X111233D01*
X112000Y159124D02*
Y179778D01*
X2000Y160000D02*
X177850D01*
X121370Y159124D02*
X122630D01*
X125378Y158000D02*
X177850D01*
X2000Y170000D02*
X177850D01*
X2000Y174000D02*
X177850D01*
X2000Y162000D02*
X177850D01*
X2000Y168000D02*
X177850D01*
X126550Y154000D02*
X177850D01*
X126468Y156000D02*
X177850D01*
X126550Y152000D02*
X177850D01*
X126550Y150795D02*
Y155205D01*
X125378Y148000D02*
X177850D01*
X126468Y150000D02*
X177850D01*
X121370Y146876D02*
X122630D01*
X115417Y158000D02*
X118622D01*
X116507Y156000D02*
X117532D01*
X117450Y150795D02*
Y155205D01*
X114000Y158892D02*
Y179739D01*
X111409Y159124D02*
X112669D01*
X116589Y152000D02*
X117450D01*
X116589Y154000D02*
X117450D01*
X116589Y150795D02*
Y155205D01*
X115417Y148000D02*
X118622D01*
X116507Y150000D02*
X117532D01*
X26474Y30000D02*
X254026D01*
X29122Y28000D02*
X251378D01*
X30693Y26000D02*
X249807D01*
X31675Y24000D02*
X248825D01*
X2000Y138000D02*
X177850D01*
X2000Y146000D02*
X177850D01*
X2000Y134000D02*
X177850D01*
X2000Y136000D02*
X177850D01*
X32223Y22000D02*
X248277D01*
X32400Y20000D02*
X248100D01*
X31675Y16000D02*
X248825D01*
X32223Y18000D02*
X248277D01*
X29122Y12000D02*
X251378D01*
X30693Y14000D02*
X249807D01*
X26474Y10000D02*
X254026D01*
X124000Y2000D02*
Y147123D01*
X134000Y2000D02*
Y179739D01*
X126000Y2000D02*
Y148794D01*
X116000Y2000D02*
Y148729D01*
X120000Y2000D02*
Y147123D01*
X118000Y2000D02*
Y148794D01*
X111409Y146876D02*
X112669D01*
X112000Y2000D02*
Y146876D01*
X122000Y2000D02*
Y146876D01*
X114000Y2000D02*
Y147108D01*
X2000Y142000D02*
X177850D01*
X2000Y144000D02*
X177850D01*
X2000Y140000D02*
X177850D01*
X2000Y102000D02*
X177850D01*
X2000Y104000D02*
X177850D01*
X2000Y98000D02*
X177850D01*
X2000Y100000D02*
X177850D01*
X2000Y110000D02*
X177850D01*
X2000Y112000D02*
X177850D01*
X2000Y106000D02*
X177850D01*
X2000Y108000D02*
X177850D01*
X2000Y88000D02*
X177850D01*
X2000Y90000D02*
X177850D01*
X2000Y84000D02*
X177850D01*
X2000Y86000D02*
X177850D01*
X2000Y94000D02*
X177850D01*
X2000Y96000D02*
X177850D01*
X2000Y92000D02*
X177850D01*
X2000Y132000D02*
X177850D01*
X2000Y164000D02*
X177850D01*
X2000Y128000D02*
X177850D01*
X2000Y130000D02*
X177850D01*
X2000Y176000D02*
X177850D01*
X2000Y178000D02*
X177850D01*
X2000Y166000D02*
X177850D01*
X2000Y172000D02*
X177850D01*
X2000Y118000D02*
X177850D01*
X2000Y120000D02*
X177850D01*
X2000Y114000D02*
X177850D01*
X2000Y116000D02*
X177850D01*
X2000Y124000D02*
X177850D01*
X2000Y126000D02*
X177850D01*
X2000Y122000D02*
X177850D01*
X2000Y42000D02*
X277000D01*
X2000Y44000D02*
X277000D01*
X2000Y38000D02*
X277000D01*
X2000Y40000D02*
X277000D01*
X2000Y50000D02*
X192459D01*
X2000Y52000D02*
X190459D01*
X2000Y46000D02*
X277000D01*
X2000Y48000D02*
X194459D01*
X2000Y6000D02*
X277000D01*
X2000Y8000D02*
X277000D01*
X2000Y2000D02*
X277000D01*
X2000Y4000D02*
X277000D01*
X2000Y34000D02*
X277000D01*
X2000Y36000D02*
X277000D01*
X2000Y32000D02*
X277000D01*
X2000Y72000D02*
X177850D01*
X2000Y74000D02*
X177850D01*
X2000Y68000D02*
X177850D01*
X2000Y70000D02*
X177850D01*
X2000Y80000D02*
X177850D01*
X2000Y82000D02*
X177850D01*
X2000Y76000D02*
X177850D01*
X2000Y78000D02*
X177850D01*
X2000Y58000D02*
X184459D01*
X2000Y60000D02*
X182459D01*
X2000Y54000D02*
X188459D01*
X2000Y56000D02*
X186459D01*
X2000Y64000D02*
X178460D01*
X2000Y66000D02*
X177850D01*
X2000Y62000D02*
X180459D01*
X106000Y189480D02*
Y240520D01*
X102000Y190222D02*
Y239778D01*
X110000Y189344D02*
Y240656D01*
X100000Y189344D02*
Y240656D01*
X96000Y189480D02*
Y240520D01*
X86000Y189480D02*
Y240520D01*
X90000Y189344D02*
Y240656D01*
X88000Y187115D02*
Y242885D01*
X104000Y190261D02*
Y239739D01*
X94967Y190000D02*
X101234D01*
X107514Y188000D02*
X108686D01*
X97514D02*
X98686D01*
X94000Y190261D02*
Y239739D01*
X92000Y190222D02*
Y239778D01*
X84966Y190000D02*
X91234D01*
X87514Y188000D02*
X88686D01*
X82000Y190222D02*
Y239778D01*
X72000Y190222D02*
Y239778D01*
X80000Y189344D02*
Y240656D01*
X76000Y189480D02*
Y240520D01*
X66000Y189480D02*
Y240520D01*
X62000Y190222D02*
Y239778D01*
X70000Y189344D02*
Y240656D01*
X60000Y189344D02*
Y240656D01*
X84000Y190261D02*
Y239739D01*
X74000Y190261D02*
Y239739D01*
X74967Y190000D02*
X81234D01*
X77514Y188000D02*
X78686D01*
X64966Y190000D02*
X71234D01*
X64000Y190261D02*
Y239739D01*
X67514Y188000D02*
X68686D01*
X108000Y187115D02*
Y242885D01*
Y157139D02*
Y182885D01*
X98000Y187115D02*
Y242885D01*
X110000Y158862D02*
Y180656D01*
X107514Y182000D02*
X108686D01*
X100000Y158847D02*
Y180656D01*
X98000Y157067D02*
Y182885D01*
X97514Y182000D02*
X98686D01*
X87514D02*
X88686D01*
X90000Y158831D02*
Y180656D01*
X78000Y187115D02*
Y242885D01*
X68000Y187115D02*
Y242885D01*
X58000Y187115D02*
Y242885D01*
X88000Y156993D02*
Y182885D01*
X77514Y182000D02*
X78686D01*
X78000Y2000D02*
Y182885D01*
X70000Y2000D02*
Y180656D01*
X67514Y182000D02*
X68686D01*
X68000Y2000D02*
Y182885D01*
X60000Y2000D02*
Y180656D01*
X54000Y190261D02*
Y239739D01*
X52000Y190222D02*
Y239778D01*
X56000Y189480D02*
Y240520D01*
X50000Y189344D02*
Y240656D01*
X46000Y189480D02*
Y240520D01*
X42000Y190222D02*
Y239778D01*
X40000Y189344D02*
Y240656D01*
X38000Y187115D02*
Y242885D01*
X54966Y190000D02*
X61234D01*
X44967D02*
X51234D01*
X57514Y188000D02*
X58686D01*
X47514D02*
X48686D01*
X44000Y190261D02*
Y239739D01*
X34966Y190000D02*
X41234D01*
X37514Y188000D02*
X38686D01*
X32000Y190222D02*
Y239778D01*
X28000Y190337D02*
Y242885D01*
X36000Y189480D02*
Y240520D01*
X30000Y189344D02*
Y240656D01*
X20000Y190337D02*
Y240656D01*
X18000Y190337D02*
Y243427D01*
X26000Y190337D02*
Y240520D01*
X22000Y190337D02*
Y239778D01*
X34000Y190261D02*
Y239739D01*
X24000Y190337D02*
Y239739D01*
X28437Y190000D02*
X31234D01*
X28437Y187596D02*
Y190337D01*
X17763D02*
X28437D01*
X2000Y190000D02*
X17763D01*
X2000Y188000D02*
X17763D01*
X48000Y187115D02*
Y242885D01*
X38000Y2000D02*
Y182885D01*
X57514Y182000D02*
X58686D01*
X58000Y2000D02*
Y182885D01*
X50000Y2000D02*
Y180656D01*
X48000Y2000D02*
Y182885D01*
X47514Y182000D02*
X48686D01*
X37514D02*
X38686D01*
X40000Y2000D02*
Y180656D01*
X14000Y28998D02*
Y280135D01*
X12000Y26997D02*
Y281903D01*
X10000Y22993D02*
Y285060D01*
X8000Y2000D02*
Y309000D01*
X2000Y2000D02*
Y309000D01*
Y2000D02*
Y309000D01*
X6000Y2000D02*
Y309000D01*
X4000Y2000D02*
Y309000D01*
X28437Y179663D02*
Y182404D01*
X17763Y179663D02*
Y190337D01*
X30000Y26997D02*
Y180656D01*
X16000Y30245D02*
Y279026D01*
X2000Y184000D02*
X17763D01*
X2000Y186000D02*
X17763D01*
X2000Y182000D02*
X17763D01*
X105456Y158000D02*
X108662D01*
X104000Y158906D02*
Y179739D01*
X106000Y157333D02*
Y180520D01*
X102000Y159124D02*
Y179778D01*
X94967Y180000D02*
X101234D01*
X101449Y159124D02*
X102709D01*
X106628Y152000D02*
X107490D01*
X106628Y154000D02*
X107490D01*
Y150795D02*
Y155205D01*
X106628Y150795D02*
Y155205D01*
X95496Y158000D02*
X98701D01*
X96586Y156000D02*
X97611D01*
X106547D02*
X107571D01*
X94000Y158919D02*
Y179739D01*
X92000Y159124D02*
Y179778D01*
X96000Y157393D02*
Y180520D01*
X84966Y180000D02*
X91234D01*
X74967D02*
X81234D01*
X91488Y159124D02*
X92748D01*
X96668Y154000D02*
X97529D01*
Y150795D02*
Y155205D01*
X96668Y152000D02*
X97529D01*
X87568Y150795D02*
Y155205D01*
X106547Y150000D02*
X107571D01*
X108000Y2000D02*
Y148862D01*
X106000Y2000D02*
Y148667D01*
X96586Y150000D02*
X97611D01*
X98000Y2000D02*
Y148933D01*
X110000Y2000D02*
Y147138D01*
X105456Y148000D02*
X108662D01*
X104000Y2000D02*
Y147094D01*
X102000Y2000D02*
Y146876D01*
X101449D02*
X102709D01*
X95496Y148000D02*
X98701D01*
X100000Y2000D02*
Y147153D01*
X96668Y150795D02*
Y155205D01*
X86000Y2000D02*
Y180520D01*
X84000Y2000D02*
Y179739D01*
X76000Y2000D02*
Y180520D01*
X74000Y2000D02*
Y179739D01*
X82000Y2000D02*
Y179778D01*
X80000Y2000D02*
Y180656D01*
X91488Y146876D02*
X92748D01*
X92000Y2000D02*
Y146876D01*
X96000Y2000D02*
Y148607D01*
X94000Y2000D02*
Y147081D01*
X88000Y2000D02*
Y149007D01*
X90000Y2000D02*
Y147169D01*
X44967Y180000D02*
X51234D01*
X34966D02*
X41234D01*
X64966D02*
X71234D01*
X54966D02*
X61234D01*
X28437D02*
X31234D01*
X17763Y179663D02*
X28437D01*
X32000Y22993D02*
Y179778D01*
X28000Y28998D02*
Y179663D01*
X2000Y150000D02*
X87650D01*
X2000Y152000D02*
X87568D01*
X2000Y148000D02*
X88740D01*
X2000Y158000D02*
X88740D01*
X2000Y156000D02*
X87650D01*
X2000Y154000D02*
X87568D01*
X24000Y30998D02*
Y179663D01*
X22000Y31356D02*
Y179663D01*
X26000Y30245D02*
Y179663D01*
X20000Y31356D02*
Y179663D01*
X2000Y180000D02*
X17763D01*
X18000Y30998D02*
Y179663D01*
X2000Y30000D02*
X15526D01*
X2000Y28000D02*
X12878D01*
X2000Y26000D02*
X11307D01*
X2000Y24000D02*
X10325D01*
X2000Y22000D02*
X9777D01*
X2000Y20000D02*
X9600D01*
X2000Y18000D02*
X9777D01*
X62000Y2000D02*
Y179778D01*
X56000Y2000D02*
Y180520D01*
X72000Y2000D02*
Y179778D01*
X66000Y2000D02*
Y180520D01*
X42000Y2000D02*
Y179778D01*
X36000Y2000D02*
Y180520D01*
X52000Y2000D02*
Y179778D01*
X46000Y2000D02*
Y180520D01*
X44000Y2000D02*
Y179739D01*
X34000Y2000D02*
Y179739D01*
X64000Y2000D02*
Y179739D01*
X54000Y2000D02*
Y179739D01*
X30000Y2000D02*
Y13003D01*
X32000Y2000D02*
Y17007D01*
X28000Y2000D02*
Y11002D01*
X14000Y2000D02*
Y11002D01*
X12000Y2000D02*
Y13003D01*
X2000Y14000D02*
X11307D01*
X2000Y16000D02*
X10325D01*
X2000Y12000D02*
X12878D01*
X10000Y2000D02*
Y17007D01*
X22000Y2000D02*
Y8644D01*
X20000Y2000D02*
Y8644D01*
X26000Y2000D02*
Y9755D01*
X24000Y2000D02*
Y9002D01*
X16000Y2000D02*
Y9755D01*
X2000Y10000D02*
X15526D01*
X18000Y2000D02*
Y9002D01*
D28*
X256000Y165500D02*
X263500D01*
X253000Y168500D02*
X256000Y165500D01*
X253000Y168500D02*
Y231465D01*
X264000Y176500D02*
X269500Y171000D01*
X252500Y101000D02*
X269500Y118000D01*
X261500Y174000D02*
X267000Y168500D01*
X252000Y105500D02*
X267000Y120500D01*
Y168500D01*
X269500Y118000D02*
Y171000D01*
X207000Y169500D02*
X212000D01*
X198000Y160500D02*
X207000Y169500D01*
X40500Y264500D02*
X230571D01*
X33100Y257100D02*
X40500Y264500D01*
X33100Y245000D02*
Y257100D01*
X68200Y256500D02*
X227964D01*
X63100Y251400D02*
X68200Y256500D01*
X58000Y259500D02*
X228500D01*
X53100Y254600D02*
X58000Y259500D01*
X53100Y245000D02*
Y254600D01*
X50000Y262000D02*
X229536D01*
X43100Y255100D02*
X50000Y262000D01*
X43100Y245000D02*
Y255100D01*
X228500Y259500D02*
X259000Y229000D01*
X230571Y264500D02*
X264000Y231071D01*
Y176500D02*
Y231071D01*
X209000Y101000D02*
X252500D01*
X198000Y112000D02*
X209000Y101000D01*
X198000Y112000D02*
Y160500D01*
X201000Y158500D02*
X207000Y164500D01*
X201000Y114500D02*
Y158500D01*
Y114500D02*
X210000Y105500D01*
X252000D01*
X207000Y164500D02*
X212000D01*
X200000Y254000D02*
X215500Y238500D01*
X106500Y254000D02*
X200000D01*
X215500Y114000D02*
Y238500D01*
X261500Y174000D02*
Y230035D01*
X229536Y262000D02*
X261500Y230035D01*
X227964Y256500D02*
X253000Y231465D01*
X63100Y245000D02*
Y251400D01*
X103500Y251000D02*
X106500Y254000D01*
X259000Y169500D02*
Y229000D01*
X180000Y65500D02*
Y218000D01*
X173500Y224500D02*
X180000Y218000D01*
X123500Y224500D02*
X173500D01*
X196000Y49500D02*
X229500D01*
X180000Y65500D02*
X196000Y49500D01*
X235185Y55185D02*
Y56913D01*
X229500Y49500D02*
X235185Y55185D01*
X113100Y245000D02*
X113500Y244600D01*
Y234500D02*
Y244600D01*
Y234500D02*
X123500Y224500D01*
X127500Y230000D02*
X176500D01*
X185000Y221500D01*
X194587Y56913D02*
X215500D01*
X185000Y66500D02*
X194587Y56913D01*
X185000Y66500D02*
Y221500D01*
X123100Y234400D02*
Y245000D01*
Y234400D02*
X127500Y230000D01*
X103100Y245000D02*
X103500Y245400D01*
Y251000D01*
D29*
X23100Y185000D02*
D03*
D30*
X33100D02*
D03*
X43100D02*
D03*
X53100D02*
D03*
X63100D02*
D03*
X73100D02*
D03*
X83100D02*
D03*
X93100D02*
D03*
X103100D02*
D03*
X113100D02*
D03*
X123100D02*
D03*
X133100D02*
D03*
X143100D02*
D03*
X153100D02*
D03*
X163100D02*
D03*
X23100Y245000D02*
D03*
X33100D02*
D03*
X43100D02*
D03*
X53100D02*
D03*
X63100D02*
D03*
X73100D02*
D03*
X83100D02*
D03*
X93100D02*
D03*
X103100D02*
D03*
X113100D02*
D03*
X123100D02*
D03*
X133100D02*
D03*
X143100D02*
D03*
X153100D02*
D03*
X163100D02*
D03*
D31*
X20500Y289500D02*
D03*
X259000D02*
D03*
X259500Y20000D02*
D03*
X21000D02*
D03*
D32*
X146114Y273362D02*
D03*
X138240D02*
D03*
X177610D02*
D03*
X169736D02*
D03*
X153988D02*
D03*
X161862D02*
D03*
X193358D02*
D03*
X185484D02*
D03*
X201232D02*
D03*
X209106D02*
D03*
D33*
X201842Y86441D02*
D03*
X249342D02*
D03*
D34*
X215500Y114000D02*
D03*
X235185D02*
D03*
X215500Y56913D02*
D03*
X225342D02*
D03*
X235185D02*
D03*
D35*
X92118Y153000D02*
D03*
X102079D02*
D03*
X112039D02*
D03*
X122000D02*
D03*
D36*
X112248Y274000D02*
D03*
X104374D02*
D03*
X96500D02*
D03*
X88626D02*
D03*
X80752D02*
D03*
D37*
X211500Y154000D02*
D03*
X263500Y165500D02*
D03*
X212000Y169500D02*
D03*
Y164500D02*
D03*
X220000Y191500D02*
D03*
X259000Y169500D02*
D03*
D38*
X248500Y183500D02*
D03*
M02*
