G04*
G04 #@! TF.GenerationSoftware,Altium Limited,CircuitMaker,2.2.1 (2.2.1.6)*
G04*
G04 Layer_Color=15132400*
%FSLAX25Y25*%
%MOIN*%
G70*
G04*
G04 #@! TF.SameCoordinates,1CA14471-211C-46C3-BCAE-CC66E2904901*
G04*
G04*
G04 #@! TF.FilePolarity,Positive*
G04*
G01*
G75*
%ADD10C,0.01968*%
%ADD11C,0.03937*%
%ADD12C,0.01000*%
D10*
X114614Y113386D02*
G03*
X114614Y113386I-39370J0D01*
G01*
X356740Y113779D02*
G03*
X356740Y113779I-39370J0D01*
G01*
D11*
X86029Y188583D02*
G03*
X86029Y188583I-10832J0D01*
G01*
X328202Y188583D02*
G03*
X328202Y188583I-10832J0D01*
G01*
X17764Y55905D02*
Y170079D01*
X131937Y55905D02*
Y170079D01*
X17764D02*
X131937D01*
X17764Y55905D02*
X131937D01*
X260284Y56299D02*
Y170473D01*
Y56299D02*
X374457D01*
Y170473D01*
X260284D02*
X374457D01*
D12*
X233858Y87008D02*
Y173622D01*
X254724D01*
Y87008D02*
Y173622D01*
X233858Y87008D02*
X254724D01*
X185314Y102455D02*
X184314Y103455D01*
X182315D01*
X181315Y102455D01*
Y98456D01*
X182315Y97457D01*
X184314D01*
X185314Y98456D01*
Y100456D01*
X183314D01*
X187313Y97457D02*
Y103455D01*
X191312Y97457D01*
Y103455D01*
X193311D02*
Y97457D01*
X196310D01*
X197310Y98456D01*
Y102455D01*
X196310Y103455D01*
X193311D01*
X221959Y122228D02*
X217960D01*
X215961Y120229D01*
X217960Y118230D01*
X221959D01*
X219959Y115231D02*
Y113231D01*
X218960Y112232D01*
X215961D01*
Y115231D01*
X216960Y116230D01*
X217960Y115231D01*
Y112232D01*
X215961Y110232D02*
Y108233D01*
Y109232D01*
X221959D01*
Y110232D01*
X215961Y105234D02*
X216960D01*
Y104234D01*
X215961D01*
Y105234D01*
X238399Y183098D02*
X236399D01*
X237399D01*
Y178100D01*
X236399Y177100D01*
X235400D01*
X234400Y178100D01*
X240398Y177100D02*
X242397D01*
X241398D01*
Y183098D01*
X240398Y182098D01*
M02*
