G04*
G04 #@! TF.GenerationSoftware,Altium Limited,CircuitMaker,2.2.1 (2.2.1.6)*
G04*
G04 Layer_Physical_Order=2*
G04 Layer_Color=11436288*
%FSLAX25Y25*%
%MOIN*%
G70*
G04*
G04 #@! TF.SameCoordinates,1CA14471-211C-46C3-BCAE-CC66E2904901*
G04*
G04*
G04 #@! TF.FilePolarity,Positive*
G04*
G01*
G75*
%ADD10C,0.01968*%
%ADD20O,0.07874X0.15748*%
%ADD21O,0.15748X0.07874*%
%ADD22O,0.17716X0.07874*%
%ADD23C,0.06000*%
%ADD24C,0.06299*%
G36*
X390651Y218423D02*
X391147Y218091D01*
X391291Y218062D01*
X391319Y217919D01*
X391651Y217423D01*
X391732Y217368D01*
Y1136D01*
X391651Y1081D01*
X391319Y585D01*
X391203Y0D01*
X0D01*
Y217974D01*
X585Y218091D01*
X1081Y218423D01*
X1136Y218504D01*
X390596D01*
X390651Y218423D01*
D02*
G37*
%LPC*%
G36*
X24926Y210224D02*
X24154Y210224D01*
X24154Y210224D01*
X23382Y210224D01*
X23316Y210211D01*
X23249Y210215D01*
X21717Y210014D01*
X21654Y209992D01*
X21587Y209988D01*
X20095Y209588D01*
X20034Y209558D01*
X19968Y209545D01*
X18541Y208954D01*
X18486Y208917D01*
X18422Y208895D01*
X17084Y208123D01*
X17034Y208079D01*
X16973Y208049D01*
X15748Y207108D01*
X15704Y207058D01*
X15648Y207021D01*
X14556Y205928D01*
X14518Y205873D01*
X14468Y205828D01*
X13528Y204603D01*
X13498Y204543D01*
X13453Y204492D01*
X12681Y203154D01*
X12660Y203091D01*
X12622Y203035D01*
X12031Y201608D01*
X12018Y201542D01*
X11988Y201482D01*
X11588Y199990D01*
X11584Y199923D01*
X11563Y199859D01*
X11361Y198328D01*
X11365Y198260D01*
X11352Y198195D01*
Y197422D01*
X11352Y196650D01*
X11365Y196584D01*
X11361Y196517D01*
X11563Y194986D01*
X11584Y194922D01*
X11588Y194855D01*
X11988Y193363D01*
X12018Y193303D01*
X12031Y193237D01*
X12622Y191810D01*
X12660Y191754D01*
X12681Y191690D01*
X13453Y190353D01*
X13498Y190302D01*
X13528Y190242D01*
X14468Y189016D01*
X14518Y188972D01*
X14556Y188916D01*
X15648Y187824D01*
X15704Y187787D01*
X15748Y187736D01*
X16973Y186796D01*
X17034Y186766D01*
X17084Y186722D01*
X18422Y185950D01*
X18485Y185928D01*
X18541Y185890D01*
X19968Y185299D01*
X20034Y185286D01*
X20095Y185257D01*
X21587Y184857D01*
X21654Y184852D01*
X21717Y184831D01*
X23249Y184629D01*
X23316Y184634D01*
X23382Y184620D01*
X24154Y184620D01*
X24926Y184620D01*
X24992Y184634D01*
X25059Y184629D01*
X26591Y184831D01*
X26654Y184852D01*
X26721Y184857D01*
X28213Y185257D01*
X28274Y185286D01*
X28339Y185299D01*
X29766Y185890D01*
X29822Y185928D01*
X29886Y185949D01*
X31224Y186722D01*
X31274Y186766D01*
X31335Y186796D01*
X32560Y187736D01*
X32604Y187786D01*
X32660Y187824D01*
X33752Y188916D01*
X33790Y188972D01*
X33840Y189016D01*
X34780Y190242D01*
X34810Y190302D01*
X34855Y190352D01*
X35627Y191690D01*
X35649Y191754D01*
X35686Y191810D01*
X36277Y193237D01*
X36290Y193303D01*
X36320Y193363D01*
X36720Y194855D01*
X36724Y194922D01*
X36746Y194986D01*
X36947Y196517D01*
X36943Y196584D01*
X36956Y196650D01*
X36956Y197422D01*
X36956Y197423D01*
X36956Y198195D01*
X36943Y198260D01*
X36947Y198328D01*
X36745Y199859D01*
X36724Y199923D01*
X36719Y199990D01*
X36320Y201482D01*
X36290Y201542D01*
X36277Y201608D01*
X35686Y203035D01*
X35648Y203091D01*
X35627Y203154D01*
X34855Y204492D01*
X34810Y204542D01*
X34780Y204603D01*
X33840Y205828D01*
X33790Y205873D01*
X33752Y205928D01*
X32660Y207021D01*
X32604Y207058D01*
X32560Y207108D01*
X31335Y208049D01*
X31274Y208079D01*
X31224Y208123D01*
X29886Y208895D01*
X29822Y208917D01*
X29766Y208954D01*
X28340Y209545D01*
X28274Y209558D01*
X28213Y209588D01*
X26721Y209988D01*
X26654Y209992D01*
X26591Y210014D01*
X25059Y210215D01*
X24992Y210211D01*
X24926Y210224D01*
D02*
G37*
G36*
X370993Y210077D02*
X370221Y210077D01*
X370221Y210077D01*
X369448Y210077D01*
X369383Y210064D01*
X369315Y210069D01*
X367784Y209867D01*
X367720Y209845D01*
X367653Y209841D01*
X366161Y209441D01*
X366101Y209412D01*
X366035Y209398D01*
X364608Y208807D01*
X364552Y208770D01*
X364489Y208748D01*
X363151Y207976D01*
X363100Y207932D01*
X363040Y207902D01*
X361815Y206962D01*
X361770Y206911D01*
X361715Y206874D01*
X360622Y205782D01*
X360585Y205726D01*
X360535Y205681D01*
X359594Y204456D01*
X359564Y204396D01*
X359520Y204345D01*
X358748Y203008D01*
X358726Y202944D01*
X358689Y202888D01*
X358098Y201461D01*
X358085Y201395D01*
X358055Y201335D01*
X357655Y199843D01*
X357651Y199776D01*
X357629Y199712D01*
X357428Y198181D01*
X357432Y198114D01*
X357419Y198048D01*
Y197276D01*
X357419Y196503D01*
X357432Y196437D01*
X357428Y196370D01*
X357629Y194839D01*
X357651Y194775D01*
X357655Y194708D01*
X358055Y193216D01*
X358085Y193156D01*
X358098Y193090D01*
X358689Y191663D01*
X358726Y191607D01*
X358748Y191543D01*
X359520Y190206D01*
X359564Y190155D01*
X359594Y190095D01*
X360534Y188870D01*
X360585Y188825D01*
X360622Y188769D01*
X361714Y187677D01*
X361770Y187640D01*
X361815Y187589D01*
X363040Y186649D01*
X363100Y186619D01*
X363151Y186575D01*
X364489Y185803D01*
X364552Y185781D01*
X364608Y185744D01*
X366035Y185153D01*
X366101Y185140D01*
X366161Y185110D01*
X367653Y184710D01*
X367720Y184706D01*
X367784Y184684D01*
X369315Y184483D01*
X369383Y184487D01*
X369448Y184474D01*
X370221Y184474D01*
X370993Y184474D01*
X371059Y184487D01*
X371126Y184483D01*
X372657Y184684D01*
X372721Y184706D01*
X372788Y184710D01*
X374280Y185110D01*
X374340Y185140D01*
X374406Y185153D01*
X375833Y185744D01*
X375889Y185781D01*
X375953Y185803D01*
X377290Y186575D01*
X377341Y186619D01*
X377401Y186649D01*
X378627Y187589D01*
X378671Y187640D01*
X378727Y187677D01*
X379819Y188769D01*
X379856Y188825D01*
X379907Y188870D01*
X380847Y190095D01*
X380877Y190155D01*
X380921Y190206D01*
X381694Y191543D01*
X381715Y191607D01*
X381752Y191663D01*
X382344Y193090D01*
X382357Y193156D01*
X382386Y193216D01*
X382786Y194708D01*
X382790Y194775D01*
X382812Y194839D01*
X383014Y196370D01*
X383009Y196437D01*
X383022Y196503D01*
X383022Y197276D01*
X383022Y197276D01*
X383022Y198048D01*
X383009Y198114D01*
X383014Y198181D01*
X382812Y199712D01*
X382790Y199776D01*
X382786Y199843D01*
X382386Y201335D01*
X382357Y201395D01*
X382344Y201461D01*
X381752Y202888D01*
X381715Y202944D01*
X381694Y203008D01*
X380921Y204345D01*
X380877Y204396D01*
X380847Y204456D01*
X379907Y205681D01*
X379856Y205726D01*
X379819Y205782D01*
X378727Y206874D01*
X378671Y206911D01*
X378627Y206962D01*
X377401Y207902D01*
X377341Y207932D01*
X377290Y207976D01*
X375953Y208748D01*
X375889Y208770D01*
X375833Y208807D01*
X374406Y209398D01*
X374340Y209412D01*
X374280Y209441D01*
X372788Y209841D01*
X372721Y209845D01*
X372657Y209867D01*
X371126Y210069D01*
X371059Y210064D01*
X370993Y210077D01*
D02*
G37*
G36*
X318069Y200325D02*
X317366Y200325D01*
D01*
X316664Y200325D01*
X316598Y200312D01*
X316530Y200317D01*
X315137Y200133D01*
X315073Y200112D01*
X315006Y200107D01*
X313648Y199743D01*
X313588Y199714D01*
X313522Y199700D01*
X312223Y199163D01*
X312167Y199125D01*
X312104Y199104D01*
X310886Y198401D01*
X310836Y198356D01*
X310775Y198327D01*
X309660Y197471D01*
X309616Y197420D01*
X309560Y197383D01*
X308566Y196389D01*
X308529Y196333D01*
X308478Y196289D01*
X307623Y195174D01*
X307593Y195113D01*
X307548Y195063D01*
X306846Y193845D01*
X306824Y193782D01*
X306787Y193726D01*
X306249Y192427D01*
X306236Y192361D01*
X306206Y192301D01*
X305842Y190943D01*
X305838Y190876D01*
X305816Y190812D01*
X305633Y189419D01*
X305637Y189351D01*
X305624Y189286D01*
X305624Y188583D01*
X305624Y187880D01*
X305637Y187814D01*
X305633Y187747D01*
X305816Y186353D01*
X305838Y186290D01*
X305842Y186222D01*
X306206Y184865D01*
X306236Y184804D01*
X306249Y184738D01*
X306787Y183440D01*
X306824Y183384D01*
X306846Y183320D01*
X307548Y182103D01*
X307593Y182052D01*
X307623Y181992D01*
X308478Y180877D01*
X308529Y180832D01*
X308566Y180776D01*
X309560Y179782D01*
X309616Y179745D01*
X309660Y179694D01*
X310775Y178839D01*
X310836Y178809D01*
X310886Y178764D01*
X312104Y178062D01*
X312167Y178040D01*
X312223Y178003D01*
X313522Y177465D01*
X313588Y177452D01*
X313648Y177422D01*
X315006Y177058D01*
X315073Y177053D01*
X315137Y177032D01*
X316530Y176848D01*
X316598Y176853D01*
X316664Y176840D01*
X317366Y176840D01*
D01*
X318069Y176840D01*
X318135Y176853D01*
X318202Y176848D01*
X319596Y177032D01*
X319660Y177053D01*
X319727Y177058D01*
X321085Y177422D01*
X321145Y177451D01*
X321211Y177464D01*
X322510Y178002D01*
X322566Y178040D01*
X322629Y178061D01*
X323847Y178764D01*
X323897Y178809D01*
X323957Y178838D01*
X325073Y179694D01*
X325117Y179745D01*
X325173Y179782D01*
X326167Y180776D01*
X326204Y180832D01*
X326255Y180876D01*
X327111Y181992D01*
X327140Y182052D01*
X327185Y182102D01*
X327888Y183320D01*
X327909Y183384D01*
X327947Y183439D01*
X328485Y184738D01*
X328498Y184804D01*
X328527Y184864D01*
X328891Y186222D01*
X328896Y186289D01*
X328917Y186353D01*
X329101Y187747D01*
X329096Y187814D01*
X329109Y187880D01*
X329109Y188583D01*
X329109Y188583D01*
X329109Y189286D01*
X329096Y189351D01*
X329101Y189419D01*
X328917Y190812D01*
X328895Y190876D01*
X328891Y190943D01*
X328527Y192301D01*
X328498Y192361D01*
X328485Y192427D01*
X327946Y193726D01*
X327909Y193782D01*
X327888Y193845D01*
X327185Y195063D01*
X327140Y195113D01*
X327111Y195174D01*
X326255Y196289D01*
X326204Y196333D01*
X326167Y196389D01*
X325173Y197383D01*
X325117Y197421D01*
X325073Y197471D01*
X323957Y198327D01*
X323897Y198356D01*
X323847Y198401D01*
X322629Y199104D01*
X322566Y199125D01*
X322510Y199163D01*
X321211Y199701D01*
X321145Y199714D01*
X321084Y199743D01*
X319727Y200107D01*
X319660Y200112D01*
X319596Y200133D01*
X318202Y200317D01*
X318135Y200312D01*
X318069Y200325D01*
D02*
G37*
G36*
X75899D02*
X75196Y200325D01*
D01*
X74494Y200325D01*
X74428Y200312D01*
X74361Y200317D01*
X72967Y200133D01*
X72903Y200112D01*
X72836Y200107D01*
X71478Y199743D01*
X71418Y199714D01*
X71352Y199700D01*
X70053Y199163D01*
X69998Y199125D01*
X69934Y199104D01*
X68717Y198401D01*
X68666Y198356D01*
X68606Y198327D01*
X67491Y197471D01*
X67446Y197420D01*
X67390Y197383D01*
X66396Y196389D01*
X66359Y196333D01*
X66308Y196289D01*
X65453Y195174D01*
X65423Y195113D01*
X65379Y195063D01*
X64676Y193845D01*
X64654Y193782D01*
X64617Y193726D01*
X64079Y192427D01*
X64066Y192361D01*
X64036Y192301D01*
X63672Y190943D01*
X63668Y190876D01*
X63646Y190812D01*
X63463Y189419D01*
X63467Y189351D01*
X63454Y189286D01*
X63454Y188583D01*
X63454Y187880D01*
X63467Y187814D01*
X63463Y187747D01*
X63646Y186353D01*
X63668Y186290D01*
X63672Y186222D01*
X64036Y184865D01*
X64066Y184804D01*
X64079Y184738D01*
X64617Y183440D01*
X64654Y183384D01*
X64676Y183320D01*
X65378Y182103D01*
X65423Y182052D01*
X65453Y181992D01*
X66308Y180877D01*
X66359Y180832D01*
X66396Y180776D01*
X67390Y179782D01*
X67446Y179745D01*
X67490Y179694D01*
X68606Y178839D01*
X68666Y178809D01*
X68717Y178764D01*
X69934Y178062D01*
X69998Y178040D01*
X70053Y178003D01*
X71352Y177465D01*
X71418Y177452D01*
X71478Y177422D01*
X72836Y177058D01*
X72903Y177053D01*
X72967Y177032D01*
X74361Y176848D01*
X74428Y176853D01*
X74494Y176840D01*
X75196Y176840D01*
D01*
X75899Y176840D01*
X75965Y176853D01*
X76032Y176848D01*
X77426Y177032D01*
X77490Y177053D01*
X77557Y177058D01*
X78915Y177422D01*
X78975Y177451D01*
X79041Y177464D01*
X80340Y178002D01*
X80396Y178040D01*
X80459Y178061D01*
X81677Y178764D01*
X81727Y178809D01*
X81788Y178838D01*
X82903Y179694D01*
X82947Y179745D01*
X83003Y179782D01*
X83997Y180776D01*
X84035Y180832D01*
X84085Y180876D01*
X84941Y181992D01*
X84971Y182052D01*
X85015Y182102D01*
X85718Y183320D01*
X85739Y183384D01*
X85777Y183439D01*
X86315Y184738D01*
X86328Y184804D01*
X86358Y184864D01*
X86721Y186222D01*
X86726Y186289D01*
X86747Y186353D01*
X86931Y187747D01*
X86926Y187814D01*
X86940Y187880D01*
X86940Y188583D01*
X86940Y188583D01*
X86940Y189286D01*
X86926Y189351D01*
X86931Y189419D01*
X86747Y190812D01*
X86726Y190876D01*
X86721Y190943D01*
X86357Y192301D01*
X86328Y192361D01*
X86315Y192427D01*
X85777Y193726D01*
X85739Y193782D01*
X85718Y193845D01*
X85015Y195063D01*
X84970Y195113D01*
X84941Y195174D01*
X84085Y196289D01*
X84034Y196333D01*
X83997Y196389D01*
X83003Y197383D01*
X82947Y197421D01*
X82903Y197471D01*
X81788Y198327D01*
X81727Y198356D01*
X81677Y198401D01*
X80459Y199104D01*
X80396Y199125D01*
X80340Y199163D01*
X79041Y199701D01*
X78975Y199714D01*
X78915Y199743D01*
X77557Y200107D01*
X77490Y200112D01*
X77426Y200133D01*
X76032Y200317D01*
X75965Y200312D01*
X75899Y200325D01*
D02*
G37*
G36*
X259208Y207299D02*
X258115D01*
X257060Y207016D01*
X256114Y206470D01*
X255341Y205697D01*
X255038Y205173D01*
X245276D01*
X244501Y205019D01*
X243845Y204580D01*
X239514Y200250D01*
X239076Y199593D01*
X238922Y198819D01*
Y169199D01*
X238489Y168949D01*
X237744Y168204D01*
X237217Y167292D01*
X236945Y166275D01*
Y165221D01*
X237217Y164204D01*
X237744Y163292D01*
X238489Y162547D01*
X238922Y162297D01*
Y161325D01*
X238489Y161075D01*
X237744Y160330D01*
X237217Y159418D01*
X236945Y158401D01*
Y157347D01*
X237217Y156330D01*
X237744Y155418D01*
X238489Y154673D01*
X238922Y154423D01*
Y153451D01*
X238489Y153201D01*
X237744Y152456D01*
X237217Y151544D01*
X236945Y150527D01*
Y149473D01*
X237217Y148456D01*
X237744Y147544D01*
X238489Y146799D01*
X238922Y146549D01*
Y145577D01*
X238489Y145327D01*
X237744Y144582D01*
X237217Y143670D01*
X236945Y142653D01*
Y141599D01*
X237217Y140582D01*
X237744Y139670D01*
X238489Y138925D01*
X238922Y138675D01*
Y137703D01*
X238489Y137453D01*
X237744Y136708D01*
X237217Y135796D01*
X236945Y134779D01*
Y133725D01*
X237217Y132708D01*
X237744Y131796D01*
X238489Y131051D01*
X238922Y130801D01*
Y129829D01*
X238489Y129579D01*
X237744Y128834D01*
X237217Y127922D01*
X236945Y126905D01*
Y125851D01*
X237217Y124834D01*
X237744Y123922D01*
X238489Y123177D01*
X238922Y122927D01*
Y121955D01*
X238489Y121705D01*
X237744Y120960D01*
X237217Y120048D01*
X236945Y119030D01*
Y117977D01*
X237217Y116960D01*
X237744Y116048D01*
X238489Y115303D01*
X238922Y115053D01*
Y114081D01*
X238489Y113831D01*
X237744Y113086D01*
X237217Y112174D01*
X236945Y111156D01*
Y110103D01*
X237217Y109086D01*
X237744Y108174D01*
X238489Y107429D01*
X238922Y107179D01*
Y106207D01*
X238489Y105957D01*
X237744Y105212D01*
X237217Y104300D01*
X236945Y103282D01*
Y102229D01*
X237217Y101212D01*
X237744Y100300D01*
X238489Y99555D01*
X238922Y99305D01*
Y98333D01*
X238489Y98083D01*
X237744Y97338D01*
X237217Y96426D01*
X236945Y95408D01*
Y94355D01*
X237217Y93338D01*
X237744Y92426D01*
X238489Y91681D01*
X239401Y91154D01*
X240418Y90882D01*
X241472D01*
X242489Y91154D01*
X243401Y91681D01*
X244146Y92426D01*
X244672Y93338D01*
X244945Y94355D01*
Y95408D01*
X244672Y96426D01*
X244146Y97338D01*
X243401Y98083D01*
X242968Y98333D01*
Y99305D01*
X243401Y99555D01*
X244146Y100300D01*
X244672Y101212D01*
X244945Y102229D01*
Y103282D01*
X244672Y104300D01*
X244146Y105212D01*
X243401Y105957D01*
X242968Y106207D01*
Y107179D01*
X243401Y107429D01*
X244146Y108174D01*
X244672Y109086D01*
X244945Y110103D01*
Y111156D01*
X244672Y112174D01*
X244146Y113086D01*
X243401Y113831D01*
X242968Y114081D01*
Y115053D01*
X243401Y115303D01*
X244146Y116048D01*
X244672Y116960D01*
X244945Y117977D01*
Y119030D01*
X244672Y120048D01*
X244146Y120960D01*
X243401Y121705D01*
X242968Y121955D01*
Y122927D01*
X243401Y123177D01*
X244146Y123922D01*
X244672Y124834D01*
X244945Y125851D01*
Y126905D01*
X244672Y127922D01*
X244146Y128834D01*
X243401Y129579D01*
X242968Y129829D01*
Y130801D01*
X243401Y131051D01*
X244146Y131796D01*
X244672Y132708D01*
X244945Y133725D01*
Y134779D01*
X244672Y135796D01*
X244146Y136708D01*
X243401Y137453D01*
X242968Y137703D01*
Y138675D01*
X243401Y138925D01*
X244146Y139670D01*
X244672Y140582D01*
X244945Y141599D01*
Y142653D01*
X244672Y143670D01*
X244146Y144582D01*
X243401Y145327D01*
X242968Y145577D01*
Y146549D01*
X243401Y146799D01*
X244146Y147544D01*
X244672Y148456D01*
X244945Y149473D01*
Y150527D01*
X244672Y151544D01*
X244146Y152456D01*
X243401Y153201D01*
X242968Y153451D01*
Y154423D01*
X243401Y154673D01*
X244146Y155418D01*
X244672Y156330D01*
X244945Y157347D01*
Y158401D01*
X244672Y159418D01*
X244146Y160330D01*
X243401Y161075D01*
X242968Y161325D01*
Y162297D01*
X243401Y162547D01*
X244146Y163292D01*
X244672Y164204D01*
X244945Y165221D01*
Y166275D01*
X244672Y167292D01*
X244146Y168204D01*
X243401Y168949D01*
X242968Y169199D01*
Y197981D01*
X246114Y201127D01*
X255038D01*
X255341Y200602D01*
X256114Y199829D01*
X257060Y199283D01*
X258115Y199000D01*
X259208D01*
X260263Y199283D01*
X261209Y199829D01*
X261982Y200602D01*
X262528Y201548D01*
X262811Y202603D01*
Y203696D01*
X262528Y204751D01*
X261982Y205697D01*
X261209Y206470D01*
X260263Y207016D01*
X259208Y207299D01*
D02*
G37*
G36*
X219838D02*
X218745D01*
X217690Y207016D01*
X216743Y206470D01*
X215971Y205697D01*
X215424Y204751D01*
X215142Y203696D01*
Y202603D01*
X215424Y201548D01*
X215971Y200602D01*
X216743Y199829D01*
X217690Y199283D01*
X218745Y199000D01*
X219838D01*
X220893Y199283D01*
X221839Y199829D01*
X222612Y200602D01*
X223158Y201548D01*
X223441Y202603D01*
Y203696D01*
X223158Y204751D01*
X222612Y205697D01*
X221839Y206470D01*
X220893Y207016D01*
X219838Y207299D01*
D02*
G37*
G36*
X168898Y202224D02*
X161024D01*
X159735Y202054D01*
X158534Y201557D01*
X157502Y200765D01*
X156711Y199734D01*
X156214Y198533D01*
X156044Y197244D01*
X156214Y195955D01*
X156711Y194754D01*
X157502Y193723D01*
X158534Y192932D01*
X159735Y192434D01*
X161024Y192264D01*
X168898D01*
X170186Y192434D01*
X171387Y192932D01*
X172419Y193723D01*
X173210Y194754D01*
X173708Y195955D01*
X173877Y197244D01*
X173708Y198533D01*
X173210Y199734D01*
X172419Y200765D01*
X171387Y201557D01*
X170186Y202054D01*
X168898Y202224D01*
D02*
G37*
G36*
X259208Y191945D02*
X258115D01*
X257060Y191662D01*
X256114Y191116D01*
X255341Y190343D01*
X254795Y189397D01*
X254512Y188342D01*
Y187249D01*
X254795Y186194D01*
X255341Y185247D01*
X256114Y184475D01*
X257060Y183929D01*
X258115Y183646D01*
X259208D01*
X260263Y183929D01*
X261209Y184475D01*
X261982Y185247D01*
X262528Y186194D01*
X262811Y187249D01*
Y188342D01*
X262528Y189397D01*
X261982Y190343D01*
X261209Y191116D01*
X260263Y191662D01*
X259208Y191945D01*
D02*
G37*
G36*
X219838D02*
X218745D01*
X217690Y191662D01*
X216743Y191116D01*
X215971Y190343D01*
X215424Y189397D01*
X215142Y188342D01*
Y187249D01*
X215424Y186194D01*
X215971Y185247D01*
X216743Y184475D01*
X217690Y183929D01*
X218745Y183646D01*
X219838D01*
X220893Y183929D01*
X221839Y184475D01*
X222612Y185247D01*
X223158Y186194D01*
X223441Y187249D01*
Y188342D01*
X223158Y189397D01*
X222612Y190343D01*
X221839Y191116D01*
X220893Y191662D01*
X219838Y191945D01*
D02*
G37*
G36*
X184646Y194350D02*
X183357Y194180D01*
X182156Y193683D01*
X181124Y192891D01*
X180333Y191860D01*
X179836Y190659D01*
X179666Y189370D01*
Y181496D01*
X179836Y180207D01*
X180333Y179006D01*
X181124Y177975D01*
X182156Y177184D01*
X183357Y176686D01*
X184646Y176516D01*
X185934Y176686D01*
X187136Y177184D01*
X188167Y177975D01*
X188958Y179006D01*
X189456Y180207D01*
X189625Y181496D01*
Y189370D01*
X189456Y190659D01*
X188958Y191860D01*
X188167Y192891D01*
X187136Y193683D01*
X185934Y194180D01*
X184646Y194350D01*
D02*
G37*
G36*
X169882Y177814D02*
X160039D01*
X158750Y177645D01*
X157550Y177147D01*
X156518Y176356D01*
X155727Y175324D01*
X155229Y174124D01*
X155060Y172835D01*
X155229Y171546D01*
X155727Y170345D01*
X156518Y169314D01*
X157550Y168522D01*
X158750Y168025D01*
X160039Y167855D01*
X169882D01*
X171171Y168025D01*
X172372Y168522D01*
X173403Y169314D01*
X174194Y170345D01*
X174692Y171546D01*
X174862Y172835D01*
X174692Y174124D01*
X174194Y175324D01*
X173403Y176356D01*
X172372Y177147D01*
X171171Y177645D01*
X169882Y177814D01*
D02*
G37*
G36*
X315389Y154169D02*
X315339Y154159D01*
X315289Y154164D01*
X311439Y153785D01*
X311391Y153770D01*
X311340D01*
X307546Y153016D01*
X307500Y152996D01*
X307449Y152991D01*
X303747Y151868D01*
X303703Y151845D01*
X303653Y151835D01*
X300079Y150355D01*
X300037Y150326D01*
X299989Y150312D01*
X296578Y148488D01*
X296538Y148456D01*
X296492Y148437D01*
X293275Y146288D01*
X293240Y146252D01*
X293195Y146228D01*
X290205Y143774D01*
X290173Y143735D01*
X290131Y143707D01*
X287395Y140972D01*
X287367Y140930D01*
X287328Y140898D01*
X284874Y137907D01*
X284850Y137863D01*
X284815Y137827D01*
X282665Y134611D01*
X282646Y134564D01*
X282614Y134525D01*
X280791Y131113D01*
X280776Y131065D01*
X280748Y131023D01*
X279268Y127449D01*
X279258Y127399D01*
X279234Y127355D01*
X278111Y123653D01*
X278106Y123603D01*
X278087Y123556D01*
X277332Y119762D01*
Y119712D01*
X277317Y119663D01*
X276938Y115814D01*
X276943Y115763D01*
X276933Y115714D01*
Y113779D01*
Y113779D01*
X276933Y111845D01*
X276943Y111796D01*
X276938Y111745D01*
X277317Y107896D01*
X277332Y107847D01*
Y107797D01*
X278086Y104003D01*
X278106Y103956D01*
X278111Y103906D01*
X279234Y100204D01*
X279257Y100160D01*
X279267Y100110D01*
X280748Y96536D01*
X280776Y96494D01*
X280790Y96446D01*
X282614Y93034D01*
X282646Y92995D01*
X282665Y92948D01*
X284814Y89732D01*
X284850Y89696D01*
X284874Y89652D01*
X287328Y86661D01*
X287367Y86629D01*
X287395Y86587D01*
X290130Y83852D01*
X290173Y83824D01*
X290205Y83785D01*
X293195Y81331D01*
X293239Y81307D01*
X293275Y81271D01*
X296492Y79122D01*
X296538Y79103D01*
X296577Y79071D01*
X299989Y77247D01*
X300037Y77232D01*
X300079Y77204D01*
X303653Y75724D01*
X303703Y75714D01*
X303747Y75690D01*
X307449Y74567D01*
X307499Y74563D01*
X307546Y74543D01*
X311340Y73788D01*
X311391D01*
X311439Y73774D01*
X315289Y73395D01*
X315339Y73400D01*
X315389Y73390D01*
X317323Y73390D01*
X319257Y73390D01*
X319306Y73400D01*
X319357Y73395D01*
X323206Y73774D01*
X323255Y73788D01*
X323306D01*
X327099Y74543D01*
X327146Y74563D01*
X327197Y74567D01*
X330898Y75690D01*
X330943Y75714D01*
X330992Y75724D01*
X334566Y77204D01*
X334608Y77232D01*
X334657Y77247D01*
X338068Y79071D01*
X338107Y79103D01*
X338154Y79122D01*
X341370Y81271D01*
X341406Y81307D01*
X341451Y81331D01*
X344441Y83785D01*
X344473Y83824D01*
X344515Y83852D01*
X347250Y86587D01*
X347278Y86629D01*
X347318Y86661D01*
X349772Y89652D01*
X349795Y89696D01*
X349831Y89732D01*
X351980Y92948D01*
X352000Y92995D01*
X352032Y93034D01*
X353855Y96446D01*
X353870Y96494D01*
X353898Y96536D01*
X355378Y100110D01*
X355388Y100160D01*
X355412Y100204D01*
X356535Y103906D01*
X356540Y103956D01*
X356559Y104003D01*
X357314Y107797D01*
Y107847D01*
X357329Y107896D01*
X357708Y111745D01*
X357703Y111796D01*
X357713Y111845D01*
X357712Y113779D01*
X357712Y113780D01*
X357712Y115714D01*
X357702Y115763D01*
X357708Y115814D01*
X357328Y119663D01*
X357314Y119711D01*
Y119762D01*
X356559Y123556D01*
X356540Y123603D01*
X356535Y123653D01*
X355412Y127355D01*
X355388Y127399D01*
X355378Y127449D01*
X353898Y131023D01*
X353870Y131065D01*
X353855Y131113D01*
X352031Y134524D01*
X351999Y134564D01*
X351980Y134610D01*
X349831Y137827D01*
X349795Y137862D01*
X349771Y137907D01*
X347317Y140897D01*
X347278Y140929D01*
X347250Y140971D01*
X344515Y143706D01*
X344473Y143734D01*
X344441Y143773D01*
X341450Y146227D01*
X341406Y146251D01*
X341370Y146287D01*
X338154Y148436D01*
X338107Y148455D01*
X338068Y148487D01*
X334656Y150311D01*
X334608Y150326D01*
X334566Y150354D01*
X330992Y151834D01*
X330943Y151844D01*
X330898Y151868D01*
X327196Y152990D01*
X327146Y152995D01*
X327099Y153015D01*
X323305Y153769D01*
X323255D01*
X323206Y153784D01*
X319357Y154163D01*
X319306Y154158D01*
X319257Y154168D01*
X317329Y154168D01*
X317323Y154169D01*
X315389Y154169D01*
D02*
G37*
G36*
X73263Y153874D02*
X73213Y153864D01*
X73163Y153869D01*
X69313Y153490D01*
X69265Y153475D01*
X69214D01*
X65420Y152720D01*
X65373Y152701D01*
X65323Y152696D01*
X61621Y151573D01*
X61577Y151549D01*
X61527Y151540D01*
X57953Y150059D01*
X57911Y150031D01*
X57863Y150016D01*
X54452Y148193D01*
X54412Y148161D01*
X54366Y148142D01*
X51149Y145992D01*
X51114Y145957D01*
X51069Y145933D01*
X48079Y143479D01*
X48047Y143440D01*
X48005Y143412D01*
X45269Y140676D01*
X45241Y140634D01*
X45202Y140602D01*
X42748Y137612D01*
X42724Y137567D01*
X42689Y137532D01*
X40540Y134315D01*
X40520Y134269D01*
X40488Y134230D01*
X38665Y130818D01*
X38650Y130770D01*
X38622Y130728D01*
X37141Y127154D01*
X37132Y127104D01*
X37108Y127059D01*
X35985Y123358D01*
X35980Y123308D01*
X35961Y123261D01*
X35206Y119467D01*
Y119416D01*
X35191Y119368D01*
X34812Y115518D01*
X34817Y115468D01*
X34807Y115418D01*
Y113484D01*
Y113484D01*
X34807Y111550D01*
X34817Y111501D01*
X34812Y111450D01*
X35191Y107600D01*
X35206Y107552D01*
Y107501D01*
X35960Y103708D01*
X35980Y103661D01*
X35985Y103611D01*
X37108Y99909D01*
X37132Y99864D01*
X37141Y99815D01*
X38622Y96241D01*
X38650Y96199D01*
X38664Y96150D01*
X40488Y92739D01*
X40520Y92700D01*
X40539Y92653D01*
X42688Y89437D01*
X42724Y89401D01*
X42748Y89356D01*
X45202Y86366D01*
X45241Y86334D01*
X45269Y86292D01*
X48004Y83557D01*
X48046Y83529D01*
X48079Y83489D01*
X51069Y81035D01*
X51113Y81012D01*
X51149Y80976D01*
X54366Y78827D01*
X54412Y78807D01*
X54451Y78775D01*
X57863Y76952D01*
X57911Y76937D01*
X57953Y76909D01*
X61527Y75429D01*
X61577Y75419D01*
X61621Y75395D01*
X65323Y74272D01*
X65373Y74267D01*
X65420Y74248D01*
X69214Y73493D01*
X69265D01*
X69313Y73479D01*
X73163Y73099D01*
X73213Y73104D01*
X73263Y73095D01*
X75197Y73095D01*
X77131Y73095D01*
X77180Y73104D01*
X77231Y73099D01*
X81081Y73479D01*
X81129Y73493D01*
X81179D01*
X84973Y74248D01*
X85020Y74267D01*
X85071Y74272D01*
X88772Y75395D01*
X88817Y75419D01*
X88866Y75429D01*
X92440Y76909D01*
X92482Y76937D01*
X92531Y76952D01*
X95942Y78775D01*
X95981Y78807D01*
X96028Y78827D01*
X99244Y80976D01*
X99280Y81012D01*
X99325Y81035D01*
X102315Y83489D01*
X102347Y83529D01*
X102389Y83557D01*
X105124Y86292D01*
X105152Y86334D01*
X105192Y86366D01*
X107646Y89356D01*
X107669Y89401D01*
X107705Y89437D01*
X109854Y92653D01*
X109874Y92700D01*
X109906Y92739D01*
X111729Y96150D01*
X111744Y96199D01*
X111772Y96241D01*
X113252Y99815D01*
X113262Y99864D01*
X113286Y99909D01*
X114409Y103611D01*
X114414Y103661D01*
X114433Y103708D01*
X115188Y107501D01*
Y107552D01*
X115202Y107600D01*
X115582Y111450D01*
X115577Y111501D01*
X115586Y111550D01*
X115586Y113484D01*
X115586Y113484D01*
X115586Y115418D01*
X115577Y115468D01*
X115582Y115518D01*
X115202Y119368D01*
X115188Y119416D01*
Y119467D01*
X114433Y123261D01*
X114414Y123307D01*
X114409Y123358D01*
X113286Y127059D01*
X113262Y127104D01*
X113252Y127154D01*
X111772Y130727D01*
X111744Y130769D01*
X111729Y130818D01*
X109905Y134229D01*
X109873Y134268D01*
X109854Y134315D01*
X107705Y137531D01*
X107669Y137567D01*
X107645Y137612D01*
X105191Y140602D01*
X105152Y140634D01*
X105124Y140676D01*
X102389Y143411D01*
X102347Y143439D01*
X102315Y143478D01*
X99324Y145932D01*
X99280Y145956D01*
X99244Y145992D01*
X96028Y148141D01*
X95981Y148160D01*
X95942Y148192D01*
X92530Y150016D01*
X92482Y150030D01*
X92440Y150058D01*
X88866Y151539D01*
X88817Y151549D01*
X88772Y151572D01*
X85070Y152695D01*
X85020Y152700D01*
X84973Y152719D01*
X81179Y153474D01*
X81129D01*
X81080Y153489D01*
X77231Y153868D01*
X77180Y153863D01*
X77131Y153873D01*
X75203Y153873D01*
X75197Y153874D01*
X73263Y153874D01*
D02*
G37*
G36*
X279758Y163413D02*
X277819D01*
X277721Y163394D01*
X277620D01*
X275719Y163016D01*
X275626Y162977D01*
X275527Y162958D01*
X273736Y162216D01*
X273653Y162160D01*
X273560Y162121D01*
X271948Y161044D01*
X271877Y160973D01*
X271793Y160917D01*
X270422Y159546D01*
X270367Y159463D01*
X270296Y159392D01*
X269218Y157780D01*
X269180Y157687D01*
X269124Y157604D01*
X268382Y155813D01*
X268363Y155714D01*
X268324Y155621D01*
X267946Y153720D01*
Y153619D01*
X267926Y153521D01*
Y152551D01*
Y152158D01*
Y151188D01*
X267946Y151090D01*
Y150989D01*
X268324Y149088D01*
X268363Y148995D01*
X268382Y148897D01*
X269124Y147105D01*
X269180Y147022D01*
X269218Y146929D01*
X270296Y145317D01*
X270367Y145246D01*
X270422Y145162D01*
X271793Y143791D01*
X271877Y143736D01*
X271948Y143665D01*
X273560Y142587D01*
X273653Y142549D01*
X273736Y142493D01*
X275527Y141751D01*
X275626Y141732D01*
X275719Y141693D01*
X277620Y141315D01*
X277721D01*
X277819Y141296D01*
X279758D01*
X279856Y141315D01*
X279957D01*
X281858Y141693D01*
X281951Y141732D01*
X282050Y141751D01*
X283841Y142493D01*
X283924Y142549D01*
X284017Y142587D01*
X285629Y143665D01*
X285700Y143736D01*
X285784Y143791D01*
X287155Y145162D01*
X287210Y145246D01*
X287281Y145317D01*
X288359Y146929D01*
X288397Y147022D01*
X288453Y147105D01*
X289195Y148897D01*
X289214Y148995D01*
X289253Y149088D01*
X289631Y150989D01*
Y151090D01*
X289651Y151188D01*
Y152158D01*
Y152551D01*
Y153521D01*
X289631Y153619D01*
Y153720D01*
X289253Y155621D01*
X289214Y155714D01*
X289195Y155813D01*
X288453Y157604D01*
X288397Y157687D01*
X288359Y157780D01*
X287281Y159392D01*
X287210Y159463D01*
X287155Y159546D01*
X285784Y160917D01*
X285700Y160973D01*
X285629Y161044D01*
X284017Y162121D01*
X283924Y162160D01*
X283841Y162216D01*
X282050Y162958D01*
X281951Y162977D01*
X281858Y163016D01*
X279957Y163394D01*
X279856D01*
X279758Y163413D01*
D02*
G37*
G36*
X356875Y163224D02*
X354936D01*
X354838Y163205D01*
X354737D01*
X352836Y162827D01*
X352743Y162788D01*
X352644Y162768D01*
X350853Y162027D01*
X350770Y161971D01*
X350677Y161932D01*
X349065Y160855D01*
X348994Y160784D01*
X348910Y160728D01*
X347539Y159357D01*
X347484Y159274D01*
X347413Y159203D01*
X346335Y157591D01*
X346297Y157498D01*
X346241Y157415D01*
X345499Y155623D01*
X345480Y155525D01*
X345441Y155432D01*
X345063Y153531D01*
Y153430D01*
X345043Y153332D01*
Y152362D01*
Y151969D01*
Y150999D01*
X345063Y150901D01*
Y150800D01*
X345441Y148899D01*
X345480Y148806D01*
X345499Y148707D01*
X346241Y146916D01*
X346297Y146833D01*
X346335Y146740D01*
X347413Y145128D01*
X347484Y145057D01*
X347539Y144973D01*
X348910Y143602D01*
X348994Y143547D01*
X349065Y143475D01*
X350677Y142398D01*
X350770Y142360D01*
X350853Y142304D01*
X352644Y141562D01*
X352743Y141543D01*
X352836Y141504D01*
X354737Y141126D01*
X354838D01*
X354936Y141106D01*
X356875D01*
X356973Y141126D01*
X357074D01*
X358975Y141504D01*
X359068Y141543D01*
X359167Y141562D01*
X360958Y142304D01*
X361041Y142360D01*
X361134Y142398D01*
X362746Y143475D01*
X362817Y143547D01*
X362901Y143602D01*
X364272Y144973D01*
X364327Y145057D01*
X364399Y145128D01*
X365476Y146740D01*
X365514Y146833D01*
X365570Y146916D01*
X366312Y148707D01*
X366331Y148806D01*
X366370Y148899D01*
X366748Y150800D01*
Y150901D01*
X366768Y150999D01*
Y151969D01*
Y152362D01*
Y153332D01*
X366748Y153430D01*
Y153531D01*
X366370Y155432D01*
X366331Y155525D01*
X366312Y155623D01*
X365570Y157415D01*
X365514Y157498D01*
X365476Y157591D01*
X364399Y159203D01*
X364327Y159274D01*
X364272Y159357D01*
X362901Y160728D01*
X362817Y160784D01*
X362746Y160855D01*
X361134Y161932D01*
X361041Y161971D01*
X360958Y162027D01*
X359167Y162768D01*
X359068Y162788D01*
X358975Y162827D01*
X357074Y163205D01*
X356973D01*
X356875Y163224D01*
D02*
G37*
G36*
X37632Y163118D02*
X35693D01*
X35595Y163099D01*
X35494D01*
X33593Y162720D01*
X33500Y162682D01*
X33401Y162662D01*
X31610Y161920D01*
X31527Y161865D01*
X31434Y161826D01*
X29822Y160749D01*
X29751Y160678D01*
X29667Y160622D01*
X28296Y159251D01*
X28241Y159168D01*
X28170Y159097D01*
X27092Y157485D01*
X27054Y157392D01*
X26998Y157308D01*
X26256Y155517D01*
X26237Y155419D01*
X26198Y155326D01*
X25820Y153424D01*
Y153324D01*
X25800Y153226D01*
Y152256D01*
Y151862D01*
Y150893D01*
X25820Y150794D01*
Y150694D01*
X26198Y148793D01*
X26237Y148700D01*
X26256Y148601D01*
X26998Y146810D01*
X27054Y146727D01*
X27092Y146634D01*
X28170Y145022D01*
X28241Y144951D01*
X28296Y144867D01*
X29667Y143496D01*
X29751Y143440D01*
X29822Y143369D01*
X31434Y142292D01*
X31527Y142254D01*
X31610Y142198D01*
X33401Y141456D01*
X33500Y141437D01*
X33593Y141398D01*
X35494Y141020D01*
X35595D01*
X35693Y141000D01*
X37632D01*
X37730Y141020D01*
X37831D01*
X39732Y141398D01*
X39825Y141437D01*
X39924Y141456D01*
X41715Y142198D01*
X41798Y142254D01*
X41891Y142292D01*
X43503Y143369D01*
X43574Y143440D01*
X43658Y143496D01*
X45029Y144867D01*
X45084Y144951D01*
X45155Y145022D01*
X46233Y146634D01*
X46271Y146727D01*
X46327Y146810D01*
X47069Y148601D01*
X47088Y148700D01*
X47127Y148793D01*
X47505Y150694D01*
Y150794D01*
X47525Y150893D01*
Y151862D01*
Y152256D01*
Y153226D01*
X47505Y153324D01*
Y153424D01*
X47127Y155326D01*
X47088Y155419D01*
X47069Y155517D01*
X46327Y157308D01*
X46271Y157392D01*
X46233Y157485D01*
X45155Y159097D01*
X45084Y159168D01*
X45029Y159251D01*
X43658Y160622D01*
X43574Y160678D01*
X43503Y160749D01*
X41891Y161826D01*
X41798Y161865D01*
X41715Y161920D01*
X39924Y162662D01*
X39825Y162682D01*
X39732Y162720D01*
X37831Y163099D01*
X37730D01*
X37632Y163118D01*
D02*
G37*
G36*
X114749Y162929D02*
X112810D01*
X112712Y162909D01*
X112611D01*
X110710Y162531D01*
X110617Y162493D01*
X110518Y162473D01*
X108727Y161731D01*
X108644Y161675D01*
X108551Y161637D01*
X106939Y160560D01*
X106868Y160489D01*
X106784Y160433D01*
X105413Y159062D01*
X105358Y158979D01*
X105287Y158908D01*
X104209Y157296D01*
X104171Y157203D01*
X104115Y157119D01*
X103373Y155328D01*
X103354Y155229D01*
X103315Y155137D01*
X102937Y153235D01*
Y153135D01*
X102917Y153036D01*
Y152067D01*
Y151673D01*
Y150704D01*
X102937Y150605D01*
Y150505D01*
X103315Y148603D01*
X103354Y148511D01*
X103373Y148412D01*
X104115Y146621D01*
X104171Y146537D01*
X104209Y146445D01*
X105287Y144833D01*
X105358Y144762D01*
X105413Y144678D01*
X106784Y143307D01*
X106868Y143251D01*
X106939Y143180D01*
X108551Y142103D01*
X108644Y142065D01*
X108727Y142009D01*
X110518Y141267D01*
X110617Y141247D01*
X110710Y141209D01*
X112611Y140831D01*
X112712D01*
X112810Y140811D01*
X114749D01*
X114847Y140831D01*
X114948D01*
X116849Y141209D01*
X116942Y141247D01*
X117041Y141267D01*
X118832Y142009D01*
X118915Y142065D01*
X119008Y142103D01*
X120620Y143180D01*
X120691Y143251D01*
X120775Y143307D01*
X122146Y144678D01*
X122201Y144762D01*
X122273Y144833D01*
X123350Y146445D01*
X123388Y146537D01*
X123444Y146621D01*
X124186Y148412D01*
X124205Y148511D01*
X124244Y148603D01*
X124622Y150505D01*
Y150605D01*
X124642Y150704D01*
Y151673D01*
Y152067D01*
Y153036D01*
X124622Y153135D01*
Y153235D01*
X124244Y155137D01*
X124205Y155230D01*
X124186Y155328D01*
X123444Y157119D01*
X123388Y157203D01*
X123350Y157296D01*
X122273Y158908D01*
X122201Y158979D01*
X122146Y159062D01*
X120775Y160433D01*
X120691Y160489D01*
X120620Y160560D01*
X119008Y161637D01*
X118915Y161675D01*
X118832Y161731D01*
X117041Y162473D01*
X116942Y162493D01*
X116849Y162531D01*
X114948Y162909D01*
X114847D01*
X114749Y162929D01*
D02*
G37*
G36*
X279760Y86347D02*
X277821D01*
X277722Y86327D01*
X277622D01*
X275720Y85949D01*
X275628Y85910D01*
X275529Y85891D01*
X273738Y85149D01*
X273654Y85093D01*
X273562Y85054D01*
X271950Y83977D01*
X271879Y83906D01*
X271795Y83851D01*
X270424Y82480D01*
X270368Y82396D01*
X270297Y82325D01*
X269220Y80713D01*
X269182Y80620D01*
X269126Y80537D01*
X268384Y78746D01*
X268364Y78647D01*
X268326Y78554D01*
X267948Y76653D01*
Y76552D01*
X267928Y76454D01*
Y75484D01*
Y75091D01*
Y74121D01*
X267948Y74023D01*
Y73922D01*
X268326Y72021D01*
X268364Y71928D01*
X268384Y71830D01*
X269126Y70038D01*
X269182Y69955D01*
X269220Y69862D01*
X270297Y68250D01*
X270368Y68179D01*
X270424Y68095D01*
X271795Y66724D01*
X271879Y66669D01*
X271950Y66598D01*
X273562Y65521D01*
X273654Y65482D01*
X273738Y65426D01*
X275529Y64684D01*
X275628Y64665D01*
X275720Y64626D01*
X277622Y64248D01*
X277722D01*
X277821Y64229D01*
X279760D01*
X279858Y64248D01*
X279959D01*
X281860Y64626D01*
X281953Y64665D01*
X282051Y64684D01*
X283843Y65426D01*
X283926Y65482D01*
X284019Y65521D01*
X285631Y66598D01*
X285702Y66669D01*
X285786Y66724D01*
X287156Y68095D01*
X287212Y68179D01*
X287283Y68250D01*
X288360Y69862D01*
X288399Y69955D01*
X288455Y70038D01*
X289196Y71830D01*
X289216Y71928D01*
X289254Y72021D01*
X289633Y73922D01*
Y74023D01*
X289652Y74121D01*
Y75091D01*
Y75484D01*
Y76454D01*
X289633Y76552D01*
Y76653D01*
X289254Y78554D01*
X289216Y78647D01*
X289196Y78746D01*
X288455Y80537D01*
X288399Y80620D01*
X288360Y80713D01*
X287283Y82325D01*
X287212Y82396D01*
X287156Y82480D01*
X285786Y83851D01*
X285702Y83906D01*
X285631Y83977D01*
X284019Y85054D01*
X283926Y85093D01*
X283843Y85149D01*
X282051Y85891D01*
X281953Y85910D01*
X281860Y85949D01*
X279959Y86327D01*
X279858D01*
X279760Y86347D01*
D02*
G37*
G36*
X356924Y86273D02*
X354985D01*
X354886Y86253D01*
X354786D01*
X352884Y85875D01*
X352792Y85836D01*
X352693Y85817D01*
X350902Y85075D01*
X350818Y85019D01*
X350726Y84981D01*
X349114Y83903D01*
X349043Y83832D01*
X348959Y83777D01*
X347588Y82406D01*
X347532Y82322D01*
X347461Y82251D01*
X346384Y80639D01*
X346346Y80546D01*
X346290Y80463D01*
X345548Y78672D01*
X345529Y78573D01*
X345490Y78480D01*
X345112Y76579D01*
Y76478D01*
X345092Y76380D01*
Y75410D01*
Y75017D01*
Y74047D01*
X345112Y73949D01*
Y73848D01*
X345490Y71947D01*
X345529Y71854D01*
X345548Y71756D01*
X346290Y69964D01*
X346346Y69881D01*
X346384Y69788D01*
X347461Y68176D01*
X347532Y68105D01*
X347588Y68022D01*
X348959Y66651D01*
X349043Y66595D01*
X349114Y66524D01*
X350726Y65447D01*
X350818Y65408D01*
X350902Y65352D01*
X352693Y64610D01*
X352792Y64591D01*
X352885Y64552D01*
X354786Y64174D01*
X354886D01*
X354985Y64155D01*
X356924D01*
X357022Y64174D01*
X357123D01*
X359024Y64552D01*
X359117Y64591D01*
X359215Y64610D01*
X361007Y65352D01*
X361090Y65408D01*
X361183Y65447D01*
X362795Y66524D01*
X362866Y66595D01*
X362949Y66651D01*
X364320Y68022D01*
X364376Y68105D01*
X364447Y68176D01*
X365524Y69788D01*
X365563Y69881D01*
X365619Y69964D01*
X366361Y71756D01*
X366380Y71854D01*
X366419Y71947D01*
X366797Y73848D01*
Y73949D01*
X366816Y74047D01*
Y75017D01*
Y75410D01*
Y76380D01*
X366797Y76478D01*
Y76579D01*
X366419Y78480D01*
X366380Y78573D01*
X366361Y78672D01*
X365619Y80463D01*
X365563Y80546D01*
X365524Y80639D01*
X364447Y82251D01*
X364376Y82322D01*
X364320Y82406D01*
X362949Y83777D01*
X362866Y83832D01*
X362795Y83903D01*
X361183Y84981D01*
X361090Y85019D01*
X361007Y85075D01*
X359215Y85817D01*
X359117Y85836D01*
X359024Y85875D01*
X357123Y86253D01*
X357022D01*
X356924Y86273D01*
D02*
G37*
G36*
X37634Y86051D02*
X35695D01*
X35596Y86032D01*
X35496D01*
X33594Y85653D01*
X33502Y85615D01*
X33403Y85595D01*
X31612Y84853D01*
X31528Y84798D01*
X31436Y84759D01*
X29824Y83682D01*
X29753Y83611D01*
X29669Y83555D01*
X28298Y82184D01*
X28242Y82101D01*
X28171Y82030D01*
X27094Y80418D01*
X27056Y80325D01*
X27000Y80242D01*
X26258Y78450D01*
X26238Y78352D01*
X26200Y78259D01*
X25822Y76357D01*
Y76257D01*
X25802Y76158D01*
Y75189D01*
Y74795D01*
Y73826D01*
X25822Y73728D01*
Y73627D01*
X26200Y71725D01*
X26238Y71633D01*
X26258Y71534D01*
X27000Y69743D01*
X27056Y69660D01*
X27094Y69567D01*
X28171Y67955D01*
X28242Y67884D01*
X28298Y67800D01*
X29669Y66429D01*
X29753Y66373D01*
X29824Y66303D01*
X31436Y65225D01*
X31528Y65187D01*
X31612Y65131D01*
X33403Y64389D01*
X33502Y64370D01*
X33594Y64331D01*
X35496Y63953D01*
X35596D01*
X35695Y63933D01*
X37634D01*
X37732Y63953D01*
X37833D01*
X39734Y64331D01*
X39827Y64370D01*
X39925Y64389D01*
X41717Y65131D01*
X41800Y65187D01*
X41893Y65225D01*
X43505Y66303D01*
X43576Y66373D01*
X43659Y66429D01*
X45030Y67800D01*
X45086Y67884D01*
X45157Y67955D01*
X46234Y69567D01*
X46273Y69660D01*
X46329Y69743D01*
X47071Y71534D01*
X47090Y71633D01*
X47128Y71725D01*
X47507Y73627D01*
Y73728D01*
X47526Y73826D01*
Y74795D01*
Y75189D01*
Y76158D01*
X47507Y76257D01*
Y76357D01*
X47128Y78259D01*
X47090Y78352D01*
X47071Y78450D01*
X46329Y80242D01*
X46273Y80325D01*
X46234Y80418D01*
X45157Y82030D01*
X45086Y82101D01*
X45030Y82184D01*
X43659Y83555D01*
X43576Y83611D01*
X43505Y83682D01*
X41893Y84759D01*
X41800Y84798D01*
X41717Y84853D01*
X39925Y85595D01*
X39827Y85615D01*
X39734Y85653D01*
X37833Y86032D01*
X37732D01*
X37634Y86051D01*
D02*
G37*
G36*
X114798Y85977D02*
X112859D01*
X112760Y85958D01*
X112660D01*
X110758Y85580D01*
X110666Y85541D01*
X110567Y85521D01*
X108776Y84780D01*
X108693Y84724D01*
X108600Y84685D01*
X106988Y83608D01*
X106917Y83537D01*
X106833Y83481D01*
X105462Y82110D01*
X105406Y82027D01*
X105335Y81956D01*
X104258Y80344D01*
X104220Y80251D01*
X104164Y80168D01*
X103422Y78376D01*
X103402Y78278D01*
X103364Y78185D01*
X102986Y76284D01*
Y76183D01*
X102966Y76085D01*
Y75115D01*
Y74721D01*
Y73752D01*
X102986Y73654D01*
Y73553D01*
X103364Y71652D01*
X103402Y71559D01*
X103422Y71460D01*
X104164Y69669D01*
X104220Y69586D01*
X104258Y69493D01*
X105335Y67881D01*
X105406Y67810D01*
X105462Y67726D01*
X106833Y66355D01*
X106917Y66300D01*
X106988Y66228D01*
X108600Y65151D01*
X108693Y65113D01*
X108776Y65057D01*
X110567Y64315D01*
X110666Y64296D01*
X110758Y64257D01*
X112660Y63879D01*
X112760D01*
X112859Y63859D01*
X114798D01*
X114896Y63879D01*
X114997D01*
X116898Y64257D01*
X116991Y64296D01*
X117089Y64315D01*
X118881Y65057D01*
X118964Y65113D01*
X119057Y65151D01*
X120669Y66228D01*
X120740Y66299D01*
X120824Y66355D01*
X122195Y67726D01*
X122250Y67810D01*
X122321Y67881D01*
X123398Y69493D01*
X123437Y69586D01*
X123493Y69669D01*
X124235Y71460D01*
X124254Y71559D01*
X124293Y71652D01*
X124671Y73553D01*
Y73654D01*
X124690Y73752D01*
Y74721D01*
Y75115D01*
Y76085D01*
X124671Y76183D01*
Y76284D01*
X124293Y78185D01*
X124254Y78278D01*
X124235Y78376D01*
X123493Y80168D01*
X123437Y80251D01*
X123398Y80344D01*
X122321Y81956D01*
X122250Y82027D01*
X122195Y82110D01*
X120824Y83481D01*
X120740Y83537D01*
X120669Y83608D01*
X119057Y84685D01*
X118964Y84724D01*
X118881Y84780D01*
X117089Y85521D01*
X116991Y85541D01*
X116898Y85580D01*
X114997Y85958D01*
X114896D01*
X114798Y85977D01*
D02*
G37*
G36*
X24918Y37642D02*
X24145Y37642D01*
X24145Y37642D01*
X23373Y37642D01*
X23307Y37629D01*
X23240Y37633D01*
X21709Y37432D01*
X21645Y37410D01*
X21578Y37405D01*
X20086Y37006D01*
X20026Y36976D01*
X19960Y36963D01*
X18533Y36372D01*
X18477Y36334D01*
X18413Y36313D01*
X17076Y35541D01*
X17025Y35496D01*
X16965Y35467D01*
X15740Y34526D01*
X15695Y34476D01*
X15639Y34438D01*
X14547Y33346D01*
X14510Y33290D01*
X14459Y33246D01*
X13519Y32021D01*
X13489Y31960D01*
X13445Y31910D01*
X12673Y30572D01*
X12651Y30509D01*
X12614Y30453D01*
X12023Y29026D01*
X12009Y28960D01*
X11980Y28899D01*
X11580Y27408D01*
X11576Y27340D01*
X11554Y27277D01*
X11352Y25745D01*
X11357Y25678D01*
X11344Y25612D01*
Y24840D01*
X11344Y24068D01*
X11357Y24002D01*
X11352Y23935D01*
X11554Y22403D01*
X11575Y22340D01*
X11580Y22273D01*
X11980Y20781D01*
X12009Y20720D01*
X12022Y20654D01*
X12614Y19228D01*
X12651Y19172D01*
X12673Y19108D01*
X13445Y17770D01*
X13489Y17720D01*
X13519Y17660D01*
X14459Y16434D01*
X14510Y16390D01*
X14547Y16334D01*
X15639Y15242D01*
X15695Y15204D01*
X15740Y15154D01*
X16965Y14214D01*
X17025Y14184D01*
X17076Y14140D01*
X18413Y13367D01*
X18477Y13346D01*
X18533Y13308D01*
X19960Y12717D01*
X20026Y12704D01*
X20086Y12674D01*
X21578Y12275D01*
X21645Y12270D01*
X21709Y12249D01*
X23240Y12047D01*
X23307Y12051D01*
X23373Y12038D01*
X24145Y12038D01*
X24918Y12038D01*
X24984Y12051D01*
X25051Y12047D01*
X26582Y12249D01*
X26646Y12270D01*
X26713Y12275D01*
X28205Y12674D01*
X28265Y12704D01*
X28331Y12717D01*
X29758Y13308D01*
X29814Y13346D01*
X29878Y13367D01*
X31215Y14140D01*
X31266Y14184D01*
X31326Y14213D01*
X32551Y15154D01*
X32596Y15204D01*
X32652Y15242D01*
X33744Y16334D01*
X33781Y16390D01*
X33832Y16434D01*
X34772Y17660D01*
X34802Y17720D01*
X34846Y17770D01*
X35618Y19108D01*
X35640Y19172D01*
X35677Y19228D01*
X36268Y20654D01*
X36281Y20720D01*
X36311Y20781D01*
X36711Y22273D01*
X36715Y22340D01*
X36737Y22403D01*
X36939Y23935D01*
X36934Y24002D01*
X36947Y24068D01*
X36947Y24840D01*
X36947Y24840D01*
X36947Y25612D01*
X36934Y25678D01*
X36938Y25745D01*
X36737Y27277D01*
X36715Y27340D01*
X36711Y27408D01*
X36311Y28899D01*
X36281Y28960D01*
X36268Y29026D01*
X35677Y30453D01*
X35640Y30509D01*
X35618Y30572D01*
X34846Y31910D01*
X34802Y31960D01*
X34772Y32021D01*
X33832Y33246D01*
X33781Y33290D01*
X33744Y33346D01*
X32652Y34438D01*
X32596Y34476D01*
X32551Y34526D01*
X31326Y35467D01*
X31266Y35496D01*
X31215Y35541D01*
X29878Y36313D01*
X29814Y36334D01*
X29758Y36372D01*
X28331Y36963D01*
X28265Y36976D01*
X28205Y37006D01*
X26713Y37406D01*
X26646Y37410D01*
X26582Y37432D01*
X25051Y37633D01*
X24984Y37629D01*
X24918Y37642D01*
D02*
G37*
G36*
X370993Y37636D02*
X370221Y37636D01*
X370221Y37636D01*
X369448Y37636D01*
X369383Y37623D01*
X369315Y37628D01*
X367784Y37426D01*
X367720Y37405D01*
X367653Y37400D01*
X366161Y37000D01*
X366101Y36971D01*
X366035Y36957D01*
X364608Y36366D01*
X364552Y36329D01*
X364489Y36307D01*
X363151Y35535D01*
X363100Y35491D01*
X363040Y35461D01*
X361815Y34521D01*
X361770Y34470D01*
X361715Y34433D01*
X360622Y33341D01*
X360585Y33285D01*
X360535Y33241D01*
X359594Y32015D01*
X359564Y31955D01*
X359520Y31904D01*
X358748Y30567D01*
X358726Y30503D01*
X358689Y30447D01*
X358098Y29020D01*
X358085Y28954D01*
X358055Y28894D01*
X357655Y27402D01*
X357651Y27335D01*
X357629Y27271D01*
X357428Y25740D01*
X357432Y25673D01*
X357419Y25607D01*
Y24835D01*
X357419Y24062D01*
X357432Y23996D01*
X357428Y23929D01*
X357629Y22398D01*
X357651Y22334D01*
X357655Y22267D01*
X358055Y20775D01*
X358085Y20715D01*
X358098Y20649D01*
X358689Y19222D01*
X358726Y19166D01*
X358748Y19103D01*
X359520Y17765D01*
X359564Y17714D01*
X359594Y17654D01*
X360534Y16429D01*
X360585Y16384D01*
X360622Y16328D01*
X361714Y15236D01*
X361770Y15199D01*
X361815Y15148D01*
X363040Y14208D01*
X363100Y14178D01*
X363151Y14134D01*
X364489Y13362D01*
X364552Y13340D01*
X364608Y13303D01*
X366035Y12712D01*
X366101Y12699D01*
X366161Y12669D01*
X367653Y12269D01*
X367720Y12265D01*
X367784Y12243D01*
X369315Y12042D01*
X369383Y12046D01*
X369448Y12033D01*
X370221Y12033D01*
X370993Y12033D01*
X371059Y12046D01*
X371126Y12042D01*
X372657Y12243D01*
X372721Y12265D01*
X372788Y12269D01*
X374280Y12669D01*
X374340Y12699D01*
X374406Y12712D01*
X375833Y13303D01*
X375889Y13340D01*
X375953Y13362D01*
X377290Y14134D01*
X377341Y14178D01*
X377401Y14208D01*
X378627Y15148D01*
X378671Y15199D01*
X378727Y15236D01*
X379819Y16328D01*
X379856Y16384D01*
X379907Y16429D01*
X380847Y17654D01*
X380877Y17714D01*
X380921Y17765D01*
X381694Y19102D01*
X381715Y19166D01*
X381752Y19222D01*
X382344Y20649D01*
X382357Y20715D01*
X382386Y20775D01*
X382786Y22267D01*
X382790Y22334D01*
X382812Y22398D01*
X383014Y23929D01*
X383009Y23996D01*
X383022Y24062D01*
X383022Y24835D01*
X383022Y24835D01*
X383022Y25607D01*
X383009Y25673D01*
X383014Y25740D01*
X382812Y27271D01*
X382790Y27335D01*
X382786Y27402D01*
X382386Y28894D01*
X382357Y28954D01*
X382344Y29020D01*
X381752Y30447D01*
X381715Y30503D01*
X381694Y30567D01*
X380921Y31904D01*
X380877Y31955D01*
X380847Y32015D01*
X379907Y33241D01*
X379856Y33285D01*
X379819Y33341D01*
X378727Y34433D01*
X378671Y34470D01*
X378627Y34521D01*
X377401Y35461D01*
X377341Y35491D01*
X377290Y35535D01*
X375953Y36307D01*
X375889Y36329D01*
X375833Y36366D01*
X374406Y36957D01*
X374340Y36971D01*
X374280Y37000D01*
X372788Y37400D01*
X372721Y37405D01*
X372657Y37426D01*
X371126Y37628D01*
X371059Y37623D01*
X370993Y37636D01*
D02*
G37*
G36*
X298272Y38028D02*
X210783D01*
X210685Y38008D01*
X210584D01*
X209286Y37750D01*
X209193Y37711D01*
X209095Y37692D01*
X207872Y37185D01*
X207788Y37129D01*
X207695Y37091D01*
X206594Y36355D01*
X206523Y36284D01*
X206440Y36228D01*
X205504Y35292D01*
X205448Y35209D01*
X205377Y35138D01*
X204642Y34037D01*
X204603Y33944D01*
X204547Y33861D01*
X204041Y32638D01*
X204021Y32539D01*
X203983Y32446D01*
X203724Y31148D01*
Y31047D01*
X203705Y30949D01*
Y30287D01*
Y30287D01*
Y23650D01*
Y22988D01*
X203724Y22890D01*
Y22789D01*
X203983Y21491D01*
X204021Y21398D01*
X204041Y21299D01*
X204547Y20076D01*
X204603Y19993D01*
X204642Y19900D01*
X205377Y18799D01*
X205448Y18728D01*
X205504Y18645D01*
X206440Y17709D01*
X206523Y17653D01*
X206594Y17582D01*
X207695Y16846D01*
X207788Y16808D01*
X207872Y16752D01*
X209095Y16245D01*
X209193Y16226D01*
X209286Y16187D01*
X210584Y15929D01*
X210685D01*
X210783Y15910D01*
X211445D01*
X297610Y15910D01*
X298272D01*
X298370Y15929D01*
X298471D01*
X299769Y16187D01*
X299862Y16226D01*
X299960Y16245D01*
X301184Y16752D01*
X301267Y16808D01*
X301360Y16846D01*
X302461Y17582D01*
X302532Y17653D01*
X302615Y17709D01*
X303551Y18645D01*
X303607Y18728D01*
X303678Y18799D01*
X304414Y19900D01*
X304452Y19993D01*
X304508Y20076D01*
X305014Y21299D01*
X305034Y21398D01*
X305072Y21491D01*
X305331Y22789D01*
Y22890D01*
X305350Y22988D01*
Y23650D01*
Y30287D01*
Y30949D01*
X305331Y31047D01*
Y31148D01*
X305072Y32446D01*
X305034Y32539D01*
X305014Y32638D01*
X304508Y33861D01*
X304452Y33944D01*
X304414Y34037D01*
X303678Y35138D01*
X303607Y35209D01*
X303551Y35292D01*
X302615Y36228D01*
X302532Y36284D01*
X302461Y36355D01*
X301360Y37091D01*
X301267Y37129D01*
X301184Y37185D01*
X299960Y37692D01*
X299862Y37711D01*
X299769Y37750D01*
X298471Y38008D01*
X298370D01*
X298272Y38028D01*
D02*
G37*
%LPD*%
D10*
X240945Y94882D02*
Y102756D01*
Y110630D01*
Y118504D01*
Y126378D01*
Y134252D01*
Y142126D01*
Y150000D01*
Y157874D01*
Y165748D01*
Y198819D02*
X245276Y203150D01*
X240945Y165748D02*
Y198819D01*
X245276Y203150D02*
X258661D01*
D20*
X184646Y185433D02*
D03*
D21*
X164961Y197244D02*
D03*
D22*
Y172835D02*
D03*
D23*
X240945Y157874D02*
D03*
Y165748D02*
D03*
Y126378D02*
D03*
Y134252D02*
D03*
Y150000D02*
D03*
Y142126D02*
D03*
Y110630D02*
D03*
Y118504D02*
D03*
Y102756D02*
D03*
Y94882D02*
D03*
D24*
X258661Y203150D02*
D03*
X219291D02*
D03*
X258661Y187795D02*
D03*
X219291D02*
D03*
M02*
