G04*
G04 #@! TF.GenerationSoftware,Altium Limited,CircuitMaker,2.2.1 (2.2.1.6)*
G04*
G04 Layer_Color=20142*
%FSLAX25Y25*%
%MOIN*%
G70*
G04*
G04 #@! TF.SameCoordinates,1CA14471-211C-46C3-BCAE-CC66E2904901*
G04*
G04*
G04 #@! TF.FilePolarity,Negative*
G04*
G01*
G75*
G04:AMPARAMS|DCode=13|XSize=68mil|YSize=126.11mil|CornerRadius=19mil|HoleSize=0mil|Usage=FLASHONLY|Rotation=0.000|XOffset=0mil|YOffset=0mil|HoleType=Round|Shape=RoundedRectangle|*
%AMROUNDEDRECTD13*
21,1,0.06800,0.08811,0,0,0.0*
21,1,0.03000,0.12611,0,0,0.0*
1,1,0.03800,0.01500,-0.04405*
1,1,0.03800,-0.01500,-0.04405*
1,1,0.03800,-0.01500,0.04405*
1,1,0.03800,0.01500,0.04405*
%
%ADD13ROUNDEDRECTD13*%
%ADD14O,0.08674X0.16548*%
%ADD15O,0.16548X0.08674*%
%ADD16O,0.18516X0.08674*%
%ADD17C,0.06800*%
%ADD18C,0.07099*%
D13*
X207480Y113779D02*
D03*
X200197D02*
D03*
X192913D02*
D03*
X185630D02*
D03*
X178347D02*
D03*
D14*
X184646Y185433D02*
D03*
D15*
X164961Y197244D02*
D03*
D16*
Y172835D02*
D03*
D17*
X240945Y157874D02*
D03*
Y165748D02*
D03*
Y126378D02*
D03*
Y134252D02*
D03*
Y150000D02*
D03*
Y142126D02*
D03*
Y110630D02*
D03*
Y118504D02*
D03*
Y102756D02*
D03*
Y94882D02*
D03*
D18*
X258661Y203150D02*
D03*
X219291D02*
D03*
X258661Y187795D02*
D03*
X219291D02*
D03*
M02*
