G04*
G04 #@! TF.GenerationSoftware,Altium Limited,CircuitMaker,2.2.1 (2.2.1.6)*
G04*
G04 Layer_Color=16740166*
%FSLAX25Y25*%
%MOIN*%
G70*
G04*
G04 #@! TF.SameCoordinates,1CA14471-211C-46C3-BCAE-CC66E2904901*
G04*
G04*
G04 #@! TF.FilePolarity,Positive*
G04*
G01*
G75*
%ADD12C,0.01000*%
%ADD27C,0.04724*%
D12*
X382038Y24835D02*
G03*
X382038Y24835I-11818J0D01*
G01*
Y197276D02*
G03*
X382038Y197276I-11818J0D01*
G01*
X35975D02*
G03*
X35975Y197276I-11818J0D01*
G01*
Y24835D02*
G03*
X35975Y24835I-11818J0D01*
G01*
X226378Y207874D02*
X251575D01*
X226378Y198425D02*
Y207874D01*
Y198425D02*
X251575D01*
Y207874D01*
X226378Y192520D02*
X251575D01*
X226378Y183071D02*
Y192520D01*
Y183071D02*
X251575D01*
Y192520D01*
D27*
X370993Y36617D02*
X372524Y36415D01*
X374016Y36015D01*
X375443Y35424D01*
X376781Y34652D01*
X378006Y33712D01*
X379098Y32620D01*
X380038Y31394D01*
X380810Y30057D01*
X381401Y28630D01*
X381801Y27138D01*
X382003Y25607D01*
X382003Y24835D02*
X382003Y25607D01*
X382003Y24835D02*
X382003Y24835D01*
X382003Y24062D01*
X381801Y22531D02*
X382003Y24062D01*
X381402Y21039D02*
X381801Y22531D01*
X380810Y19612D02*
X381402Y21039D01*
X380038Y18275D02*
X380810Y19612D01*
X379098Y17049D02*
X380038Y18275D01*
X378006Y15957D02*
X379098Y17049D01*
X376781Y15017D02*
X378006Y15957D01*
X375443Y14245D02*
X376781Y15017D01*
X374016Y13654D02*
X375443Y14245D01*
X372524Y13254D02*
X374016Y13654D01*
X370993Y13052D02*
X372524Y13254D01*
X370221Y13052D02*
X370993Y13052D01*
X369448Y13052D02*
X370221Y13052D01*
X367917Y13254D02*
X369448Y13052D01*
X366425Y13654D02*
X367917Y13254D01*
X364998Y14245D02*
X366425Y13654D01*
X363661Y15017D02*
X364998Y14245D01*
X362435Y15957D02*
X363661Y15017D01*
X361343Y17049D02*
X362435Y15957D01*
X360403Y18275D02*
X361343Y17049D01*
X359631Y19612D02*
X360403Y18275D01*
X359040Y21039D02*
X359631Y19612D01*
X358640Y22531D02*
X359040Y21039D01*
X358438Y24062D02*
X358640Y22531D01*
X358438Y24062D02*
X358438Y24835D01*
Y24835D01*
Y25607D01*
X358640Y27138D01*
X359040Y28630D01*
X359631Y30057D01*
X360403Y31394D01*
X361343Y32620D01*
X362436Y33712D01*
X363661Y34652D01*
X364998Y35424D01*
X366425Y36015D01*
X367917Y36415D01*
X369448Y36617D01*
X370221Y36617D01*
Y36617D01*
X370993Y36617D01*
X24918Y36622D02*
X26449Y36421D01*
X27941Y36021D01*
X29368Y35430D01*
X30705Y34658D01*
X31931Y33717D01*
X33023Y32625D01*
X33963Y31400D01*
X34735Y30062D01*
X35326Y28635D01*
X35726Y27144D01*
X35928Y25612D01*
X35928Y24840D02*
X35928Y25612D01*
X35928Y24840D02*
X35928Y24840D01*
X35928Y24068D01*
X35726Y22536D02*
X35928Y24068D01*
X35326Y21045D02*
X35726Y22536D01*
X34735Y19618D02*
X35326Y21045D01*
X33963Y18280D02*
X34735Y19618D01*
X33023Y17055D02*
X33963Y18280D01*
X31931Y15963D02*
X33023Y17055D01*
X30705Y15022D02*
X31931Y15963D01*
X29368Y14250D02*
X30705Y15022D01*
X27941Y13659D02*
X29368Y14250D01*
X26449Y13260D02*
X27941Y13659D01*
X24918Y13058D02*
X26449Y13260D01*
X24145Y13058D02*
X24918Y13058D01*
X23373Y13058D02*
X24145Y13058D01*
X21842Y13260D02*
X23373Y13058D01*
X20350Y13659D02*
X21842Y13260D01*
X18923Y14250D02*
X20350Y13659D01*
X17585Y15022D02*
X18923Y14250D01*
X16360Y15963D02*
X17585Y15022D01*
X15268Y17055D02*
X16360Y15963D01*
X14328Y18280D02*
X15268Y17055D01*
X13556Y19618D02*
X14328Y18280D01*
X12965Y21045D02*
X13556Y19618D01*
X12565Y22537D02*
X12965Y21045D01*
X12363Y24068D02*
X12565Y22537D01*
X12363Y24068D02*
X12363Y24840D01*
Y24840D01*
Y25612D01*
X12565Y27144D01*
X12965Y28635D01*
X13556Y30062D01*
X14328Y31400D01*
X15268Y32625D01*
X16360Y33717D01*
X17586Y34658D01*
X18923Y35430D01*
X20350Y36021D01*
X21842Y36421D01*
X23373Y36622D01*
X24145Y36622D01*
Y36622D01*
X24918Y36622D01*
X114798Y84958D02*
X116699Y84579D01*
X118491Y83837D01*
X120103Y82760D01*
X121474Y81389D01*
X122551Y79777D01*
X123293Y77986D01*
X123671Y76085D01*
Y75115D02*
Y76085D01*
Y74721D02*
Y75115D01*
Y73752D02*
Y74721D01*
X123293Y71851D02*
X123671Y73752D01*
X122551Y70059D02*
X123293Y71851D01*
X121474Y68447D02*
X122551Y70059D01*
X120103Y67076D02*
X121474Y68447D01*
X118491Y65999D02*
X120103Y67076D01*
X116699Y65257D02*
X118491Y65999D01*
X114798Y64879D02*
X116699Y65257D01*
X112859Y64879D02*
X114798D01*
X110957Y65257D02*
X112859Y64879D01*
X109166Y65999D02*
X110957Y65257D01*
X107554Y67076D02*
X109166Y65999D01*
X106183Y68447D02*
X107554Y67076D01*
X105106Y70059D02*
X106183Y68447D01*
X104364Y71851D02*
X105106Y70059D01*
X103986Y73752D02*
X104364Y71851D01*
X103986Y73752D02*
Y74721D01*
Y75115D01*
Y76085D01*
X104364Y77986D01*
X105106Y79777D01*
X106183Y81389D01*
X107554Y82760D01*
X109166Y83837D01*
X110957Y84579D01*
X112859Y84958D01*
X114798D01*
X37634Y85032D02*
X39535Y84653D01*
X41326Y83911D01*
X42939Y82834D01*
X44309Y81463D01*
X45387Y79851D01*
X46128Y78060D01*
X46507Y76158D01*
Y75189D02*
Y76158D01*
Y74795D02*
Y75189D01*
Y73826D02*
Y74795D01*
X46128Y71925D02*
X46507Y73826D01*
X45387Y70133D02*
X46128Y71925D01*
X44309Y68521D02*
X45387Y70133D01*
X42939Y67150D02*
X44309Y68521D01*
X41326Y66073D02*
X42939Y67150D01*
X39535Y65331D02*
X41326Y66073D01*
X37634Y64953D02*
X39535Y65331D01*
X35695Y64953D02*
X37634D01*
X33793Y65331D02*
X35695Y64953D01*
X32002Y66073D02*
X33793Y65331D01*
X30390Y67150D02*
X32002Y66073D01*
X29019Y68521D02*
X30390Y67150D01*
X27942Y70133D02*
X29019Y68521D01*
X27200Y71925D02*
X27942Y70133D01*
X26822Y73826D02*
X27200Y71925D01*
X26822Y73826D02*
Y74795D01*
Y75189D01*
Y76158D01*
X27200Y78060D01*
X27942Y79851D01*
X29019Y81463D01*
X30390Y82834D01*
X32002Y83911D01*
X33793Y84653D01*
X35695Y85032D01*
X37634D01*
X356924Y85253D02*
X358825Y84875D01*
X360616Y84133D01*
X362229Y83056D01*
X363599Y81685D01*
X364677Y80073D01*
X365419Y78281D01*
X365797Y76380D01*
Y75410D02*
Y76380D01*
Y75017D02*
Y75410D01*
Y74047D02*
Y75017D01*
X365419Y72146D02*
X365797Y74047D01*
X364677Y70355D02*
X365419Y72146D01*
X363599Y68743D02*
X364677Y70355D01*
X362229Y67372D02*
X363599Y68743D01*
X360616Y66294D02*
X362229Y67372D01*
X358825Y65553D02*
X360616Y66294D01*
X356924Y65174D02*
X358825Y65553D01*
X354985Y65174D02*
X356924D01*
X353083Y65553D02*
X354985Y65174D01*
X351292Y66294D02*
X353083Y65553D01*
X349680Y67372D02*
X351292Y66294D01*
X348309Y68743D02*
X349680Y67372D01*
X347232Y70355D02*
X348309Y68743D01*
X346490Y72146D02*
X347232Y70355D01*
X346112Y74047D02*
X346490Y72146D01*
X346112Y74047D02*
Y75017D01*
Y75410D01*
Y76380D01*
X346490Y78281D01*
X347232Y80073D01*
X348309Y81685D01*
X349680Y83056D01*
X351292Y84133D01*
X353083Y84875D01*
X354985Y85253D01*
X356924D01*
X279760Y85327D02*
X281661Y84949D01*
X283452Y84207D01*
X285065Y83130D01*
X286435Y81759D01*
X287513Y80147D01*
X288254Y78355D01*
X288633Y76454D01*
Y75484D02*
Y76454D01*
Y75091D02*
Y75484D01*
Y74121D02*
Y75091D01*
X288254Y72220D02*
X288633Y74121D01*
X287513Y70429D02*
X288254Y72220D01*
X286435Y68816D02*
X287513Y70429D01*
X285065Y67445D02*
X286435Y68816D01*
X283452Y66368D02*
X285065Y67445D01*
X281661Y65626D02*
X283452Y66368D01*
X279760Y65248D02*
X281661Y65626D01*
X277821Y65248D02*
X279760D01*
X275919Y65626D02*
X277821Y65248D01*
X274128Y66368D02*
X275919Y65626D01*
X272516Y67445D02*
X274128Y66368D01*
X271145Y68816D02*
X272516Y67445D01*
X270068Y70429D02*
X271145Y68816D01*
X269326Y72220D02*
X270068Y70429D01*
X268948Y74121D02*
X269326Y72220D01*
X268948Y74121D02*
Y75091D01*
Y75484D01*
Y76454D01*
X269326Y78355D01*
X270068Y80147D01*
X271145Y81759D01*
X272516Y83130D01*
X274128Y84207D01*
X275919Y84949D01*
X277821Y85327D01*
X279760D01*
X114749Y161909D02*
X116650Y161531D01*
X118442Y160789D01*
X120054Y159712D01*
X121425Y158341D01*
X122502Y156729D01*
X123244Y154938D01*
X123622Y153036D01*
Y152067D02*
Y153036D01*
Y151673D02*
Y152067D01*
Y150704D02*
Y151673D01*
X123244Y148802D02*
X123622Y150704D01*
X122502Y147011D02*
X123244Y148802D01*
X121425Y145399D02*
X122502Y147011D01*
X120054Y144028D02*
X121425Y145399D01*
X118442Y142951D02*
X120054Y144028D01*
X116650Y142209D02*
X118442Y142951D01*
X114749Y141831D02*
X116650Y142209D01*
X112810Y141831D02*
X114749D01*
X110909Y142209D02*
X112810Y141831D01*
X109117Y142951D02*
X110909Y142209D01*
X107505Y144028D02*
X109117Y142951D01*
X106134Y145399D02*
X107505Y144028D01*
X105057Y147011D02*
X106134Y145399D01*
X104315Y148802D02*
X105057Y147011D01*
X103937Y150704D02*
X104315Y148802D01*
X103937Y150704D02*
Y151673D01*
Y152067D01*
Y153036D01*
X104315Y154938D01*
X105057Y156729D01*
X106134Y158341D01*
X107505Y159712D01*
X109117Y160789D01*
X110909Y161531D01*
X112810Y161909D01*
X114749D01*
X37632Y162099D02*
X39533Y161720D01*
X41325Y160978D01*
X42937Y159901D01*
X44308Y158530D01*
X45385Y156918D01*
X46127Y155127D01*
X46505Y153226D01*
Y152256D02*
Y153226D01*
Y151862D02*
Y152256D01*
Y150893D02*
Y151862D01*
X46127Y148991D02*
X46505Y150893D01*
X45385Y147200D02*
X46127Y148991D01*
X44308Y145588D02*
X45385Y147200D01*
X42937Y144217D02*
X44308Y145588D01*
X41325Y143140D02*
X42937Y144217D01*
X39533Y142398D02*
X41325Y143140D01*
X37632Y142020D02*
X39533Y142398D01*
X35693Y142020D02*
X37632D01*
X33792Y142398D02*
X35693Y142020D01*
X32000Y143140D02*
X33792Y142398D01*
X30388Y144217D02*
X32000Y143140D01*
X29017Y145588D02*
X30388Y144217D01*
X27940Y147200D02*
X29017Y145588D01*
X27198Y148991D02*
X27940Y147200D01*
X26820Y150893D02*
X27198Y148991D01*
X26820Y150893D02*
Y151862D01*
Y152256D01*
Y153226D01*
X27198Y155127D01*
X27940Y156918D01*
X29017Y158530D01*
X30388Y159901D01*
X32000Y160978D01*
X33792Y161720D01*
X35693Y162099D01*
X37632D01*
X356875Y162205D02*
X358776Y161827D01*
X360568Y161084D01*
X362180Y160007D01*
X363551Y158636D01*
X364628Y157024D01*
X365370Y155233D01*
X365748Y153332D01*
Y152362D02*
Y153332D01*
Y151969D02*
Y152362D01*
Y150999D02*
Y151969D01*
X365370Y149098D02*
X365748Y150999D01*
X364628Y147306D02*
X365370Y149098D01*
X363551Y145694D02*
X364628Y147306D01*
X362180Y144323D02*
X363551Y145694D01*
X360568Y143246D02*
X362180Y144323D01*
X358776Y142504D02*
X360568Y143246D01*
X356875Y142126D02*
X358776Y142504D01*
X354936Y142126D02*
X356875D01*
X353034Y142504D02*
X354936Y142126D01*
X351243Y143246D02*
X353034Y142504D01*
X349631Y144323D02*
X351243Y143246D01*
X348260Y145694D02*
X349631Y144323D01*
X347183Y147306D02*
X348260Y145694D01*
X346441Y149098D02*
X347183Y147306D01*
X346063Y150999D02*
X346441Y149098D01*
X346063Y150999D02*
Y151969D01*
Y152362D01*
Y153332D01*
X346441Y155233D01*
X347183Y157024D01*
X348260Y158636D01*
X349631Y160007D01*
X351243Y161084D01*
X353034Y161827D01*
X354936Y162205D01*
X356875D01*
X279758Y162394D02*
X281659Y162016D01*
X283451Y161274D01*
X285063Y160196D01*
X286434Y158826D01*
X287511Y157213D01*
X288253Y155422D01*
X288631Y153521D01*
Y152551D02*
Y153521D01*
Y152158D02*
Y152551D01*
Y151188D02*
Y152158D01*
X288253Y149287D02*
X288631Y151188D01*
X287511Y147495D02*
X288253Y149287D01*
X286434Y145883D02*
X287511Y147495D01*
X285063Y144512D02*
X286434Y145883D01*
X283451Y143435D02*
X285063Y144512D01*
X281659Y142693D02*
X283451Y143435D01*
X279758Y142315D02*
X281659Y142693D01*
X277819Y142315D02*
X279758D01*
X275918Y142693D02*
X277819Y142315D01*
X274126Y143435D02*
X275918Y142693D01*
X272514Y144512D02*
X274126Y143435D01*
X271143Y145883D02*
X272514Y144512D01*
X270066Y147495D02*
X271143Y145883D01*
X269324Y149287D02*
X270066Y147495D01*
X268946Y151188D02*
X269324Y149287D01*
X268946Y151188D02*
Y152158D01*
Y152551D01*
Y153521D01*
X269324Y155422D01*
X270066Y157213D01*
X271143Y158826D01*
X272514Y160196D01*
X274126Y161274D01*
X275918Y162016D01*
X277819Y162394D01*
X279758D01*
X75197Y152854D02*
X75197Y152853D01*
X77131Y152853D01*
X80980Y152474D01*
X84774Y151719D01*
X88476Y150597D01*
X92050Y149116D01*
X95461Y147293D01*
X98678Y145144D01*
X101668Y142690D01*
X104403Y139955D01*
X106857Y136965D01*
X109006Y133748D01*
X110830Y130337D01*
X112310Y126763D01*
X113433Y123062D01*
X114188Y119268D01*
X114567Y115418D01*
X114567Y113484D01*
X114567Y113484D01*
X114567Y111550D01*
X114188Y107700D02*
X114567Y111550D01*
X113433Y103907D02*
X114188Y107700D01*
X112310Y100205D02*
X113433Y103907D01*
X110830Y96631D02*
X112310Y100205D01*
X109007Y93219D02*
X110830Y96631D01*
X106857Y90003D02*
X109007Y93219D01*
X104403Y87013D02*
X106857Y90003D01*
X101668Y84278D02*
X104403Y87013D01*
X98678Y81824D02*
X101668Y84278D01*
X95462Y79675D02*
X98678Y81824D01*
X92050Y77851D02*
X95462Y79675D01*
X88476Y76371D02*
X92050Y77851D01*
X84775Y75248D02*
X88476Y76371D01*
X80981Y74493D02*
X84775Y75248D01*
X77131Y74114D02*
X80981Y74493D01*
X75197Y74114D02*
X77131Y74114D01*
X73263D02*
X75197Y74114D01*
X69413Y74493D02*
X73263Y74114D01*
X65619Y75248D02*
X69413Y74493D01*
X61917Y76371D02*
X65619Y75248D01*
X58343Y77851D02*
X61917Y76371D01*
X54932Y79675D02*
X58343Y77851D01*
X51716Y81824D02*
X54932Y79675D01*
X48725Y84278D02*
X51716Y81824D01*
X45990Y87013D02*
X48725Y84278D01*
X43536Y90003D02*
X45990Y87013D01*
X41387Y93219D02*
X43536Y90003D01*
X39564Y96631D02*
X41387Y93219D01*
X38083Y100205D02*
X39564Y96631D01*
X36960Y103907D02*
X38083Y100205D01*
X36206Y107700D02*
X36960Y103907D01*
X35827Y111550D02*
X36206Y107700D01*
X35827Y111550D02*
X35827Y113484D01*
Y113484D01*
Y115418D01*
X36206Y119268D01*
X36961Y123062D01*
X38083Y126764D01*
X39564Y130337D01*
X41387Y133749D01*
X43536Y136965D01*
X45990Y139955D01*
X48726Y142691D01*
X51716Y145145D01*
X54932Y147294D01*
X58344Y149117D01*
X61917Y150598D01*
X65619Y151720D01*
X69413Y152475D01*
X73263Y152854D01*
X75197Y152854D01*
X75197Y152854D01*
X317323Y153149D02*
X317323Y153148D01*
X319257Y153148D01*
X323107Y152769D01*
X326900Y152015D01*
X330602Y150892D01*
X334176Y149412D01*
X337587Y147588D01*
X340804Y145439D01*
X343794Y142985D01*
X346529Y140250D01*
X348983Y137260D01*
X351132Y134044D01*
X352956Y130632D01*
X354436Y127059D01*
X355559Y123357D01*
X356314Y119563D01*
X356693Y115714D01*
X356693Y113779D01*
X356693Y113779D01*
X356693Y111845D01*
X356314Y107996D02*
X356693Y111845D01*
X355559Y104202D02*
X356314Y107996D01*
X354436Y100500D02*
X355559Y104202D01*
X352956Y96926D02*
X354436Y100500D01*
X351132Y93515D02*
X352956Y96926D01*
X348983Y90298D02*
X351132Y93515D01*
X346529Y87308D02*
X348983Y90298D01*
X343794Y84573D02*
X346529Y87308D01*
X340804Y82119D02*
X343794Y84573D01*
X337588Y79970D02*
X340804Y82119D01*
X334176Y78146D02*
X337588Y79970D01*
X330602Y76666D02*
X334176Y78146D01*
X326901Y75543D02*
X330602Y76666D01*
X323107Y74788D02*
X326901Y75543D01*
X319257Y74409D02*
X323107Y74788D01*
X317323Y74410D02*
X319257Y74409D01*
X315389D02*
X317323Y74410D01*
X311539Y74788D02*
X315389Y74409D01*
X307745Y75543D02*
X311539Y74788D01*
X304043Y76666D02*
X307745Y75543D01*
X300469Y78146D02*
X304043Y76666D01*
X297058Y79970D02*
X300469Y78146D01*
X293842Y82119D02*
X297058Y79970D01*
X290851Y84573D02*
X293842Y82119D01*
X288116Y87308D02*
X290851Y84573D01*
X285662Y90298D02*
X288116Y87308D01*
X283513Y93515D02*
X285662Y90298D01*
X281690Y96926D02*
X283513Y93515D01*
X280209Y100500D02*
X281690Y96926D01*
X279086Y104202D02*
X280209Y100500D01*
X278332Y107996D02*
X279086Y104202D01*
X277953Y111845D02*
X278332Y107996D01*
X277953Y111845D02*
X277953Y113779D01*
Y113779D01*
Y115714D01*
X278332Y119563D01*
X279087Y123357D01*
X280209Y127059D01*
X281690Y130633D01*
X283513Y134044D01*
X285662Y137260D01*
X288116Y140251D01*
X290852Y142986D01*
X293842Y145440D01*
X297058Y147589D01*
X300470Y149413D01*
X304043Y150893D01*
X307745Y152016D01*
X311539Y152770D01*
X315389Y153149D01*
X317323Y153149D01*
X317323Y153149D01*
X370993Y209058D02*
X372524Y208856D01*
X374016Y208456D01*
X375443Y207865D01*
X376781Y207093D01*
X378006Y206153D01*
X379098Y205061D01*
X380038Y203835D01*
X380810Y202498D01*
X381401Y201071D01*
X381801Y199579D01*
X382003Y198048D01*
X382003Y197275D02*
X382003Y198048D01*
X382003Y197275D02*
X382003Y197275D01*
X382003Y196503D01*
X381801Y194972D02*
X382003Y196503D01*
X381402Y193480D02*
X381801Y194972D01*
X380810Y192053D02*
X381402Y193480D01*
X380038Y190716D02*
X380810Y192053D01*
X379098Y189490D02*
X380038Y190716D01*
X378006Y188398D02*
X379098Y189490D01*
X376781Y187458D02*
X378006Y188398D01*
X375443Y186686D02*
X376781Y187458D01*
X374016Y186095D02*
X375443Y186686D01*
X372524Y185695D02*
X374016Y186095D01*
X370993Y185493D02*
X372524Y185695D01*
X370221Y185493D02*
X370993Y185493D01*
X369448Y185493D02*
X370221Y185493D01*
X367917Y185695D02*
X369448Y185493D01*
X366425Y186095D02*
X367917Y185695D01*
X364998Y186686D02*
X366425Y186095D01*
X363661Y187458D02*
X364998Y186686D01*
X362435Y188398D02*
X363661Y187458D01*
X361343Y189490D02*
X362435Y188398D01*
X360403Y190716D02*
X361343Y189490D01*
X359631Y192053D02*
X360403Y190716D01*
X359040Y193480D02*
X359631Y192053D01*
X358640Y194972D02*
X359040Y193480D01*
X358438Y196503D02*
X358640Y194972D01*
X358438Y196503D02*
X358438Y197275D01*
Y197276D01*
Y198048D01*
X358640Y199579D01*
X359040Y201071D01*
X359631Y202498D01*
X360403Y203835D01*
X361343Y205061D01*
X362436Y206153D01*
X363661Y207093D01*
X364998Y207865D01*
X366425Y208456D01*
X367917Y208856D01*
X369448Y209058D01*
X370221Y209058D01*
Y209058D01*
X370993Y209058D01*
X24926Y209205D02*
X26458Y209003D01*
X27949Y208603D01*
X29376Y208012D01*
X30714Y207240D01*
X31939Y206300D01*
X33031Y205207D01*
X33972Y203982D01*
X34744Y202645D01*
X35335Y201218D01*
X35735Y199726D01*
X35936Y198195D01*
X35936Y197422D02*
X35936Y198195D01*
X35936Y197422D02*
X35936Y197422D01*
X35936Y196650D01*
X35735Y195119D02*
X35936Y196650D01*
X35335Y193627D02*
X35735Y195119D01*
X34744Y192200D02*
X35335Y193627D01*
X33972Y190862D02*
X34744Y192200D01*
X33031Y189637D02*
X33972Y190862D01*
X31939Y188545D02*
X33031Y189637D01*
X30714Y187605D02*
X31939Y188545D01*
X29376Y186832D02*
X30714Y187605D01*
X27949Y186241D02*
X29376Y186832D01*
X26458Y185842D02*
X27949Y186241D01*
X24926Y185640D02*
X26458Y185842D01*
X24154Y185640D02*
X24926Y185640D01*
X23382Y185640D02*
X24154Y185640D01*
X21850Y185842D02*
X23382Y185640D01*
X20358Y186241D02*
X21850Y185842D01*
X18932Y186832D02*
X20358Y186241D01*
X17594Y187605D02*
X18932Y186832D01*
X16369Y188545D02*
X17594Y187605D01*
X15277Y189637D02*
X16369Y188545D01*
X14336Y190862D02*
X15277Y189637D01*
X13564Y192200D02*
X14336Y190862D01*
X12973Y193627D02*
X13564Y192200D01*
X12573Y195119D02*
X12973Y193627D01*
X12372Y196650D02*
X12573Y195119D01*
X12372Y196650D02*
X12372Y197422D01*
Y197422D01*
Y198195D01*
X12573Y199726D01*
X12973Y201218D01*
X13564Y202645D01*
X14336Y203982D01*
X15277Y205207D01*
X16369Y206300D01*
X17594Y207240D01*
X18932Y208012D01*
X20359Y208603D01*
X21850Y209003D01*
X23382Y209205D01*
X24154Y209205D01*
Y209205D01*
X24926Y209205D01*
X317323Y74410D02*
X317323D01*
X317323D02*
X317323D01*
X317323D02*
X317323D01*
X75197Y74114D02*
X75197D01*
X75197D02*
X75197D01*
X75197D02*
X75197D01*
X391732Y0D02*
Y218504D01*
X0D02*
X391732D01*
X0Y0D02*
Y218504D01*
Y0D02*
X391732D01*
M02*
